<svg width="392" height="351" viewBox="0 0 392 351" fill="none" xmlns="http://www.w3.org/2000/svg">
<path d="M290.325 16.5277C284.445 19.7186 280.606 27.4913 281.096 35.1823L281.341 39.6823L273.828 43.3641C269.745 45.4095 265.58 47.7823 264.6 48.6823C262.476 50.5641 257.74 59.8095 255.453 66.2732C253.575 71.755 252.595 85.8277 253.82 90.1641C254.391 92.2913 254.391 94.0913 253.82 95.9732C253.248 97.7732 253.248 100.882 253.656 104.81C254.31 110.291 254.555 110.864 256.106 110.7C258.311 110.455 259.455 113.728 257.658 115.037C257.005 115.528 256.433 116.51 256.433 117.246C256.433 120.11 253.493 118.964 248.675 114.055C244.918 110.21 242.795 108.737 239.283 107.673C236.833 106.855 233.321 105.219 231.525 103.91C229.728 102.682 226.216 100.964 223.766 99.9823C221.316 99.0822 217.478 97.4459 215.191 96.3004C212.986 95.155 204.901 92.1277 197.225 89.5095C189.63 86.9732 181.218 83.7823 178.523 82.4732C173.215 79.7732 171.908 80.0186 174.766 83.0459C177.053 85.5004 177.135 85.4186 170.601 83.7823C165.048 82.3913 160.066 82.7186 156.963 84.7641C155.901 85.5004 155.248 86.5641 155.493 87.1368C155.738 87.8732 154.35 88.855 151.491 90.0004C140.63 94.4186 134.423 105.219 139.895 110.291C142.508 112.746 142.916 112.582 142.018 109.473C141.038 105.955 141.038 103.91 142.1 103.91C142.59 103.91 142.916 105.055 142.916 106.364C142.916 111.764 148.796 118.391 154.268 119.455C157.861 120.11 169.376 118.555 172.235 117.082C175.011 115.528 174.195 114.71 170.52 115.037L167.008 115.364L170.193 114.546C171.908 114.055 173.95 113.073 174.685 112.255C176.4 110.373 180.483 108.573 180.483 109.719C180.483 110.21 179.258 112.173 177.788 114.137C176.318 116.1 173.95 120.846 172.643 124.691C170.275 131.81 169.621 132.791 168.723 130.5C168.07 128.619 164.395 129.028 163.006 131.073C162.271 132.055 161.7 134.1 161.7 135.573C161.7 137.128 160.965 140.4 160.066 142.937C159.168 145.555 158.433 148.582 158.433 149.728C158.433 153.982 155.82 164.128 153.86 167.482C152.798 169.364 151.9 171.655 151.9 172.637V174.355L149.531 172.719C146.265 170.346 142.753 170.51 139.731 173.128L137.2 175.255L127.236 174.355C121.683 173.946 109.678 173.128 100.45 172.637C85.423 171.819 77.828 171.082 69.498 169.61L66.803 169.2L67.293 117.9C67.6196 89.755 67.9463 63.9004 68.028 60.5459L68.1913 54.4095L64.9246 54.655C63.128 54.8186 59.0446 56.1277 55.778 57.6823C52.593 59.155 47.7746 60.8732 45.1613 61.3641L40.4246 62.3459L43.283 64.8004C44.8346 66.1095 49.5713 69.055 53.7363 71.3459L61.2496 75.4368V122.482V169.61L45.243 169.119C26.378 168.464 22.2946 169.119 19.1096 172.882C15.4346 177.219 13.7196 182.291 13.3113 189.9C12.7396 199.473 14.2913 204.137 19.4363 208.637L23.2746 211.91H30.4613C36.5863 211.91 38.0563 212.155 40.6696 213.873C42.303 214.937 47.2846 217.964 51.7763 220.5L59.7796 225.246L59.208 239.646C58.8813 247.582 58.473 254.128 58.3913 254.291C58.228 254.455 57.4113 254.21 56.5946 253.719C55.6963 253.31 52.5113 252.491 49.408 251.919C42.058 250.691 30.6246 252.164 29.318 254.537C28.828 255.519 28.583 265.337 28.7463 281.373L28.9913 306.737L31.4413 309.273C35.688 313.773 39.608 315.328 46.5496 315.246C49.9796 315.246 53.9813 314.673 55.6146 314.019C58.228 312.873 58.718 312.873 61.3313 314.264C65.1696 316.31 71.7846 316.228 77.7463 314.1L82.5646 312.3L81.9113 302.81C81.5846 297.573 81.3396 280.228 81.3396 264.273C81.258 238.091 81.4213 234.982 82.728 232.61C84.443 229.419 84.5246 226.146 82.8913 223.037C82.238 221.81 81.6663 219.191 81.6663 217.31V213.955L105.105 214.2C152.716 214.61 219.765 216.737 237.078 218.373C244.673 219.11 244.428 219.028 256.923 227.455L262.395 231.137L261.905 243.246C261.578 249.873 261.17 255.682 260.925 256.091C260.68 256.582 259.618 256.5 258.23 256.01C257.005 255.519 252.023 254.946 247.041 254.7C238.875 254.291 237.895 254.373 236.016 255.928L233.975 257.564L233.485 280.228C233.158 292.746 233.158 304.773 233.485 307.064C233.893 310.91 234.301 311.4 237.16 313.119C241.243 315.328 246.551 316.064 252.35 315.082C256.27 314.428 257.495 314.591 261.66 316.31C267.05 318.519 275.298 318.928 278.891 317.291C280.688 316.473 281.26 316.555 282.811 318.11L284.608 319.91L282.24 324.246C278.891 330.546 279.381 331.773 286.976 336.437C296.368 342.164 300.451 341.591 297.756 335.046C297.021 333.41 296.695 331.2 296.94 330.219C297.185 329.073 296.613 326.946 295.47 324.737C293.673 321.219 293.591 320.564 293.755 302.728C293.836 289.473 294.245 282.11 295.306 276.3C296.695 268.528 296.776 268.282 298.083 270C298.981 271.228 299.716 275.073 300.451 282.519C301.758 296.51 302.656 300.519 305.106 302.81C307.556 305.1 307.556 307.064 305.27 311.564C303.555 314.755 303.473 315.164 304.616 317.128C307.23 321.71 323.4 325.064 323.4 321.055C323.4 319.664 319.643 310.337 316.458 303.955C315.07 301.255 314.416 298.473 314.416 295.773C314.416 293.482 313.518 286.855 312.456 281.046C311.395 275.155 310.251 268.61 309.925 266.319C309.598 264.11 308.536 260.591 307.556 258.546C304.861 253.31 303.473 245.21 304.698 242.837C306.168 240.137 307.883 233.182 307.883 229.91C307.883 226.637 309.19 224.182 315.07 216.982C318.581 212.564 319.398 210.846 320.541 205.528C321.276 202.091 322.175 197.673 322.665 195.71C323.073 193.828 323.4 191.291 323.4 190.146C323.4 189 323.808 187.282 324.298 186.3C325.605 183.764 339.08 166.091 339.651 166.091C339.896 166.091 342.591 168.3 345.531 170.919C351.33 176.237 354.188 181.31 355.168 188.1C355.658 191.619 355.985 192.028 359.578 193.828C363.988 195.955 368.725 195.71 369.46 193.255C369.705 192.437 371.093 191.128 372.481 190.31C375.013 188.837 375.013 188.755 374.523 183.764C372.318 159.628 372.318 158.646 374.441 153.982C376.156 150.219 376.401 148.991 375.666 146.619C375.013 144.164 375.176 143.264 376.565 141.055C378.443 137.946 377.953 136.228 374.441 133.61L372.318 132.055L374.686 126.819C377.626 120.437 378.851 112.91 376.973 112.91C375.421 112.91 373.135 115.855 371.175 120.355C369.215 124.855 368.643 125.182 365.703 124.2L363.416 123.382L366.683 121.01C370.603 118.146 370.766 117.41 367.5 118.064C365.458 118.555 364.968 118.31 364.56 116.591C364.315 115.528 364.315 113.891 364.641 112.991C365.295 110.946 364.233 110.782 361.048 112.5C359.741 113.155 358.516 113.482 358.271 113.237C358.026 112.991 357.128 113.237 356.148 113.81C354.76 114.791 354.188 114.628 352.065 113.073L349.615 111.273L347.573 113.973C346.43 115.364 345.45 116.182 345.45 115.773C345.45 115.282 345.123 114.464 344.715 113.891C344.225 112.991 343 113.319 339.243 115.446C336.548 116.919 333.118 119.128 331.566 120.437C327.81 123.464 326.585 123.382 329.933 120.273C332.138 118.228 332.465 117.41 332.056 115.282C331.811 113.891 330.913 111.764 330.015 110.619C329.035 109.146 328.626 107.51 328.871 105.791C329.198 103.991 328.708 102.273 327.565 100.31C325.441 96.8732 321.603 85.9913 322.256 85.0095C322.828 83.9459 319.561 68.2368 318.091 65.3732C314.09 57.6823 306.331 47.455 304.535 47.455C304.126 47.455 303.8 46.8823 303.8 46.2277C303.8 44.755 309.271 33.7095 310.986 31.7459C312.048 30.5186 311.966 30.0277 310.006 27.8186C308.863 26.3459 307.883 24.8732 307.883 24.3823C307.883 22.5822 304.29 18.7368 301.35 17.1823C297.838 15.3823 292.856 15.055 290.325 16.5277ZM310.66 91.8004C312.375 95.5641 314.58 99.4913 315.641 100.637C316.703 101.782 318.091 104.073 318.826 105.71L320.051 108.819H317.846C316.621 108.819 313.11 110.291 310.006 112.091C306.903 113.891 304.208 115.2 304.045 115.037C303.8 114.873 304.29 113.728 305.025 112.582C306.576 110.291 306.086 106.282 304.126 104.646C302.656 103.419 302.656 101.373 304.208 99.3277C304.861 98.5095 305.433 96.3004 305.433 94.5004C305.433 90.0822 306.331 85.0913 307.066 85.0913C307.393 85.0913 309.026 88.1186 310.66 91.8004ZM320.541 113.073C320.623 114.3 321.848 117.164 323.4 119.537L326.095 123.791L324.135 125.264C323.073 126.082 321.848 126.819 321.44 126.819C321.113 126.819 319.643 127.719 318.336 128.946C314.58 132.055 312.13 131.4 308.945 126.491C307.475 124.2 305.923 121.419 305.515 120.191C304.78 118.064 305.025 117.737 309.353 114.71C314.825 110.946 315.805 110.537 318.5 110.7C320.133 110.864 320.541 111.355 320.541 113.073ZM198.205 161.755C199.511 163.473 201.39 166.173 202.37 167.728C204.656 171.491 208.74 175.337 212.741 177.382L216.008 179.1L195.836 179.182C180.973 179.182 175.583 178.937 175.583 178.2C175.583 177.055 179.34 170.346 181.218 168.219C181.953 167.4 184.158 165.928 186.2 164.864C188.241 163.8 190.773 162 191.835 160.855C194.53 157.991 195.428 158.155 198.205 161.755ZM169.05 164.21C169.05 165.519 168.478 166.419 167.498 166.664C166.518 166.91 165.62 168.055 165.375 169.446C165.048 170.755 164.476 171.819 163.986 171.819C163.088 171.819 163.333 170.1 165.13 163.473C166.11 159.873 166.191 159.71 167.58 160.937C168.396 161.673 169.05 163.146 169.05 164.21ZM46.5496 213.137C47.8563 214.691 46.5496 214.691 44.4263 213.137C43.1196 212.155 43.1196 211.991 44.1813 211.91C44.9163 211.91 45.978 212.482 46.5496 213.137ZM59.453 219.028C59.6163 220.5 59.5346 221.728 59.208 221.728C58.1463 221.728 52.5113 218.455 51.4496 217.228C50.4696 216 50.7963 215.919 54.798 216.164C59.1263 216.41 59.208 216.491 59.453 219.028ZM261.578 219.846C262.231 220.255 262.395 227.455 261.66 227.455C261.006 227.455 248.266 219.191 248.266 218.7C248.266 218.291 260.598 219.273 261.578 219.846ZM82.483 226.8C82.483 227.373 82.0746 228.437 81.6663 229.091C81.013 230.073 80.8496 229.828 80.8496 228.028C80.8496 226.8 81.258 225.819 81.6663 225.819C82.1563 225.819 82.483 226.31 82.483 226.8ZM284.771 262.637C284.608 275.482 284.118 286.528 283.873 287.264C283.546 288 282.811 291.519 282.24 295.037C281.26 300.846 281.178 298.882 281.505 274.5C281.668 259.61 281.995 244.391 282.321 240.546L282.811 233.591L283.955 236.455C285.016 238.828 285.098 243.41 284.771 262.637Z" fill="black"/>
</svg>
