<svg width="280" height="280" viewBox="0 0 280 280" fill="none" xmlns="http://www.w3.org/2000/svg">
<path d="M235.45 5.35141C229.974 10.9514 227.734 17.2981 227.734 26.7559C227.734 34.2225 226.116 39.2003 220.641 48.4092C220.392 48.907 217.903 47.787 212.676 45.0492C212.178 44.9248 212.178 46.1692 212.427 47.9114C213.174 51.2714 212.552 51.6448 209.067 49.7781C207.201 48.7825 206.703 49.1559 206.081 51.6448C205.458 53.8848 204.463 54.7559 202.347 54.7559C200.73 54.7559 199.112 55.627 198.614 56.6225C198.241 57.6181 196.747 58.4892 195.378 58.4892C194.01 58.4892 192.89 59.3603 192.89 60.3559C192.89 61.3514 191.147 62.4714 188.534 62.9692C184.925 63.5914 184.427 64.0892 185.423 65.9559C186.792 68.5692 185.921 69.6892 182.187 69.6892C179.076 69.6892 177.334 73.1736 178.454 76.907C178.952 78.4003 178.081 79.7692 175.592 81.2625C166.756 86.3648 127.805 87.4848 103.663 83.2536C82.6318 79.5203 57.9918 79.5203 48.2851 83.1292C33.3518 88.6048 22.5251 98.0625 15.6807 111.627C11.4496 120.089 7.46734 136.64 7.46734 146.223C7.3429 153.067 6.96956 155.68 4.23178 168C3.36067 171.983 3.48512 172.231 5.35178 170.738C7.21845 169.245 7.21845 169.494 6.2229 173.227C4.60512 178.578 4.60512 190.4 6.2229 190.4C6.96956 190.4 7.46734 192.143 7.46734 194.134C7.46734 196.249 7.96512 198.863 8.58734 200.107C9.33401 201.227 10.2051 204.836 10.5785 208.071C11.4496 215.289 13.6896 217.28 13.6896 210.934C13.6896 208.445 14.1873 206.703 14.8096 207.076C17.2985 208.694 18.7918 189.031 18.0451 165.263C17.6718 152.071 17.7962 137.636 18.294 133.156L19.414 125.067L23.2718 132.534C28.7473 143.36 33.6007 159.538 33.6007 167.503C33.6007 175.591 31.6096 180.818 25.5118 188.783L21.0318 194.631L21.7785 219.52C22.6496 247.52 22.8985 250.134 25.3873 250.134C27.7518 250.134 28.374 252.374 27.6273 257.227C27.1296 260.587 27.5029 261.458 30.2407 262.703C31.9829 263.449 33.7251 265.689 34.4718 268.054C35.4673 271.787 35.8407 271.911 43.3073 272.285C51.6451 272.658 52.3918 272.036 49.2807 266.436C48.2851 264.694 47.7873 262.578 48.1607 261.707C48.534 260.96 47.6629 258.098 46.294 255.485C42.6851 248.267 41.3162 243.04 39.9473 231.094C38.9518 222.134 39.0762 218.649 40.694 211.805C43.6807 199.111 44.6762 197.12 51.2718 188.783C54.7562 184.551 58.7384 178.951 60.2318 176.463C61.6007 173.849 63.5918 171.734 64.4629 171.734C65.334 171.734 68.5696 169.369 71.6807 166.507L77.2807 161.405L81.8851 165.885C91.2185 174.969 106.525 178.703 130.667 177.707C145.103 177.085 149.583 175.84 153.067 171.734C154.685 169.618 155.681 169.618 161.53 170.738L168.25 172.107L168.001 196.498C167.876 209.938 168.125 225.245 168.747 230.471C169.245 236.818 168.996 243.414 168.001 249.387C166.632 257.476 166.632 259.094 168.498 262.703C169.618 264.818 170.49 267.929 170.49 269.547C170.49 271.165 171.112 273.903 171.983 275.645C173.227 278.507 173.974 278.756 181.316 278.756C188.783 278.756 189.156 278.631 187.912 276.391C186.045 272.783 186.294 272.534 191.645 272.534C196.996 272.534 197.867 271.165 194.756 267.058C193.761 265.689 192.89 263.574 192.89 262.205C192.89 260.96 190.898 258.098 188.534 255.858L184.178 251.751V239.805C184.178 232.089 184.801 226.365 185.921 223.751C186.916 221.511 188.658 214.045 189.778 207.2C190.898 200.356 193.636 189.156 195.752 182.311C198.987 171.734 200.232 169.245 204.214 165.76C208.57 162.027 219.023 143.858 219.023 140.125C219.023 139.378 221.636 135.894 224.747 132.534C227.858 129.049 232.338 123.076 234.703 119.094C238.312 113.245 239.681 112 242.543 112C246.276 112 251.13 116.356 254.365 122.951C255.485 125.191 257.725 127.556 259.218 128.303C262.952 130.045 268.801 127.805 268.801 124.694C268.801 123.449 270.543 121.209 272.658 119.591C276.89 116.48 276.89 113.991 272.534 104.036C269.796 97.8136 268.801 70.0625 271.165 64.3381C273.032 59.6092 272.907 57.3692 270.792 56.4981C269.796 56.1248 268.552 54.1337 268.178 52.267C267.681 50.2759 265.814 46.5425 263.947 43.8048L260.463 39.0759L264.694 34.8448C270.792 29.1203 274.027 21.2803 274.027 12.3203C274.027 4.60477 272.41 1.24475 268.801 1.24475C266.187 1.24475 263.45 4.35587 261.334 9.70697C260.463 11.947 258.098 16.0536 255.983 18.9159C253.992 21.6537 251.627 25.8848 250.632 28.1248C249.263 31.2359 248.392 31.9825 246.401 31.4848C244.161 30.8625 244.036 30.2403 244.783 26.2581C246.65 16.8003 244.534 3.48477 240.925 2.11588C239.93 1.74252 237.565 3.23587 235.45 5.35141Z" fill="black"/>
</svg>
