<svg width="397" height="360" viewBox="0 0 397 360" fill="none" xmlns="http://www.w3.org/2000/svg">
<path d="M193.301 16.6996L189.001 17.0996V23.5996C189.001 28.4996 188.701 29.9996 187.601 29.9996C186.001 29.9996 183.001 35.2996 183.001 38.1996C183.001 42.3996 184.801 43.8996 189.601 43.7996C194.601 43.6996 196.001 44.3996 194.201 46.1996C193.501 46.8996 193.001 48.5996 193.001 50.0996C193.001 51.5996 192.401 55.6996 191.601 59.1996C188.501 72.6996 188.501 76.5996 192.101 87.4996C195.801 98.9996 196.001 104.1 193.101 109.8C192.001 112 190.001 117.5 188.701 121.9C186.801 128.3 186.101 129.7 185.001 128.9C184.201 128.4 183.201 128 182.801 128C182.001 128 182.401 137.3 183.401 138.8C184.301 140.2 178.501 140.4 172.801 139.1C170.701 138.6 169.001 138.6 168.801 139.1C168.601 139.6 162.301 138.4 154.701 136.5C132.401 130.9 118.401 132.2 95.4008 142C85.1008 146.4 82.1008 146.6 74.4008 143.4C67.7008 140.6 58.3008 142.2 51.5008 147.4C46.8008 151 45.1008 154.6 44.1008 163C43.6008 166.9 42.3008 171.4 41.2008 173.3C40.0008 175 35.0008 179.6 29.8008 183.5C23.6008 188.2 19.6008 192.1 17.5008 195.4C14.7008 200 14.5008 201 14.3008 210.9C14.2008 216.7 13.7008 222.8 13.1008 224.3C11.1008 229.4 11.8008 240 14.4008 245.6C17.2008 251.6 20.6008 254.3 27.8008 256C30.9008 256.7 34.2008 258.4 36.1008 260.1C39.2008 263 39.3008 263.2 38.7008 269.8C38.3008 275.7 38.4008 276.2 39.6008 274.5C40.4008 273.5 41.0008 270.3 41.0008 267.6C41.1008 262.9 41.2008 262.7 42.5008 264.4C43.9008 266.3 44.0008 266.2 44.0008 263C44.0008 258.3 46.1008 260.6 47.0008 266.2C47.7008 270.5 47.7008 270.5 48.5008 267.6C49.0008 265.8 48.9008 263 48.2008 260.6C47.6008 258.3 47.3008 256.3 47.6008 256.1C48.4008 255.3 51.9008 259.2 52.3008 261.4C52.6008 262.6 52.8008 262 52.9008 259.9C53.0008 257.5 52.4008 255.7 51.0008 254.5C48.0008 251.8 49.4008 251.5 53.5008 254C57.9008 256.7 60.0008 260.6 60.0008 266.2C60.0008 271.8 62.0008 269.9 62.7008 263.6C63.3008 258.4 61.5008 254.6 57.4008 252.8C55.6008 252 55.3008 251.4 56.2008 250.8C58.2008 249.6 60.7008 249.9 62.4008 251.6C63.9008 253 64.0008 252.9 64.0008 250.6C64.0008 246.6 60.5008 243.7 56.5008 244.4C53.8008 244.9 53.0008 244.6 51.6008 242.5C49.6008 239.5 48.2008 239.4 43.0008 242.1C38.0008 244.7 34.7008 243.7 31.2008 238.6C29.4008 235.9 29.0008 234.1 29.1008 229.4C29.3008 226.1 29.1008 221.9 28.7008 220L28.0008 216.5L29.7008 220C30.8008 222.2 31.4008 226 31.5008 230.2C31.5008 235.4 31.8008 236.6 32.8008 235.8C33.4008 235.2 34.0008 233.9 34.0008 232.9C34.0008 230 35.8008 230.7 36.3008 233.7C36.5008 235.3 36.8008 233.3 37.0008 229.5C37.3008 222.5 37.3008 222.5 37.9008 227.4C38.6008 232.1 40.8008 235 43.7008 235C44.4008 235 45.0008 235.5 45.0008 236.1C45.0008 236.6 45.5008 236.8 46.0008 236.5C47.8008 235.4 47.1008 232.4 44.5008 230C41.9008 227.6 40.5008 224.1 39.7008 217.7C38.9008 212.5 40.7008 214 42.2008 219.8L43.4008 224.4L44.3008 221.6C45.0008 219.6 44.9008 216 44.0008 210.5C43.0008 203.8 43.0008 201.6 44.0008 198.9C44.7008 197 46.1008 193.3 47.0008 190.6L48.8008 185.7L49.9008 189.6C51.3008 194.5 51.3008 199.1 49.9008 202.7C48.9008 205.4 49.0008 205.4 50.7008 203.7C52.2008 202.3 52.5008 199.6 53.0008 187.1C53.3008 178.9 53.8008 171.8 54.3008 171.4C54.7008 171 55.0008 171.8 55.0008 173.1C55.0008 174.5 55.9008 178.1 57.0008 181.3C59.5008 188.3 59.5008 191.6 57.2008 196.2C54.9008 200.6 56.6008 200.2 59.8008 195.6C62.9008 191.1 63.5008 186.4 61.6008 181.1C57.4008 169.4 62.5008 158.9 73.8008 156.5C77.4008 155.8 77.9008 156.8 75.1008 159.4C74.0008 160.4 72.2008 163.5 71.0008 166.3C69.1008 170.6 68.8008 172.7 69.3008 179.5C69.7008 186.4 70.7008 189.9 77.0008 206C81.3008 217 84.5008 226.6 84.8008 229.6C85.3008 235.6 83.2008 240.4 73.4008 255.1C66.1008 266 66.0008 266.4 68.9008 281.5C70.0008 287 71.6008 299.8 72.6008 309.9C74.6008 330.9 75.1008 331.9 82.9008 333.9C85.7008 334.6 88.0008 335.5 88.1008 335.8C88.1008 336.2 88.2008 337.7 88.4008 339.1C88.5008 340.5 89.3008 342.8 90.2008 344.2C91.6008 346.4 92.9008 346.9 98.5008 347.5C105.601 348.2 113.001 347.4 113.001 345.9C113.001 345.3 111.301 342 109.301 338.5C106.001 332.8 105.001 331.8 100.101 329.8C93.3008 327.1 87.5008 321.5 86.6008 316.8C86.3008 314.9 85.3008 306.7 84.5008 298.6C83.0008 284 83.0008 283.9 85.3008 278.7C89.6008 268.6 88.7008 268.7 98.3008 276.8C107.501 284.6 112.101 289.8 116.401 297.3C117.901 299.9 120.201 302.5 121.601 303C124.501 304.1 124.801 307.6 122.101 308.3C120.101 308.8 116.001 314.5 116.001 316.6C116.001 318.5 126.101 331 127.701 331C129.301 331 132.601 323.8 134.201 316.8C135.101 313.1 135.001 310.8 133.601 305.2C132.701 301.3 132.201 297.1 132.501 295.7C133.501 292 131.801 289.7 123.701 283.3C116.201 277.3 104.801 266.1 102.301 262.3C100.901 260.3 100.901 259.7 102.301 257.8C103.601 255.8 120.601 238.6 135.701 224C141.901 218 144.501 217.7 154.101 221.6C173.101 229.5 197.001 236 206.601 236C209.401 236 213.401 236.7 215.301 237.5C219.801 239.4 223.701 239.4 224.701 237.6C225.501 236.2 242.801 233.5 243.901 234.6C245.001 235.6 246.501 268.4 245.901 275.5C245.401 280.4 245.701 284 246.701 287.5C248.401 293.1 247.901 304.9 245.401 318.3C243.201 329.7 244.901 333 252.601 333C259.201 333 261.201 334.4 260.501 338.4C260.001 340.7 260.401 342.2 261.801 344C263.601 346.3 264.701 346.5 272.901 346.8C277.901 347 282.001 346.9 282.001 346.5C282.001 346.1 280.601 343.2 278.901 339.9C276.201 334.9 274.801 333.5 268.601 330C257.901 323.8 257.501 322.9 257.701 308.5C257.801 300.5 258.401 295.1 259.401 292.1C260.301 289.7 261.001 285.9 261.001 283.6C261.101 278.2 267.601 240 268.701 239C270.401 237.4 278.901 237.3 295.501 238.7C326.601 241.2 325.101 240.3 322.101 255.8C320.101 266.2 317.901 271.7 315.401 272.7C314.701 273 314.001 274.5 314.001 276C314.001 279.9 312.001 281.2 307.301 280.4C299.301 279.2 294.001 284.7 294.001 294.4C294.001 302.3 294.201 302.4 303.801 297.4C308.601 295 314.501 291 317.001 288.6C319.501 286.2 322.901 283.5 324.701 282.6C327.201 281.3 328.001 280.2 328.501 277.2C330.301 266.3 333.401 253 335.101 249.1C337.701 243.1 337.501 240.8 333.801 234C330.901 228.7 330.001 227.9 325.601 226.5C322.901 225.6 316.501 222.9 311.301 220.4C302.101 216 302.001 215.9 303.501 213.7C304.301 212.5 305.001 210.9 305.001 210.1C305.001 209.3 306.601 205.6 308.501 202L311.901 195.3L310.301 185.9C309.201 179.8 308.901 174.6 309.401 171C310.501 162.2 310.601 162.1 319.801 166.3C324.301 168.3 330.401 170.8 333.401 171.7C336.501 172.7 339.001 173.9 339.001 174.4C339.001 175.9 347.401 183.1 350.901 184.7C353.801 186 354.401 185.9 355.901 184.6C356.901 183.7 359.101 183 360.801 183C363.201 183 364.301 182.4 365.401 180.2C367.101 176.9 368.901 164.8 369.501 151.9C369.801 146.7 370.701 137.5 371.501 131.5C372.401 125.4 373.101 119.7 373.201 118.7C373.301 117.8 373.801 117 374.201 117C375.501 117 375.101 113.1 373.501 110C372.101 107.3 372.201 107 375.301 103.1C379.701 97.4996 382.901 92.2996 382.201 91.5996C381.001 90.3996 378.901 91.0996 375.801 93.8996C374.001 95.3996 371.501 96.9996 370.301 97.3996C367.601 98.2996 358.301 94.4996 356.901 91.8996C356.401 90.8996 355.301 90.2996 354.501 90.5996C352.401 91.3996 346.301 89.1996 345.601 87.2996C345.101 86.1996 344.601 86.0996 343.701 86.7996C342.401 87.8996 332.301 86.4996 330.401 84.8996C329.801 84.3996 328.901 84.4996 328.201 85.1996C327.501 85.8996 323.901 86.3996 320.001 86.3996C316.201 86.4996 313.001 86.7996 313.001 87.0996C313.001 88.1996 304.301 89.9996 302.501 89.3996C301.601 88.9996 300.401 89.3996 299.701 90.1996C298.301 91.9996 292.801 93.9996 289.401 93.9996C288.101 93.9996 287.001 94.3996 287.001 94.8996C287.001 96.3996 280.101 99.9996 278.401 99.2996C277.401 98.8996 276.701 99.3996 276.401 100.7C275.801 102.8 271.201 106 268.601 106C267.701 106 267.001 106.6 267.001 107.4C267.001 109.2 261.801 113 259.301 113C258.301 113 256.201 112.3 254.601 111.5C253.101 110.7 250.501 110 249.001 110C247.401 110 244.901 109.3 243.301 108.5C241.801 107.7 237.001 105.5 232.801 103.5L225.101 99.9996L225.301 88.1996C225.501 77.4996 225.301 76.1996 223.301 73.2996C222.001 71.5996 221.001 69.5996 221.001 68.7996C221.001 67.9996 219.001 64.6996 216.501 61.5996C214.001 58.3996 212.001 55.2996 212.001 54.7996C212.001 54.2996 211.001 53.5996 209.801 53.0996L207.501 52.1996L210.001 51.1996C211.401 50.5996 213.201 49.8996 214.101 49.6996C216.301 48.9996 218.401 40.5996 217.001 37.9996C215.401 35.0996 216.801 30.9996 219.401 30.8996C221.501 30.8996 221.501 30.8996 219.301 29.7996C217.301 28.7996 217.001 27.8996 217.001 22.9996V17.2996L211.801 16.5996C206.401 15.9996 201.001 15.9996 193.301 16.6996ZM240.201 120.1C241.701 119.2 242.701 119.4 245.501 121.7C248.101 123.7 248.601 124.7 247.801 125.7C247.201 126.4 245.901 127 245.001 127C244.001 127 243.001 127.6 242.701 128.2C242.401 129.2 241.701 129 240.201 127.7C237.901 125.6 231.701 126.2 228.701 128.8C226.201 131 225.301 129.5 224.701 121.8L224.101 115.1L231.301 118.2C237.001 120.6 238.801 121 240.201 120.1ZM329.101 142.7C329.701 144.3 331.201 146.6 332.401 148C334.501 150.2 337.501 159 336.301 159C335.601 159 316.601 150.9 316.101 150.5C315.501 149.8 320.101 143 322.301 141.5C325.601 139.2 327.901 139.7 329.101 142.7ZM326.901 159.4C336.101 163.3 339.601 165.3 340.201 167C340.901 169 340.801 169.2 338.501 168.6C335.301 167.8 314.801 159.1 313.701 158.1C313.101 157.5 313.701 154 314.401 154C314.401 154 320.101 156.4 326.901 159.4ZM322.101 163.9C326.701 166.1 330.201 167.9 329.801 167.9C329.101 168 312.801 161.1 312.101 160.4C310.701 159.1 314.701 160.5 322.101 163.9ZM22.9008 240.7C26.3008 245.5 25.7008 246.4 21.8008 242.2C18.1008 238.3 16.0008 233.7 15.4008 228.3L14.9008 223.5L17.4008 229.9C18.8008 233.5 21.3008 238.3 22.9008 240.7ZM52.0008 244.9C52.0008 246 44.1008 248 39.8008 248C35.0008 248 32.4008 246.1 37.0008 245.9C38.9008 245.9 41.6008 245.4 43.0008 245C46.5008 243.9 52.0008 243.8 52.0008 244.9Z" fill="black"/>
</svg>
