<svg width="400" height="251" viewBox="0 0 400 251" fill="none" xmlns="http://www.w3.org/2000/svg">
<path d="M206.399 11.7995C204.599 12.6995 187.799 28.5995 168.999 46.9995C150.199 65.3995 134.399 80.5995 133.899 80.7995C133.399 80.9995 132.999 80.1995 132.999 78.9995C132.999 75.6995 129.999 70.0995 127.899 69.4995C125.699 68.7995 125.299 66.9995 127.399 66.9995C129.099 66.9995 130.099 64.6995 130.599 59.5995C130.799 56.9995 131.699 55.1995 133.099 54.1995C134.899 52.8995 135.099 52.4995 133.899 51.5995C133.099 50.9995 131.799 48.4995 130.999 45.9995C129.699 41.9995 128.999 41.3995 125.699 40.4995C120.799 39.3995 116.999 41.2995 115.499 45.4995C114.999 47.1995 113.699 49.1995 112.699 49.9995C110.699 51.5995 111.299 54.9995 113.499 54.9995C115.199 54.9995 115.899 60.3995 114.499 62.2995C113.999 63.0995 111.099 64.7995 108.199 65.9995C100.199 69.3995 97.9992 72.6995 97.9992 80.8995C97.9992 86.7995 99.1992 92.6995 101.399 98.0995C101.999 99.4995 100.799 99.7995 91.3992 100.5C85.5992 100.9 79.3992 101.6 77.7992 102C74.7992 102.9 65.1992 100.9 55.1992 97.3995C51.4992 96.0995 48.9992 95.8995 43.4992 96.4995C37.1992 97.0995 36.6992 97.2995 38.4992 98.5995C41.6992 101 58.8992 106.1 65.6992 106.7C71.8992 107.3 72.1992 107.5 75.0992 111.6C77.4992 115.1 77.8992 116.4 76.9992 117.9C76.4992 119 75.9992 122.3 75.9992 125.3C75.9992 130.3 76.1992 130.8 78.7992 131.9C81.4992 133.1 81.5992 133.3 81.1992 139.3C80.6992 146.7 77.2992 153 73.6992 153C71.9992 153 70.6992 151.6 68.2992 147.2C63.3992 138.3 58.5992 133.4 51.6992 130.1C42.8992 126 39.9992 125.6 33.3992 127.5C23.5992 130.3 14.7992 141.5 10.3992 156.6C9.19922 160.8 8.69922 166.1 8.69922 175C8.69922 186.4 8.99922 188.3 11.8992 197C19.4992 219.4 28.9992 228 46.2992 228C58.4992 227.9 65.6992 222.9 71.7992 209.9C75.1992 202.7 76.5992 196.9 77.5992 185.7L78.2992 178H83.1992H88.1992L87.4992 184.9C86.6992 192.5 88.6992 204.4 92.2992 214C94.8992 221.1 103.299 230 110.099 233C117.199 236 127.799 236.8 133.199 234.6C135.599 233.7 138.499 232.1 139.699 231.1C143.499 227.9 149.699 218.2 150.999 213.3C151.799 210.6 153.999 206.6 155.999 204.3C157.999 202 161.099 197.4 162.899 194C165.799 188.6 166.399 188 169.299 188C171.099 188 173.399 187.7 174.599 187.4C176.499 186.9 176.899 187.6 178.299 193.6C182.699 211.4 190.099 218.9 204.699 220.5C211.199 221.2 212.199 221.9 214.899 227.3C216.399 230.2 216.999 230.5 221.799 230.8C225.799 231 227.199 230.7 227.599 229.5C228.299 227.8 223.599 220 221.999 220C219.899 220 221.099 218.2 223.999 217C225.599 216.3 228.899 213.7 231.299 211.1C235.599 206.5 237.599 202.3 239.999 192.8C241.099 188.6 241.499 188.2 243.099 189.1C244.899 190 244.899 190.3 243.499 192.3C241.899 194.5 241.499 199.7 242.799 201.6C244.299 203.8 248.599 206 251.199 206C254.299 206 255.999 203.2 255.999 197.9C255.999 192.9 250.199 183.3 245.299 180.2C242.999 178.7 240.999 176.9 240.999 176.2C240.999 174.1 252.199 162.9 253.899 163.2C254.799 163.3 256.599 162.8 257.799 162.1C259.899 161 261.399 161.2 268.799 163.6C276.299 166.1 279.099 166.5 289.199 166.5C296.599 166.5 301.099 166.9 301.399 167.6C301.599 168.2 301.399 172.4 300.899 177.1C300.399 181.7 299.599 193.8 298.999 204C298.399 214.2 297.699 224.6 297.399 227.2C296.899 231 297.199 232.2 298.899 233.9C300.099 235.1 300.999 236.7 300.999 237.5C300.999 238.4 302.099 240.2 303.499 241.5C306.799 244.9 313.799 245 317.599 241.7C319.899 239.7 320.099 239.1 319.099 237.1C318.399 235.9 315.499 233.4 312.599 231.5C304.899 226.6 304.699 226.2 305.999 218.8C306.599 215.3 307.699 210.2 308.499 207.5C309.299 204.7 310.599 198.7 311.499 194C314.499 179 322.799 166.5 331.599 164.1C333.699 163.5 338.599 163.3 342.699 163.7L349.899 164.3L358.699 159.3C376.199 149.3 378.799 148 380.399 148C383.599 148 381.499 154.1 375.699 161.2C372.499 165.2 369.599 166 366.099 163.9C361.999 161.3 352.999 167.2 352.999 172.4C352.999 175.7 353.599 176 361.699 176.2C367.899 176.4 369.199 176 375.999 172.4L383.499 168.5L386.999 158C388.999 152.2 391.199 146.5 391.899 145.2C392.999 143.1 392.799 142.6 389.499 139.4C385.199 135.4 382.199 135.1 371.299 137.7C367.299 138.6 363.799 139.1 363.399 138.8C363.099 138.5 363.299 135.7 363.899 132.7C365.099 126.3 364.399 121 361.899 115.9C360.699 113.4 360.299 111.1 360.699 108.7C361.099 106 360.699 104.4 358.999 102.1C355.499 97.0995 356.499 95.4995 362.999 95.8995C365.999 95.9995 368.899 96.3995 369.299 96.6995C369.799 96.9995 369.999 98.6995 369.699 100.5L369.199 103.8L374.999 104.5C378.199 104.9 381.699 104.9 382.799 104.6C384.999 103.9 389.999 96.8995 389.999 94.5995C389.999 93.7995 387.899 87.7995 385.399 81.2995C381.399 70.8995 380.999 69.0995 381.899 66.3995C383.899 60.7995 383.299 57.1995 380.099 55.5995C376.699 53.7995 373.999 49.8995 373.999 46.7995C373.999 45.4995 373.099 43.3995 372.099 41.9995C370.199 39.5995 370.199 39.3995 371.999 34.7995C373.999 29.5995 373.699 28.9995 370.799 31.6995C368.899 33.3995 368.899 33.2995 369.499 30.6995C370.499 26.8995 369.499 27.2995 366.399 31.9995C363.799 35.8995 359.299 38.9995 356.099 38.9995C353.199 38.9995 338.099 49.6995 333.999 54.5995C331.799 57.2995 329.999 59.7995 329.999 60.2995C329.999 60.6995 329.099 62.0995 327.899 63.2995C326.799 64.4995 325.099 67.0995 324.199 68.9995C323.299 70.8995 321.999 72.8995 321.299 73.2995C320.599 73.6995 319.999 74.7995 319.999 75.5995C319.999 77.2995 314.099 82.9995 312.399 82.9995C311.699 82.9995 309.699 84.7995 307.799 86.9995L304.399 91.0995L255.999 91.1995C207.599 91.3995 184.499 90.4995 159.999 87.3995C153.699 86.6995 145.899 85.9995 142.799 85.9995C138.199 85.9995 136.899 85.5995 135.999 84.0995C135.199 82.3995 139.399 77.8995 169.399 48.3995C188.299 29.8995 205.199 13.7995 206.899 12.6995C209.399 11.1995 211.299 10.8995 216.499 11.1995C221.999 11.4995 223.399 11.9995 225.999 14.4995C228.099 16.4995 228.999 18.3995 229.199 20.8995L229.299 24.4995L229.699 21.2995C230.199 17.1995 228.699 14.3995 224.699 11.9995C220.599 9.39951 210.799 9.39951 206.399 11.7995ZM362.099 89.1995C362.899 90.6995 362.599 90.9995 359.999 90.9995C357.199 90.9995 356.999 90.6995 356.999 87.2995C356.999 83.6995 356.999 83.6995 359.099 85.5995C360.199 86.5995 361.599 88.2995 362.099 89.1995ZM169.499 90.4995C187.299 91.9995 203.199 92.7995 231.499 93.4995C285.099 94.7995 297.199 95.5995 291.999 97.3995C279.799 101.6 275.199 101.8 262.699 98.7995C253.699 96.6995 253.499 96.6995 246.599 98.4995C242.699 99.4995 237.099 101.3 234.099 102.6C229.099 104.9 228.599 104.9 226.899 103.4C225.899 102.5 224.799 101 224.499 100.1C224.199 99.1995 222.599 97.5995 220.999 96.5995C214.999 93.0995 208.999 96.7995 208.999 104C208.999 108.4 211.099 111.5 215.599 113.8L219.099 115.6L215.399 122.6C212.499 128.1 211.799 130.5 211.799 134.6L211.899 139.8L206.699 140.3C203.799 140.6 200.299 141.2 198.799 141.6L195.999 142.2V131C195.999 123 196.599 117.6 198.099 111.8C199.699 105.2 199.899 103.5 198.799 102.9C198.099 102.4 196.799 102.3 195.999 102.5C194.599 102.9 171.999 105 169.499 104.9C168.999 104.9 169.899 104.3 171.499 103.5C174.199 102.3 173.499 102.2 162.399 102.1C155.699 102 148.199 101.7 145.599 101.4L140.999 100.7L141.599 96.9995C141.899 94.8995 141.699 92.2995 141.099 91.1995C139.299 87.7995 138.199 87.7995 169.499 90.4995ZM363.299 93.6995C361.999 93.8995 359.999 93.8995 358.799 93.6995C357.499 93.4995 358.499 93.2995 360.999 93.2995C363.499 93.2995 364.499 93.4995 363.299 93.6995ZM196.299 105.7C196.499 106.2 196.099 108.3 195.499 110.5L194.299 114.5L193.199 110.6C192.599 108.4 192.299 106.3 192.599 105.8C193.199 104.8 195.699 104.7 196.299 105.7ZM105.999 135.1C105.999 139.7 100.899 150 98.5992 150C97.0992 150 96.8992 149.5 97.4992 147.7C97.8992 146.5 98.3992 142.5 98.6992 138.7L99.1992 132H102.599C105.699 132 105.999 132.2 105.999 135.1ZM40.9992 138.2C40.9992 141.1 41.2992 148 41.5992 153.5C42.2992 163.5 41.4992 165.1 39.1992 158.5C38.6992 156.8 36.3992 150.9 34.1992 145.3L30.1992 135L33.2992 134.1C40.2992 132.1 40.9992 132.4 40.9992 138.2ZM52.0992 136.9L55.2992 139.6L51.3992 150.3C49.2992 156.2 47.1992 161 46.8992 161C45.9992 161 44.3992 137.8 44.8992 133.8C45.0992 132.6 48.7992 134.2 52.0992 136.9ZM94.3992 139C94.3992 141.5 93.3992 145.6 92.1992 148.2C90.3992 152.5 89.7992 153 86.8992 153C84.2992 153 83.8992 152.7 84.4992 151.2C86.7992 145.8 87.8992 142.2 87.9992 139.8C87.9992 135.3 88.9992 133.9 91.8992 134.2C94.2992 134.5 94.4992 134.9 94.3992 139ZM26.9992 138.3C26.9992 138.5 29.6992 145 32.8992 152.8C36.0992 160.6 38.4992 167 38.0992 166.9C37.4992 166.9 25.0992 153 21.6992 148.4C19.8992 146.1 19.8992 146 22.6992 142C25.0992 138.7 26.9992 137 26.9992 138.3ZM60.6992 145.2C64.0992 149 65.0992 151.6 63.6992 152.9C61.6992 154.5 55.3992 150.4 56.9992 148.6C57.7992 147.6 57.7992 147.1 56.9992 146.8C55.7992 146.4 56.6992 143 57.8992 143C58.2992 143 59.5992 144 60.6992 145.2ZM108.999 146.5C108.999 147.2 108.299 148 107.499 148.4C105.899 149 105.599 148.1 106.599 145.6C107.299 143.8 108.999 144.4 108.999 146.5ZM209.499 151.2C209.199 152.5 208.299 158 207.699 163.5L206.499 173.5L206.199 162.6C205.899 150.5 206.199 149 208.599 149C209.799 149 210.099 149.5 209.499 151.2ZM218.899 152.9C220.099 154.5 220.999 156.4 220.999 157.1C220.999 158.4 212.399 171.5 210.399 173.1C208.799 174.4 209.999 168.2 214.599 152.2C215.399 149.3 216.399 149.4 218.899 152.9ZM37.9992 173.2C37.9992 174.3 15.5992 164.2 15.0992 162.9C14.8992 162.3 15.2992 159.2 15.9992 156.1L17.2992 150.5L27.5992 161.5C33.2992 167.6 37.8992 172.8 37.9992 173.2ZM201.399 151.6C203.099 152.3 203.399 157.4 202.199 166.3L201.499 171.1L195.799 163L189.999 155L193.299 153C196.599 150.9 198.699 150.6 201.399 151.6ZM59.9992 157C59.9992 157.6 58.7992 158.2 57.2992 158.6C55.6992 158.9 53.8992 159.3 53.2992 159.6C51.6992 160 51.6992 159.2 53.0992 155.2L54.1992 152L57.0992 154.1C58.6992 155.2 59.9992 156.5 59.9992 157ZM182.699 155.7C181.799 156.6 180.699 157 180.299 156.6C179.899 156.2 180.199 155.5 180.999 155C183.499 153.4 184.499 153.9 182.699 155.7ZM190.799 161.5C191.999 163.4 192.999 165.2 192.999 165.5C192.999 165.7 191.999 165.6 190.799 165.1C189.499 164.6 187.699 163.9 186.799 163.6C185.299 163.2 185.199 162.7 186.199 160.5C186.799 159.1 187.599 158 187.899 158C188.199 158 189.499 159.6 190.799 161.5ZM93.5992 160.3C93.9992 160.7 93.8992 161.5 93.2992 162.1C92.3992 163 90.0992 162.7 84.2992 161.2L76.4992 159.1L84.6992 159.3C89.1992 159.4 93.1992 159.9 93.5992 160.3ZM53.8992 164.9C49.4992 170.5 47.9992 170.2 49.5992 164.2C49.9992 162.8 51.3992 161.7 53.3992 161.1C55.0992 160.7 56.6992 160.4 56.8992 160.6C56.9992 160.7 55.6992 162.7 53.8992 164.9ZM180.499 161C180.199 161.5 177.299 161.9 174.199 161.9C169.499 161.8 168.999 161.6 171.499 161C175.999 159.8 181.199 159.8 180.499 161ZM68.2992 162.2C69.1992 162.9 70.1992 164.7 70.5992 166.2L71.1992 169H63.5992C59.3992 169 55.9992 168.7 55.9992 168.4C55.9992 168.1 57.1992 166.3 58.5992 164.4C61.3992 160.8 65.1992 159.9 68.2992 162.2ZM115.999 162.6C115.999 163.8 115.599 164 114.799 163.3C114.099 162.7 112.799 162 111.999 161.7C111.099 161.4 111.699 161.1 113.299 161.1C115.199 161 115.999 161.5 115.999 162.6ZM123.799 164.8C125.199 166.9 125.099 167 123.399 166.4C120.799 165.5 118.999 164 118.999 162.8C118.999 161.1 122.199 162.4 123.799 164.8ZM127.999 164C127.999 165.1 127.799 166 127.499 166C127.299 166 126.599 165.1 125.999 164C125.099 162.4 125.199 162 126.499 162C127.299 162 127.999 162.9 127.999 164ZM158.999 162.4C158.999 163.2 148.699 165.9 147.799 165.4C145.799 164.1 147.399 163.1 151.799 162.7C154.399 162.5 157.099 162.3 157.799 162.2C158.399 162.1 158.999 162.2 158.999 162.4ZM219.399 167.5C217.299 170.5 215.499 172.8 215.199 172.6C214.799 172.1 217.899 167.1 220.799 163.7C223.599 160.5 222.999 162 219.399 167.5ZM86.5992 165.7C88.4992 166.6 89.9992 167.7 89.9992 168C89.9992 168.7 79.0992 171.4 78.4992 170.8C78.3992 170.7 77.6992 168.8 77.1992 166.6L76.0992 162.8L79.6992 163.5C81.5992 163.8 84.6992 164.9 86.5992 165.7ZM177.299 169.2C176.999 171 176.699 172.5 176.599 172.6C176.499 172.7 174.599 173 172.299 173.4L167.999 174V170V166H172.999H177.999L177.299 169.2ZM188.499 168C188.999 168.8 183.999 171.3 183.299 170.6C182.999 170.4 183.099 169.3 183.399 168.2C183.899 166.8 184.699 166.4 186.099 166.7C187.099 167 188.199 167.6 188.499 168ZM160.999 167.8C160.999 168.3 158.499 169.1 155.499 169.7C151.299 170.4 149.999 170.4 149.599 169.4C149.099 168 151.299 167.4 157.299 167.1C159.299 167.1 160.999 167.4 160.999 167.8ZM34.6992 175.1C35.5992 175.4 35.4992 176 34.4992 177.3C32.6992 179.7 14.8992 183.4 13.7992 181.6C12.8992 180.3 12.6992 169.6 13.5992 168.8C13.9992 168.3 21.6992 170.6 34.6992 175.1ZM198.299 173.4C199.799 175.6 200.799 177.5 200.599 177.7C200.199 178.1 191.099 173 190.499 172C190.199 171.5 190.899 170.9 191.999 170.5C193.099 170.2 193.999 169.4 193.999 168.7C193.999 167.3 194.999 168.3 198.299 173.4ZM160.799 172.2C160.499 174.2 159.899 174.5 156.099 174.5C147.999 174.5 151.099 171.3 160.299 170.1C160.799 170 160.999 171 160.799 172.2ZM54.4992 173C54.7992 173.5 54.1992 174 52.9992 174C51.7992 174 51.1992 173.5 51.4992 173C51.7992 172.4 52.4992 172 52.9992 172C53.4992 172 54.1992 172.4 54.4992 173ZM190.299 176.1C193.399 177.8 195.999 179.3 195.999 179.6C195.999 179.8 192.899 180 189.199 180H182.399L182.799 176.5C182.999 174.6 183.499 173 183.899 173C184.299 173 187.199 174.4 190.299 176.1ZM214.399 176.4C212.299 177.9 211.399 177.8 212.499 176.1C212.799 175.5 213.899 175 214.799 175C216.099 175 216.099 175.2 214.399 176.4ZM98.1992 178.7C99.0992 179.7 100.099 183.3 100.399 186.7L101.099 193H97.6992C94.2992 193 94.2992 193 93.6992 187.7C92.7992 178.3 94.5992 174.6 98.1992 178.7ZM133.399 178.5C132.699 180.1 130.999 180.6 130.999 179.1C130.999 178.3 131.699 177.8 133.699 177.1C133.799 177 133.699 177.7 133.399 178.5ZM72.7992 183.2C72.9992 186.3 72.6992 188 71.9992 188C71.2992 188 66.4992 186.1 61.1992 183.7L51.4992 179.5L59.9992 178.9C73.0992 178 72.4992 177.8 72.7992 183.2ZM122.999 180.2C122.999 181.5 122.499 183.2 121.999 184C121.299 185.1 120.999 184.5 120.999 181.7C120.999 179.7 121.499 178 121.999 178C122.599 178 122.999 179 122.999 180.2ZM216.499 180C214.699 182 211.999 182.7 211.999 181.2C211.999 180.5 215.699 178.4 217.399 178.1C217.899 178.1 217.499 178.9 216.499 180ZM145.999 181.5C145.999 184.7 143.999 184.7 141.699 181.5L139.899 179H142.999C145.499 179 145.999 179.4 145.999 181.5ZM126.899 184.4C125.999 185.2 125.899 185.1 126.399 183.7C126.699 182.7 127.099 181.3 127.099 180.7C127.199 180 127.399 180.3 127.699 181.4C127.999 182.4 127.599 183.7 126.899 184.4ZM36.9992 182.7C36.9992 183.7 19.7992 201 18.7992 201C17.7992 201 14.6992 190.3 15.1992 188.8C16.0992 186.3 36.9992 180.5 36.9992 182.7ZM139.899 183.4C140.799 184.5 140.599 184.9 138.999 185.3C136.799 185.9 135.499 184.6 136.499 183C137.399 181.6 138.499 181.7 139.899 183.4ZM60.8992 187.2C66.1992 189.4 70.7992 191.6 71.1992 191.9C71.8992 192.5 70.1992 199.9 68.2992 204.9C67.3992 207.2 67.0992 207 61.8992 199.9C53.7992 189 49.7992 183 50.5992 183C50.9992 183 55.5992 184.9 60.8992 187.2ZM106.399 184.5C106.699 185.3 107.599 186 108.399 186C110.799 186 111.299 188 109.399 190.1C108.499 191.1 107.299 192 106.899 192C106.199 192 103.999 185.8 103.999 183.7C103.999 182.4 105.799 183 106.399 184.5ZM233.999 185.6C233.999 187.8 233.699 188 231.799 187.4C228.499 186.4 228.299 186 230.399 184.4C233.199 182.4 233.999 182.6 233.999 185.6ZM193.899 185.5C193.199 186.1 183.999 191 183.399 191C183.199 191 182.999 189.9 182.999 188.6C182.999 186.4 183.499 186.1 187.299 185.7C189.599 185.5 192.099 185.3 192.899 185.2C193.699 185.1 194.099 185.2 193.899 185.5ZM214.599 187.7C213.899 188.4 211.999 187 211.999 185.8C211.999 185.2 212.599 185.2 213.499 186C214.399 186.7 214.799 187.5 214.599 187.7ZM33.7992 200.5C30.9992 208.2 28.4992 214.7 28.2992 215C27.7992 215.6 24.4992 211.5 22.4992 207.8C20.9992 205.1 21.0992 205 29.6992 195.5C34.3992 190.3 38.4992 186.1 38.5992 186.3C38.7992 186.4 36.5992 192.9 33.7992 200.5ZM200.799 187.8C200.699 188.2 198.099 192.5 195.099 197.3C189.199 206.9 188.999 207 185.499 198.6L183.999 195.1L190.799 191.2C196.999 187.5 201.599 185.9 200.799 187.8ZM50.4992 205.9C54.2992 220.9 54.2992 221.3 52.3992 222.7C51.3992 223.5 49.3992 224 47.9992 223.8L45.4992 223.5L45.2992 205.5C45.0992 195.6 45.3992 188.2 45.7992 189C46.2992 189.8 48.3992 197.4 50.4992 205.9ZM59.8992 201.2L66.1992 209.9L64.1992 212.7C63.0992 214.2 61.2992 216.3 60.1992 217.3C58.1992 219.2 58.0992 219.1 56.9992 214.8C56.3992 212.5 54.5992 205.7 52.8992 199.8C51.2992 193.9 49.9992 188.7 49.9992 188.4C49.9992 187.6 51.5992 189.7 59.8992 201.2ZM210.299 210.5C209.099 214.8 208.299 216 206.699 216C204.799 216 204.699 215.6 205.299 207.7C205.699 203.2 205.999 197 206.099 194L206.199 188.5L208.999 196.7C211.799 204.8 211.799 205.1 210.299 210.5ZM213.399 196.2C212.699 198.3 212.599 198.3 211.399 195C209.499 189.8 209.799 188.4 212.099 191.4C213.499 193.2 213.899 194.7 213.399 196.2ZM157.399 192.5C156.499 193.9 155.399 195 154.899 195C154.399 195 153.999 193.9 153.999 192.5C153.999 190.5 154.499 190 156.499 190C158.999 190 158.999 190.1 157.399 192.5ZM230.799 190.6C232.399 191.1 232.999 192 232.999 194.2C232.999 197.2 229.499 205 228.199 205C227.799 205 225.999 203.1 224.199 200.8C221.599 197.4 221.199 196.4 222.199 195.1C226.299 189.6 226.599 189.5 230.799 190.6ZM41.5992 222.7C40.9992 223.4 31.9992 219.3 31.9992 218.3C31.9992 217.9 34.0992 211.5 36.6992 204.2L41.4992 191L41.7992 206.6C41.8992 215.2 41.8992 222.5 41.5992 222.7ZM146.499 204.8C145.199 206.1 142.399 203.1 140.699 198.5C139.699 195.9 139.199 193.5 139.399 193.2C139.699 193 141.399 192.5 143.199 192.1L146.499 191.4L146.799 197.8C146.999 201.4 146.799 204.5 146.499 204.8ZM202.499 203.9C201.999 211.1 201.399 215 200.599 215C198.899 215 192.999 211.2 192.399 209.6C191.899 208.2 201.899 191.5 202.699 192.4C202.999 192.7 202.899 197.9 202.499 203.9ZM136.499 196C138.899 200.7 138.199 201.3 134.099 198C132.199 196.3 131.999 195.7 132.999 194.5C134.599 192.5 134.699 192.5 136.499 196ZM112.899 196.7C112.999 196.8 112.899 197.4 112.499 198C111.599 199.4 108.999 197.4 108.999 195.3C108.999 194 109.299 194 110.799 195.1C111.699 195.8 112.699 196.5 112.899 196.7ZM105.099 199.1L107.199 203.3L102.799 207.7L98.4992 212.1L96.7992 206.8C93.7992 197.3 94.3992 195.2 100.199 195.1C102.499 195 103.299 195.8 105.099 199.1ZM125.999 204C128.499 208.8 128.499 209 126.099 209C124.199 209 122.999 206.5 122.999 202.2C122.999 199 123.699 199.4 125.999 204ZM140.999 208.2C140.999 208.7 138.999 209 136.499 209C132.499 209 131.799 208.7 130.999 206.4C130.399 205 129.999 203 129.999 201.9C129.999 200.1 130.599 200.4 135.499 203.7C138.499 205.8 140.899 207.8 140.999 208.2ZM225.999 209.3C225.999 210.1 219.999 214 218.699 214C218.199 214 218.099 212.6 218.399 211C218.699 209.3 219.299 206.6 219.599 204.8L220.199 201.6L223.099 205.1C224.699 207 225.999 208.8 225.999 209.3ZM120.499 205C120.799 205.5 120.599 206 120.099 206C119.499 206 118.999 205.5 118.999 205C118.999 204.4 119.199 204 119.399 204C119.699 204 120.199 204.4 120.499 205ZM111.799 208L114.199 210L111.999 216.7C110.699 220.5 109.399 223.9 108.899 224.4C107.799 225.6 105.299 223.5 102.299 218.6L99.7992 214.8L104.099 210.4C106.499 208 108.699 206 108.999 206C109.299 206.1 110.599 206.9 111.799 208ZM120.399 212.8C120.599 213.2 121.099 217.3 121.599 221.9L122.299 230.3L118.099 229.7C115.699 229.4 113.699 229 113.499 228.8C113.399 228.7 114.199 224.8 115.299 220.2C117.199 212.9 118.899 210.4 120.399 212.8ZM144.999 212.8C144.999 213.9 139.199 222 138.399 222C138.099 222 136.999 220.1 135.999 217.7L134.099 213.5L137.299 212.9C142.199 211.9 144.999 211.9 144.999 212.8ZM129.499 214C130.199 214 131.999 216.1 133.499 218.6C135.499 222 135.899 223.4 134.999 224.5C133.799 226 126.999 229.4 126.499 228.8C125.799 228.1 124.299 214 124.899 213.5C125.199 213.2 125.999 213.2 126.799 213.5C127.499 213.8 128.799 214 129.499 214Z" fill="black"/>
<path d="M225.899 28.6986C224.599 30.2986 224.699 30.3986 226.299 29.0986C227.199 28.3986 227.999 27.5986 227.999 27.3986C227.999 26.5986 227.199 27.0986 225.899 28.6986Z" fill="black"/>
<path d="M217.999 34.5C216.599 35.3 215.999 35.9 216.599 36C217.099 36 218.499 35.3 219.599 34.5C221.999 32.7 221.199 32.6 217.999 34.5Z" fill="black"/>
<path d="M211.999 37C211.199 37.5 210.999 38 211.499 38C212.099 38 213.199 37.5 213.999 37C214.799 36.5 215.099 36 214.499 36C213.999 36 212.799 36.5 211.999 37Z" fill="black"/>
<path d="M201.498 40.9987C201.198 41.5987 201.598 41.6987 202.398 41.3987C204.198 40.6987 204.498 39.9987 203.098 39.9987C202.498 39.9987 201.798 40.3987 201.498 40.9987Z" fill="black"/>
<path d="M199 44.7C199 47.5 200.3 48.3 207 49.1C210 49.4 214.2 50.5 216.3 51.3C219.4 52.6 220 53.4 220 55.9C220 57.9 219.2 59.4 217.8 60.4C216.6 61.3 216 62 216.6 62C218.5 62 221 58.4 221 55.8C221 54.4 220.2 52.6 219.3 51.7C217.4 50 210.8 48.2 205 47.8C202.5 47.6 201.2 46.8 200.3 45C199.1 42.6 199 42.6 199 44.7Z" fill="black"/>
<path d="M211.098 66.1C210.998 67 211.798 68.8 212.898 70.1C213.898 71.4 214.998 73.2 215.298 74C215.698 75 215.898 74.8 215.898 73.4C215.998 72.2 215.298 70.6 214.398 69.9C213.498 69.2 212.398 67.7 211.998 66.5C211.298 65 211.098 64.9 211.098 66.1Z" fill="black"/>
<path d="M213.398 77.3998C213.098 78.1998 212.998 79.8998 213.198 81.1998C213.498 82.8998 213.698 82.4998 214.098 79.6998C214.598 75.8998 214.298 74.9998 213.398 77.3998Z" fill="black"/>
</svg>
