<svg width="273" height="376" viewBox="0 0 273 376" fill="none" xmlns="http://www.w3.org/2000/svg">
<path d="M153.695 13.7768C150.041 15.0684 146.816 18.0104 145.312 21.3829C144.165 23.8944 143.95 25.76 144.165 30.5677C144.452 37.6715 144.165 38.0302 138.29 38.0302C131.483 38.0302 124.675 40.4699 111.348 47.5738C107.479 49.7264 101.101 55.5387 98.1637 59.7722C95.8708 63.073 95.6558 63.6471 95.4408 70.3203C95.2975 74.1951 95.5125 80.0791 96.0141 83.3081C98.092 97.5875 97.6621 100.458 92.503 106.342C90.3534 108.853 89.7085 110.504 90.855 110.504C91.3566 110.504 89.1353 118.612 87.4156 123.133C87.0574 124.065 85.9109 124.855 84.5495 125.07C79.4621 126.146 64.3432 134.972 60.6172 139.134C59.829 139.923 58.8975 140.641 58.4676 140.641C56.2463 140.641 48.2211 145.377 44.7101 148.678C39.9093 153.198 31.9558 164.033 32.6007 165.038C32.8873 165.54 33.9621 165.325 35.5385 164.392C36.8999 163.603 37.9747 163.1 37.9747 163.316C37.9747 163.818 36.1834 166.617 32.0991 172.716C28.8747 177.452 26.5101 182.116 26.5101 183.479C26.5101 183.766 27.7282 182.116 29.3046 179.748C30.8093 177.38 32.744 174.797 33.6038 174.079L35.1086 172.716L34.1054 175.155C33.5322 176.519 32.0991 179.676 30.881 182.259C28.6597 186.995 27.7999 190.655 29.7345 187.282C31.7408 183.838 30.8093 186.78 27.8715 193.31C25.0771 199.409 22.2109 210.531 22.2826 214.549C22.2826 215.554 23.0708 213.76 23.9306 210.603C25.7219 204.504 28.3731 197.758 27.37 201.992C26.7251 204.862 27.0117 219.142 27.7999 223.16C28.5164 226.317 28.5164 226.317 28.5881 223.878C28.6597 222.514 29.1613 219.429 29.6629 217.061L30.5227 212.755L31.0243 218.855C31.2393 222.227 32.0991 227.681 32.8873 231.053C33.7471 234.426 34.4637 239.233 34.5353 241.817C34.5353 244.4 34.7503 245.404 34.8936 244.113C35.0369 242.821 35.4668 241.96 35.8251 242.175C36.6133 242.678 38.6196 237.439 40.1243 230.694L41.4141 224.954L41.4857 232.345C41.5574 239.951 39.8377 252.939 37.1149 265.783C35.7534 272.384 35.6818 273.461 36.5416 279.919C37.6881 288.314 37.1865 292.261 34.1054 300.871C32.8156 304.531 31.1676 310.271 30.5227 313.644C29.4479 319.169 29.3763 320.174 30.3078 322.398C31.3109 324.766 31.3109 324.838 30.0211 324.551C28.3015 324.049 26.0802 325.986 24.3605 329.358C22.4975 333.162 22.1393 335.314 22.8558 339.117C23.7156 343.638 26.1519 345.862 30.2361 345.862C35.5385 345.862 39.3361 339.763 40.5542 329.358C40.8408 327.206 41.5574 324.766 42.2739 323.977C43.4204 322.685 43.6353 320.533 43.9219 306.397C44.2802 288.96 44.4952 287.525 49.081 275.47C51.0156 270.447 51.5889 267.864 51.5889 264.276C51.5889 258.679 53.3802 253.01 59.3991 239.736C64.9164 227.537 67.496 223.304 70.9353 220.864C72.7983 219.572 73.8015 218.209 74.1597 216.558C74.9479 212.971 75.0912 212.971 77.7424 215.913C79.1755 217.42 81.1818 219.07 82.3282 219.572C84.6212 220.505 85.266 222.012 85.266 226.676C85.266 231.555 83.3314 237.798 78.7456 247.7L74.4463 256.885L73.8015 268.223C73.0133 280.995 71.9385 289.749 70.9353 290.969C70.5771 291.4 69.7889 293.122 69.2156 294.7C68.6424 296.351 66.5645 301.158 64.6298 305.464C62.6235 309.697 60.8322 314.792 60.5456 316.801C60.2589 319.169 59.5424 320.748 58.6109 321.537C57.6078 322.326 57.0345 323.762 56.8196 326.273C56.318 330.865 57.4645 334.238 60.2589 337.108C63.1251 340.05 67.2093 340.265 69.8605 337.682C72.1534 335.386 74.518 327.349 74.518 321.968C74.518 318.523 74.8046 317.304 76.0227 316.012C77.9574 313.931 81.8267 298.504 81.2534 294.987C80.7519 291.4 83.2597 282.143 86.7708 274.824C88.3471 271.452 90.2818 266.859 90.9983 264.563C91.8582 261.693 93.3629 259.325 95.5125 256.957C99.0235 253.226 101.173 249.351 104.183 241.386C105.616 237.583 107.694 234.354 112.351 228.613C115.79 224.38 119.158 220.218 119.803 219.357C121.666 217.061 123.887 207.517 124.389 199.768C124.675 196.036 125.249 192.736 125.679 192.449C126.897 191.731 133.99 191.085 133.99 191.731C133.99 192.09 135.065 192.951 136.355 193.74C143.162 197.902 161.864 192.233 171.107 183.264C175.406 179.102 182.572 174.366 184.649 174.366C187.731 174.438 188.089 175.442 186.799 179.676C185.653 183.192 185.008 183.981 181.64 186.206C178.989 188 177.341 189.794 176.266 191.946C175.263 194.027 174.188 195.175 173.185 195.319C170.175 195.749 166.306 204.001 167.309 208.02C168.241 211.607 169.531 212.397 174.403 211.966C176.768 211.751 181.353 210.818 184.506 209.885C187.659 208.952 191.098 208.02 192.101 207.804C193.105 207.589 194.753 206.656 195.827 205.652C197.547 204.073 197.977 204.001 201.058 204.647C204.211 205.365 204.569 205.293 205.787 203.786C206.504 202.925 207.364 200.988 207.794 199.552C208.152 198.046 209.37 196.108 210.373 195.104C211.448 194.171 213.454 191.588 214.816 189.435C216.249 187.282 218.685 184.125 220.261 182.403C223.987 178.528 224.919 176.375 224.99 171.496C224.99 166.617 224.131 165.253 218.685 161.522C213.526 158.006 209.8 153.988 207.364 149.108C205.357 145.233 205.357 145.233 206.934 135.69L207.435 132.461L211.806 132.676C216.034 132.82 216.249 132.748 218.398 130.236C219.688 128.801 220.691 127.438 220.691 127.079C220.691 126.792 221.694 126.505 222.841 126.577C225.205 126.649 225.85 127.797 228.215 136.407C229.505 141 230.293 141.861 235.595 144.516C239.178 146.31 239.608 146.381 242.689 145.52C244.48 145.018 246.2 144.085 246.558 143.511C249.138 138.632 251.502 132.174 251.502 130.165C251.502 128.873 250.642 125.931 249.639 123.635C248.636 121.339 247.561 117.823 247.203 115.885C246.916 113.876 246.128 110.073 245.483 107.275C244.624 103.4 244.552 101.175 245.053 97.5875C246.272 89.3356 247.131 85.102 248.421 82.3035C249.353 80.1509 249.424 79.2898 248.779 78.357C246.343 74.7692 244.48 70.4638 245.197 69.7463C245.77 69.1722 245.627 68.4547 244.767 67.1631C244.122 66.1585 243.119 63.8623 242.546 62.0684L241.399 58.8394L244.982 54.1753C248.923 49.0806 250.069 45.9951 250.069 40.6852V37.1692L244.838 42.1203C237.673 48.7936 235.524 49.87 231.726 48.8654C228.86 48.076 228.716 48.0043 228.286 44.273C228 42.2639 227.427 39.4654 227.068 38.1738L226.28 35.7341L224.489 37.4562C223.486 38.389 221.909 40.3264 220.978 41.7616C219.545 44.0577 218.828 44.4883 216.822 44.4883C215.532 44.4883 213.168 44.0577 211.663 43.5555C206.934 41.9768 196.186 42.5509 189.665 44.7753C186.656 45.7799 183.36 46.6409 182.5 46.6409C181.568 46.6409 180.064 47.4303 179.132 48.4348C176.911 50.8028 175.764 50.731 174.618 47.8608C174.045 46.6409 173.113 45.1341 172.54 44.6318C171.895 44.1295 171.537 43.1967 171.609 42.4791C172.683 37.2409 172.612 37.3127 175.048 37.3127C176.338 37.3127 178.057 36.8822 178.846 36.3081C180.207 35.3035 180.207 35.2318 178.702 33.2226C177.914 32.1463 176.983 29.9936 176.696 28.5585C175.478 21.8135 172.038 17.1494 166.593 14.6379C162.724 12.7722 157.493 12.4852 153.695 13.7768ZM211.949 109.714C215.819 113.446 217.753 115.67 216.392 114.665C215.031 113.661 212.523 112.154 210.875 111.365C209.227 110.504 206.146 108.566 203.924 107.059L200.055 104.333L201.918 101.319L203.853 98.3768L204.426 100.673C204.856 102.18 207.364 105.194 211.949 109.714ZM212.953 116.459C216.034 118.899 218.542 121.482 218.542 122.128C218.542 122.774 218.9 123.563 219.258 123.778C220.548 124.568 220.046 127.007 218.183 128.801C216.822 130.236 215.747 130.595 212.666 130.595C210.588 130.595 208.51 130.308 208.08 130.021C207.65 129.734 207.077 127.581 206.934 125.213C206.647 121.626 205.931 119.832 202.921 114.665C200.843 111.293 199.195 107.992 199.195 107.346C199.195 106.055 203.924 109.212 212.953 116.459ZM221.551 123.133C221.049 123.994 220.835 123.922 220.118 122.415C219.688 121.41 219.473 120.047 219.76 119.401C220.118 118.397 220.405 118.54 221.193 120.119C221.838 121.267 221.981 122.415 221.551 123.133ZM223.271 125.357C222.554 126.075 221.909 124.998 222.554 124.065C222.984 123.276 223.127 123.276 223.414 124.065C223.557 124.568 223.486 125.142 223.271 125.357ZM38.0463 160.661C37.2582 161.737 35.6818 163.244 34.607 163.962C33.1739 164.894 33.4605 164.32 35.8251 161.881C39.4794 158.078 40.1243 157.719 38.0463 160.661ZM204.068 182.618L199.553 186.852L199.338 183.479C199.052 178.743 200.772 175.945 204.927 174.438L208.152 173.218L208.367 175.801C208.582 178.097 208.224 178.671 204.068 182.618ZM36.3267 239.09C36.1117 239.592 35.9684 239.233 35.9684 238.229C35.9684 237.224 36.1117 236.865 36.3267 237.296C36.47 237.798 36.47 238.659 36.3267 239.09Z" fill="black"/>
<path d="M21.5668 217.85C21.5668 218.639 21.7817 218.854 21.9967 218.28C22.2117 217.778 22.14 217.132 21.9251 216.917C21.7101 216.63 21.4951 217.06 21.5668 217.85Z" fill="black"/>
</svg>
