<svg width="517" height="400" viewBox="0 0 517 400" fill="none" xmlns="http://www.w3.org/2000/svg">
<path d="M383.599 55.1995C376.899 59.1995 376.199 59.3995 362.899 60.5995C340.099 62.7995 327.299 68.1995 313.199 81.4995C299.399 94.4995 288.699 108 280.899 122.2C268.299 145.2 266.899 146 246.499 141.3C238.899 139.6 226.099 134.7 222.099 132.1C218.499 129.8 202.399 130.2 188.799 133L178.199 135.2L171.899 132.1C166.799 129.6 164.499 129 158.999 129C143.499 129 133.199 136.4 128.099 151.3C127.099 154.1 123.799 162.8 120.699 170.5C114.099 187.3 107.999 205.4 107.999 208.1C107.999 209.2 106.899 212.7 105.499 216C103.599 220.5 102.999 223.7 102.999 229.1C102.999 235 102.399 237.8 99.2991 245.3C95.9991 253.5 95.5991 255.4 95.4991 264.5C95.3991 270 95.0991 275.4 94.8991 276.4C94.2991 279.4 96.5991 279.3 97.8991 276.3C98.4991 274.7 99.3991 269.9 99.7991 265.5L100.599 257.5L101.899 263.5C102.999 268.1 103.099 271.7 102.299 278.9C101.399 287.3 100.999 288.6 98.5991 290.7C97.0991 292 94.7991 293 93.3991 293C91.9991 293 90.9991 293.6 90.9991 294.4C90.9991 295.9 93.0991 297 95.9991 297C97.5991 297 97.6991 297.4 96.8991 300.2C96.3991 302 94.9991 304.8 93.8991 306.4C92.1991 308.7 91.9991 309.4 93.0991 310.1C94.2991 310.9 94.2991 311.2 92.9991 311.9C88.6991 314.6 87.4991 315.9 88.5991 317C89.3991 317.8 90.4991 317.8 92.4991 317C95.3991 315.9 95.3991 315.9 93.4991 318C92.1991 319.5 91.8991 320.3 92.7991 321.2C93.5991 322 94.7991 321.7 97.3991 320C102.299 317.1 101.999 318.7 96.8991 323C93.4991 325.9 92.9991 326.8 94.1991 327.7C95.2991 328.6 96.9991 328.2 101.799 325.7C105.199 323.9 109.299 321.3 110.899 319.8C114.699 316.2 115.199 316.3 114.399 320.5C113.899 323.2 114.099 324 115.299 324C116.199 324 117.899 321.3 119.599 317.3C125.199 304.5 126.799 301.4 126.899 303.7C126.999 307.1 128.599 307.3 131.499 304.3C135.599 300 137.999 294.5 137.999 289.7C137.999 287.2 138.699 283.3 139.599 280.9C140.799 277.7 141.299 272.7 141.299 262L141.399 247.5L142.899 255.8C144.299 263.9 145.599 266.2 146.199 261.7C146.399 259.9 145.399 225.7 144.899 217.5C144.799 216.4 144.799 214.8 144.899 214C145.199 211.3 147.899 217.3 147.999 220.7C147.999 222.5 148.399 224 148.899 224C150.499 224 151.199 215.7 150.099 209.5C148.599 201.3 150.199 171.2 152.499 164.9C153.899 160.9 159.699 153.3 160.599 154.3C160.799 154.5 160.099 157.2 158.999 160.4C156.099 168.6 155.299 185.3 157.399 195C159.199 203.2 164.199 214.2 169.199 220.9C172.399 225 172.499 225.6 172.399 233.9C172.299 244.1 169.799 251.6 164.299 258.2C160.899 262.3 160.799 262.6 161.399 268.5C162.299 276.2 162.899 289.7 163.399 308.6L163.699 323.7L167.599 327.3L171.499 330.9L169.799 333.8C167.899 336.9 167.499 340.7 168.799 342.6C169.999 344.3 173.099 345.1 181.199 345.7C193.399 346.6 194.699 344.2 187.699 333.9C181.999 325.3 178.799 314.2 179.499 305.5C182.099 274.9 182.199 274.1 184.099 272.4C185.099 271.5 186.299 271.1 186.799 271.4C187.699 271.9 204.699 295.1 210.899 304.2C212.599 306.9 214.699 309 215.399 309C216.099 309 217.499 309.6 218.499 310.4C220.299 311.7 220.299 311.9 217.599 315.1C215.199 317.9 214.899 319.1 215.299 322.5C215.499 324.8 216.899 328.8 218.499 331.3C220.799 335.4 221.599 336 224.499 336C229.299 336 232.799 331.2 234.099 322.6C235.699 312.2 234.099 308.3 219.999 289.3C205.299 269.4 205.199 268.9 214.899 258.7C216.899 256.7 220.499 250.8 222.999 245.7C225.499 240.7 228.199 236.4 229.099 236.2C229.899 236.1 233.999 238.2 238.199 240.9C242.399 243.7 247.499 246.6 249.599 247.4C253.999 249.1 275.499 251 289.399 251C298.899 251 301.899 252 303.999 255.9C304.899 257.6 306.499 273.8 306.399 280.5C306.399 282.1 306.199 292.5 305.999 303.6C305.699 323.3 305.799 323.8 308.099 326.9L310.399 330L308.199 333C306.399 335.4 306.099 336.6 306.799 339.2C307.699 342.9 311.599 344.7 320.599 345.7C324.999 346.2 326.099 345.9 327.899 344.1C330.499 341.5 330.099 339.6 325.399 332.4C320.399 324.7 319.999 323 319.999 309.9C319.999 298.9 320.199 297.5 322.599 292.7C324.499 289 325.599 284.5 326.499 277C327.399 269.7 328.599 264.7 330.499 260.6L333.299 254.7L339.199 255.4C345.699 256 346.299 256.3 355.999 262.6C363.999 267.8 364.299 268.5 362.699 283.7C361.599 293.9 361.199 294.7 357.699 294.1C353.899 293.5 349.099 301.7 348.999 308.8C348.999 315.5 350.899 315.4 364.999 307.5C373.599 302.7 373.799 302.5 374.399 298.2C376.599 284.1 379.099 270 379.899 267.3C381.699 261.1 379.899 257.5 369.299 246.6C356.799 233.9 354.499 230.3 355.299 224.6C355.599 222.3 356.799 218.4 357.899 216C361.199 208.8 360.199 187.3 356.099 175C353.199 166.5 352.799 161.9 353.999 153.4C355.299 144 357.899 138.1 361.899 135.7C364.999 133.9 366.899 134.2 371.099 137.3C372.599 138.4 376.699 140 380.099 141C385.999 142.5 386.899 143.2 391.699 149.1C397.499 156.2 401.799 159 407.099 159C411.399 159 416.799 157.3 419.299 155.2C421.999 152.8 421.599 142 418.399 134.5C411.599 118.3 409.699 113.2 409.299 109.5C408.899 105.8 408.999 105.6 410.399 107.4C411.199 108.4 412.099 109.8 412.299 110.4C412.499 111 413.099 111.2 413.499 110.8C414.699 109.7 412.199 93.4995 409.899 87.0995C406.899 78.4995 401.999 71.0995 396.199 66.5995C390.499 62.1995 390.299 61.4995 392.599 53.1995C393.499 49.9995 391.599 50.3995 383.599 55.1995Z" fill="black"/>
</svg>
