<svg width="612" height="612" viewBox="0 0 612 612" fill="none" xmlns="http://www.w3.org/2000/svg">
<path d="M177.5 160.1C163.4 163.5 148.4 169 141.8 173.1C138.4 175.2 132.6 178.5 129.1 180.2C117.7 186 107.7 197 102.9 209.1C100.2 216 96.5 232.3 95.1 243C94.5 247.7 92.7 270.2 91 293C89.3 315.8 87.3 339.9 86.5 346.5C84.1 365.2 79.5 381.1 72.4 395.2C70.5 398.9 69 402.2 69 402.5C69 404.1 77.1 398.6 81.1 394.3C88.2 386.7 94.7 371.1 97.4 354.8L98.8 346.5L98.9 356.5C99 370.4 95.9 389.5 91.4 402.5C90.2 406.2 94.2 400 98.7 391.5C102.7 383.8 102.9 383.7 102.3 387.7C102 390.1 102 392 102.4 392C102.8 392 104.4 389.2 106 385.7C107.6 382.3 108.9 379.9 108.9 380.5C109.1 385 104.8 406.4 102.9 410.2L100.7 414.9L103.3 420.9C105.7 426.4 105.9 428.1 105.8 438.5C105.7 444.8 106 450.3 106.4 450.7C106.8 451.1 112.2 451.5 118.3 451.5H129.5L129.1 447.5C128.8 443.4 126.9 438.8 124.3 435.9C121.5 432.6 120.4 424.8 120.6 407.5C120.8 384.2 124.6 363.6 130.9 351.1C131.9 349.1 133.4 345.5 134.1 343C134.8 340.5 137.1 335.8 139.1 332.4C143.6 325.1 151.1 310.1 153.4 304C154.3 301.5 156.7 297.3 158.7 294.6C162.3 289.7 162.3 289.6 163.2 292.1C163.8 293.4 164.2 299.9 164.3 306.5C164.5 319.4 164 321.1 156.4 333.2C152.9 338.8 153.1 347.6 156.9 356.1C161 365.3 164.6 377.3 167.6 391.8C170.2 404.4 170.3 409.7 168.4 421.1C167.8 424.7 167.8 424.7 173.3 426.9C176.3 428.1 180.2 430.4 182 431.9C184.7 434.1 185.1 435 184.3 436.6C183.8 437.6 183.5 440.9 183.8 443.7L184.2 449H198.7H213.2L212.5 446.2C211.3 441.4 206.9 434.9 203.4 432.8C201.5 431.7 199.3 429.5 198.5 428C197.7 426.4 195.7 424.2 194.1 423C192.1 421.7 190.8 419.7 190.4 417.5C190.1 415.6 188.4 411.9 186.8 409.4C181.6 401.1 179.9 392 179.7 371C179.5 353.4 179.7 352.1 182.2 344.5C186 333.1 191.5 318.3 193.9 312.8C195.2 310.1 196.8 302.4 198 294.2C199.8 280.8 202.4 271.6 205.5 267.6C206.9 265.7 207.7 266 226.8 275.8C267.5 296.6 279.7 299.7 325.3 300.7L352 301.3V305.1C352 307.3 348.9 318.6 345 330.4C341 342.5 338 353.4 338 355.7C338 361.8 330.8 381.7 322.9 397.3C315.3 412.7 314.6 416.3 318 423.7C320.1 428.4 320.8 438 319.6 445.1L318.8 449.7L323.5 450.4C330.4 451.3 344.3 451.1 345.9 450.1C348.7 448.3 345.5 441.5 339 435.1L333.2 429.4L333.5 421.4C333.8 414.4 334.6 411.3 341 394.5C346.5 380.1 349 374.7 351.6 372C353.9 369.6 356 365.5 358.4 358.5C360.3 353 364.5 343.1 367.8 336.5C371.1 329.9 375 321.1 376.5 317C378 312.9 379.6 309.1 380.1 308.6C380.5 308.1 380.9 321.4 381 338.1C381 361.6 381.3 368.9 382.4 370.5C383.4 372.1 383.6 377.6 383.2 397C382.8 418.3 382.9 421.7 384.3 422.8C385.4 423.7 386 423.8 386.5 423C386.9 422.4 388.7 424.4 390.7 427.7C394 433.2 394.2 433.7 393.1 437.8C391.3 444.7 391.6 447.9 394.3 448.5C406.9 451.2 419 451.9 419 449.7C419 449.1 417.7 446 416 443C414.4 440 413.1 436.8 413 435.9C413 435 411.9 433.5 410.5 432.6C409.2 431.7 406.3 428.6 404.1 425.7C399.6 419.8 399.8 421 400 396.6C400.2 383.2 400.6 378.4 402.2 373.1C403.5 368.5 404.4 361.1 405 349C406.3 325.2 408 318.8 418.3 299.2C419.5 296.9 420.9 295 421.3 295C423.2 295 436.9 288.5 442.4 285L448.4 281.2L459.7 299.8C473.7 322.8 477.7 330.8 479.1 338.5C480.6 346.4 479.9 351 475 366.5C471.5 377.5 470.9 380.3 471.4 385C472.5 395.8 478.2 410.3 482.9 414.2C484.8 415.8 485.8 417.4 485.4 418.4C484.6 420.5 486.7 423.9 489.6 425C491.7 425.8 492 426.6 492 431.2C492 434 491.5 437.8 490.8 439.6C489.8 442.6 489.9 443.1 492.6 446.3C496.2 450.5 500.9 453 507 453.7C512.1 454.3 516 452.9 516 450.5C516 449.7 517.6 448 519.5 446.8C521.3 445.5 523.4 443.4 524.1 442C524.9 440.3 525.3 431.8 525.5 416.3L525.7 393.1L529.4 389L533.1 384.9L532.6 372.7L532.1 360.5L534 364.5L535.9 368.5V363.7C536 361.1 535.4 357.4 534.6 355.5C532.9 351.5 533.5 341 535.5 341C537.3 341 541 336.6 542 333.2C543.1 329.3 542.5 329.2 535 332.6C529.5 335 529.1 335.1 526.2 333.6C524.5 332.7 522.5 332 521.8 332C521 332 520.4 330.6 520.3 328.2C520 319.6 516.4 301 513.8 293.5C513.2 291.8 512.5 288.6 512.3 286.3C512 283.9 511 281.4 509.9 280.4C508.7 279.3 508 277.3 508 275.1C508 270.2 505.8 262.6 502.8 256.5C498 247 496.1 243.7 494.2 241.6C493.2 240.4 490.2 235.9 487.7 231.4C482.9 223.2 471.6 211 468.7 211C467.9 211 465.7 209.1 463.7 206.7C461.8 204.4 455.8 199.1 450.5 195C445.1 190.9 438.2 185.2 435.1 182.4C429.2 177 413.3 167.6 404 164C401 162.8 396 161.4 393 160.9C384.9 159.6 365.6 161.5 353 165C333 170.5 326.2 171.3 307.5 170.7C288.6 170 269.1 167.9 227.1 162C195.5 157.5 189 157.3 177.5 160.1ZM491 423.1C491 423.7 490.1 423.6 489 423C487.9 422.4 487 420.9 487 419.7L487.1 417.5L489 419.9C490.1 421.2 491 422.6 491 423.1Z" fill="black"/>
</svg>
