<svg width="512" height="450" viewBox="0 0 512 450" fill="none" xmlns="http://www.w3.org/2000/svg">
<path d="M274.602 15.7004C272.502 18.3004 269.602 22.9004 268.202 25.9004C265.902 30.9004 265.802 31.6004 267.002 36.9004C267.702 40.0004 269.302 43.8004 270.602 45.3004C274.202 49.6004 273.602 52.6004 267.302 63.0004C260.602 74.1004 258.402 80.8004 257.102 93.8004C254.302 120.9 249.302 141.1 243.002 151.1C241.202 153.8 239.702 156 239.602 156C239.602 156 237.102 155.1 234.302 154C230.502 152.6 228.402 152.3 226.602 152.9C223.602 154.1 223.102 155.6 224.302 160.3C225.202 163.8 225.002 164.4 222.102 168C220.402 170.1 219.002 172.6 219.002 173.6C219.002 175.1 218.202 175.2 212.302 174.7C203.902 173.9 191.602 171.7 183.002 169.5C167.902 165.5 141.002 170.6 124.002 180.7C120.902 182.5 115.402 184.6 111.202 185.5C95.6017 188.7 84.9017 197.1 78.1017 211.3C74.6017 218.7 72.0017 226.9 66.5017 248.5C63.0017 262 48.0017 288.1 37.9017 298.2C32.6017 303.5 32.0017 305.4 36.5017 302.4L39.2017 300.6L36.2017 306.6C33.0017 313.1 30.7017 321.3 28.9017 333.2C27.3017 343.2 28.8017 354.4 33.8017 369.9C37.9017 382.5 40.3017 387.2 42.2017 386.5C43.0017 386.2 44.7017 387.9 46.4017 390.6C49.1017 394.8 52.2017 397 55.5017 397C56.2017 397 55.3017 395.5 53.6017 393.8C50.0017 390.1 46.6017 382 45.5017 374.5C44.6017 368.7 46.1017 369.2 48.2017 375.4C49.4017 379.1 58.3017 388 59.5017 386.8C59.8017 386.6 58.4017 383.1 56.4017 379.2C53.4017 373.5 52.6017 370.7 52.2017 364.7C51.5017 353 53.8017 345 55.5017 353.3C56.5017 358 67.0017 373.8 67.0017 370.5C67.0017 370.1 65.1017 367 62.8017 363.6C58.0017 356.6 56.1017 351 56.7017 346C57.9017 335.6 58.2017 334 59.0017 334.5C59.5017 334.8 60.0017 334.2 60.2017 333.3C60.4017 332.3 62.0017 335.6 63.8017 340.7C65.6017 345.7 69.4017 353.5 72.1017 358L77.1017 366.2L71.5017 382.4C68.4017 391.2 64.6017 400.7 63.1017 403.5C60.5017 408.1 60.4017 408.8 61.6017 412C64.4017 419.9 63.1017 424.1 57.0017 426.7C55.6017 427.3 53.9017 428.9 53.1017 430.3C51.5017 433.3 52.3017 434.5 61.5017 444.7C68.8017 452.9 71.8017 451.5 72.6017 439.2C73.4017 425.6 74.1017 421.4 76.1017 417.3C77.2017 414.9 78.8017 409.8 79.5017 405.8C84.2017 379.6 90.4017 363.2 99.8017 351.5C102.502 348.2 105.902 343.1 107.502 340.1C109.402 336.7 112.502 333.2 116.402 330.1C122.302 325.5 129.002 317.7 129.002 315.5C129.002 314.9 131.902 311.3 135.402 307.7C138.902 304 142.802 299.5 144.102 297.5C146.902 293.4 148.402 293.1 150.502 296.3C155.802 304.4 160.502 337.4 158.102 349.2C156.902 354.6 157.002 355.1 159.902 360.8C162.202 365.3 164.802 368.3 170.502 373.1C180.502 381.4 189.702 395.1 196.102 411.2C198.502 417.4 200.602 420 203.102 420C205.602 420 212.002 425.8 212.002 427.9C212.002 428.9 211.102 430.5 210.002 431.5C208.802 432.6 208.002 434.6 208.002 436.5V439.7L216.302 440.3C228.702 441.3 234.402 441.1 236.302 439.7C238.002 438.6 237.902 438.1 235.102 434C231.702 428.9 227.402 424.3 223.702 421.8C222.202 420.7 220.302 417.7 219.002 414.4C217.902 411.3 214.302 405.5 211.202 401.6C199.202 386.8 187.402 369.1 186.102 364.2C185.502 362.2 184.402 356.7 183.402 352C181.802 343.7 181.802 343.1 183.902 332.8C185.902 322.9 186.902 311.2 187.002 294.5C187.002 285.4 187.702 284.3 191.802 286.4C197.402 289.3 212.702 292.8 224.302 293.9C230.402 294.5 245.202 295.5 257.002 296.1C268.802 296.7 279.602 297.3 280.902 297.4C282.702 297.6 283.702 298.7 285.102 302.3C286.702 306.3 286.802 308.1 286.002 314.2C285.502 318.2 284.402 324.4 283.502 328C282.502 331.6 280.702 338.8 279.502 344C275.502 360 273.202 366 268.202 372.8C265.602 376.4 262.202 381.1 260.702 383.3C259.102 385.5 254.702 390.8 250.902 395.2C243.302 403.8 243.102 404.5 245.502 413.7C247.902 422.8 247.602 424.7 243.502 426.4C239.702 428 238.202 431.6 239.902 434.8C242.102 438.8 255.702 443.2 260.902 441.5C263.502 440.7 263.502 438.9 261.002 430.9C256.702 417.5 260.802 406.4 279.902 379.6C286.902 369.9 289.502 365.9 292.202 361.2C294.802 356.6 302.002 342.2 302.002 341.5C302.002 341.3 305.702 334.6 310.102 326.8C318.102 312.7 325.002 304 328.002 304C328.802 304.1 330.702 305.6 332.102 307.5C333.502 309.4 337.402 312.9 340.602 315.3C347.602 320.5 386.802 361.7 392.402 369.8C394.502 373 398.702 380.7 401.702 387C410.802 406.4 410.202 405.4 414.002 406.1C419.402 407.2 421.302 410.4 420.602 416.8C419.302 427.6 422.002 430 435.302 430C442.002 430 444.302 429.6 446.002 428.2L448.202 426.4L443.602 418.9C441.002 414.8 437.002 409.7 434.502 407.7C431.402 405.1 429.602 402.4 428.002 398.4C426.902 395.2 424.802 391.4 423.502 389.8C422.102 388.2 421.002 386.4 421.002 385.9C421.002 385.3 419.002 382.1 416.602 378.7C412.702 373.1 407.302 362.3 402.402 350C396.002 333.9 392.102 326.2 380.002 306.2L370.802 290.9L373.502 284.7C378.002 274.5 380.002 268 381.502 258.8C382.302 253.9 383.802 248.1 384.902 245.8C386.702 241.9 392.202 235 393.502 235C393.802 235 398.702 238.8 404.502 243.5C417.802 254.3 427.402 259.1 440.702 261.9C446.302 263.1 452.302 264 453.902 264C456.802 264 457.002 264.2 457.002 268C457.002 272.4 457.902 273.1 465.802 275.6C473.102 277.8 474.302 277.5 479.702 271.7C484.102 267.1 484.802 265.7 485.402 260.8C485.802 257.7 485.702 251.7 485.102 247.3C484.002 239.2 484.302 203.8 485.502 191.4C486.002 186.6 485.802 183 485.002 180.5C483.802 176.9 483.902 176.6 488.402 170.2C493.302 163.2 493.202 161.8 488.102 164.5L485.002 166L485.602 161.3L486.302 156.5L481.902 160.6C475.002 167.2 473.802 167.5 468.902 164.4C457.402 157.2 446.302 153.8 428.502 151.9C417.602 150.8 414.902 150.9 399.002 152.9C380.202 155.3 375.502 156.2 351.002 162.5C338.602 165.7 337.802 165.7 338.602 162.3C339.102 160.5 338.602 158.4 336.902 155.3C334.902 151.6 333.402 150.3 327.302 147.4C323.302 145.5 320.002 143.4 320.002 142.7C320.002 142 314.902 139 308.802 136L297.502 130.5L297.602 123.5C297.702 119.6 298.302 112.9 299.002 108.4C300.602 98.5004 299.302 90.1004 295.002 80.8004C291.102 72.4004 290.202 65.9004 292.502 62.4004C293.702 60.5004 294.702 60.0004 296.302 60.4004C299.702 61.3004 302.002 58.4004 302.002 53.3004C302.002 50.3004 302.702 47.9004 304.002 46.3004C305.202 44.7004 305.702 43.3004 305.102 42.6004C303.602 40.6004 303.102 35.3004 304.302 34.1004C304.902 33.5004 306.502 33.0004 307.802 33.0004C311.002 33.0004 310.102 30.6004 306.802 30.2004C304.902 30.0004 303.902 28.8004 302.102 24.6004C298.502 15.8004 293.702 12.6004 282.502 11.3004C278.702 10.9004 278.302 11.2004 274.602 15.7004ZM302.602 158.5C305.402 161.5 307.602 161.7 308.502 159C309.302 156.4 310.402 156.5 314.302 159.4C316.102 160.7 318.502 162.1 319.802 162.5C325.202 164.1 319.002 167 310.002 167C303.602 167 301.702 165.9 300.102 161.1C298.202 155.2 298.902 154.5 302.602 158.5ZM428.902 213.8C430.102 214.7 432.202 218.8 433.602 222.8C436.402 231.3 438.902 235.3 446.002 243.4C450.102 248.1 455.002 256.3 455.002 258.5C455.002 259.1 443.002 254 432.502 249C422.302 244.1 401.002 230.7 401.002 229.2C401.002 228 415.402 215.2 418.702 213.5C422.502 211.5 426.302 211.6 428.902 213.8ZM102.002 220.4C100.402 228 100.402 257.6 101.902 261.5C103.002 264.1 105.302 275 106.702 283.7C107.102 286.1 105.902 289.8 101.902 298.7C96.3017 311.1 91.4017 320 90.0017 320C89.6017 320 88.9017 319.2 88.5017 318.2C87.3017 315.1 86.9017 298.6 87.9017 292.5L88.9017 286.5L88.7017 295.2C88.5017 304.5 89.9017 305.8 90.8017 297.1C91.3017 292 92.9017 290.1 93.1017 294.2C93.3017 297 94.5017 287.7 95.5017 276C96.1017 269.3 95.9017 266.2 94.6017 261.8C92.6017 254.7 92.5017 240.3 94.5017 232.7C96.2017 226 101.802 213.4 102.602 214.3C102.902 214.6 102.702 217.4 102.002 220.4ZM412.702 240.7C417.802 244 429.502 250 438.702 254.1C457.102 262.2 457.702 263.7 441.002 260.1C428.902 257.4 419.502 252.7 407.902 243.4C395.202 233.2 395.402 233.4 397.002 231.5C398.202 230.1 398.602 230.2 400.902 232.4C402.302 233.7 407.602 237.5 412.702 240.7ZM91.7017 281.1C91.8017 290.7 91.3017 289.5 89.6017 276.2C89.1017 272 89.2017 270.9 90.2017 271.2C91.1017 271.5 91.5017 274.4 91.7017 281.1ZM79.1017 336.8C80.4017 342.9 80.4017 351 79.1017 352.3C78.2017 353.2 76.0017 340.2 76.0017 333.9C76.0017 328.4 77.6017 329.8 79.1017 336.8Z" fill="black"/>
</svg>
