<svg width="409" height="409" viewBox="0 0 409 409" fill="none" xmlns="http://www.w3.org/2000/svg">
<path d="M148.874 23.0675C143.311 30.7567 141.348 36.4827 143.311 39.4275C144.129 40.8999 145.602 40.0819 148.056 36.9735L151.655 32.3927L168.669 46.1351C177.995 53.6607 192.719 64.1311 201.226 69.3663C209.733 74.7651 217.095 79.3459 217.422 79.6731C217.749 79.8367 217.259 82.1271 216.113 84.4175C214.641 87.6895 214.641 89.3255 216.113 91.1251C218.895 94.3971 216.113 96.6875 206.788 98.3235C197.136 100.123 191.737 103.559 189.447 109.285C188.629 111.739 186.829 115.665 185.52 118.119C181.43 125.808 182.575 130.553 188.956 133.334L194.845 135.624L194.191 153.293C193.864 165.727 192.719 172.598 190.919 176.197C189.283 179.142 187.974 185.032 187.647 189.285C187.32 196.647 186.993 197.302 180.939 199.919C177.504 201.555 171.941 205.154 168.506 207.772C162.78 212.353 161.307 212.68 154.109 211.698C146.583 210.717 145.929 211.044 141.675 215.952C139.221 218.897 137.585 222.169 137.913 223.15C138.894 226.422 144.784 226.095 148.056 222.496C151.001 219.224 155.418 218.079 155.418 220.369C155.418 221.187 154.273 224.95 152.8 229.04C148.71 240.819 149.365 257.506 154.273 269.613C157.054 276.32 158.199 281.719 157.708 284.5C157.054 287.609 158.199 292.026 161.635 298.734C165.07 305.441 166.215 309.858 165.725 313.458C165.234 316.73 165.888 320.165 167.524 322.783C168.997 324.91 171.287 331.944 172.596 338.325C173.905 344.705 175.868 351.904 177.013 354.521C177.995 356.975 178.649 360.738 178.485 362.865C177.831 368.591 182.575 374.644 187.483 374.644C191.083 374.644 191.573 374.153 190.755 370.881C190.265 368.918 188.956 362.865 187.974 357.466C186.993 352.067 184.375 340.288 182.085 331.29C178.322 315.584 174.886 291.862 176.359 290.554C176.686 290.063 179.14 292.353 181.921 295.462C189.61 304.296 194.191 302.66 191.246 292.19C188.465 282.046 190.265 279.592 194.682 287.936C198.117 294.316 198.608 297.752 198.772 313.294C198.935 327.2 199.59 332.599 201.88 336.852C204.007 340.779 204.334 342.742 203.025 344.051C199.917 347.159 201.062 351.413 206.134 355.012C209.733 357.466 211.86 361.229 214.314 369.245C216.113 375.135 217.586 381.679 217.586 383.806C217.586 387.896 222.494 391.004 229.365 391.004C233.455 391.004 233.128 389.368 224.948 368.1C219.385 353.376 219.222 352.231 221.512 347.486C225.929 337.998 226.257 328.509 222.821 313.948C221.021 306.423 219.058 297.425 218.731 294.153C217.913 288.427 218.077 287.936 223.639 286.136C228.874 284.5 229.692 284.664 233.619 288.427C236.073 290.554 241.144 294.316 244.907 296.77C248.67 299.061 252.596 302.496 253.741 304.46C254.723 306.423 256.032 318.366 256.359 331.126L257.341 354.194L252.105 356.157C247.525 357.793 247.034 358.775 247.034 364.664C247.034 368.264 247.688 371.536 248.343 372.026C250.633 373.335 262.739 359.756 265.03 353.376C269.283 341.433 269.611 333.253 266.666 313.948C263.721 294.316 262.903 291.862 254.723 279.92L249.815 272.721L252.596 258.324C254.559 248.018 255.05 240.492 254.232 232.312C253.087 220.86 257.177 179.796 260.122 172.271C260.94 170.308 263.23 168.508 265.193 168.181C267.157 167.854 269.774 166.218 270.919 164.418C272.719 161.473 272.228 160.001 266.502 151.494C263.067 146.258 260.122 140.205 260.122 137.915C260.122 132.189 257.177 127.608 253.414 127.608C249.161 127.608 247.361 122.7 250.96 120.737C252.433 119.919 254.723 116.647 256.032 113.375C258.322 107.976 258.322 107.158 255.705 104.213C254.069 102.577 250.96 100.123 248.67 98.9779C245.889 97.5055 243.435 93.9063 241.471 88.5075C237.709 77.8735 232.146 73.1291 224.948 74.6015C220.531 75.4195 217.422 73.9471 202.698 64.4583C193.373 58.2415 178.813 47.7711 170.469 41.2271C157.545 30.9203 155.254 28.4663 156.236 25.5215C159.508 15.0511 155.745 13.7423 148.874 23.0675ZM247.034 107.976C247.034 112.23 241.635 121.064 239.181 121.064C238.527 121.064 236.4 118.283 234.437 114.847C231.001 108.794 231.001 108.63 234.109 106.667C235.745 105.522 237.545 102.904 238.199 100.45L239.181 96.3603L243.107 99.9595C245.398 102.086 247.034 105.522 247.034 107.976ZM252.596 168.344C253.087 168.999 252.433 171.126 251.124 172.762C248.833 175.706 248.833 175.706 248.67 171.289C248.67 167.036 250.797 165.4 252.596 168.344ZM251.942 193.212C251.124 200.737 250.306 207.936 250.142 209.408C249.815 214.152 247.361 203.518 247.197 196.647C247.034 189.94 251.124 177.015 252.923 178.651C253.414 179.142 252.923 185.686 251.942 193.212Z" fill="black"/>
</svg>
