<svg width="535" height="532" viewBox="0 0 535 532" fill="none" xmlns="http://www.w3.org/2000/svg">
<path d="M348.749 19.1648C342.681 21.2365 336.984 26.12 328.992 36.1089C326.032 39.8824 324.33 41.4362 323.59 41.1403C320.112 39.8084 315.672 39.1425 312.86 39.5125C311.085 39.7344 306.053 40.2524 301.539 40.6223C297.099 40.9183 292.067 41.7322 290.439 42.3981C288.811 42.9901 284.298 43.656 280.376 43.878C274.382 44.0999 272.458 44.5439 268.462 46.3937C265.872 47.6516 262.616 49.6493 261.21 50.8332C259.804 52.091 257.215 53.7928 255.513 54.6808C250.999 56.9745 247.299 61.044 244.413 66.9634C242.119 71.8468 241.675 72.3648 237.605 74.2885C235.163 75.3984 232.573 76.9522 231.759 77.6922C229.614 79.6899 227.32 87.3111 226.506 95.1542C225.84 101.665 225.84 102.183 227.838 107.511C230.058 113.43 233.979 119.053 251.517 141.251C256.401 147.466 260.47 153.164 260.47 153.756C260.47 155.087 255.143 163.522 253.145 165.298C251.517 166.778 242.785 167 221.622 166.186C206.97 165.594 205.712 165.594 199.793 167.148C187.065 170.33 175.892 177.137 163.83 189.05C159.686 193.119 153.914 199.704 151.029 203.7C148.069 207.622 144.961 211.395 144.073 211.987C139.189 215.169 127.571 215.983 121.652 213.467C120.172 212.875 118.1 212.653 116.472 212.875C114.03 213.245 113.882 213.393 115.066 214.281C115.732 214.799 116.102 215.539 115.88 215.909C115.658 216.279 116.99 218.054 118.84 219.83C122.022 222.864 126.239 228.487 125.647 229.005C122.688 231.447 114.548 231.521 107.37 229.079C101.302 227.007 101.154 227.599 106.926 230.855C111.292 233.371 111.44 233.519 110.108 236.404C109.442 237.884 108.11 238.624 104.262 239.808C101.45 240.622 98.5645 241.14 97.6765 240.844C95.1606 240.03 96.0486 241.214 98.7865 242.398C100.192 242.99 101.376 243.729 101.376 244.173C101.376 245.579 96.4185 248.613 93.9026 248.613C90.3508 248.687 85.8369 249.797 84.653 250.981C83.839 251.795 85.4669 251.943 94.1986 252.017C103.004 252.017 105.594 252.312 110.256 253.718C113.29 254.68 116.028 255.642 116.324 255.938C116.62 256.234 116.398 257.122 115.806 257.936C115.066 259.046 112.92 259.86 108.628 260.822L102.486 262.227L108.406 262.819C111.588 263.189 114.4 263.559 114.548 263.707C114.696 263.855 114.104 265.409 113.216 267.037C112.402 268.739 110.7 272.808 109.442 276.064C106.334 284.647 103.004 289.012 96.2705 293.526C91.3127 296.781 90.3508 297.743 89.1668 300.851C86.4289 308.324 83.099 310.914 76.4393 311.062C73.4794 311.062 72.0735 310.692 70.5195 309.434C64.4517 304.551 61.7138 303.441 51.6502 301.517C50.5403 301.295 48.5423 300.185 47.2104 299.001C45.8784 297.891 43.6585 296.338 42.3266 295.672C40.0326 294.488 39.5887 294.488 36.1848 295.598C31.893 297.003 31.227 298.113 30.635 303.885C30.191 308.176 30.265 308.176 32.8549 309.804C34.3349 310.766 37.2208 313.652 39.2927 316.315C45.3604 324.01 53.7221 327.414 71.1115 329.264C79.4732 330.152 79.6212 330.152 84.579 328.302C94.4206 324.528 103.818 316.685 110.108 306.918C113.142 302.257 113.586 301.887 117.508 300.703C125.351 298.483 130.457 295.598 137.117 289.678C140.669 286.497 143.555 283.611 143.555 283.241C143.555 282.945 144.221 282.649 145.035 282.649C146.145 282.649 147.255 284.277 149.771 289.604C152.73 295.746 160.13 306.4 168.64 316.685C170.268 318.609 172.044 323.344 175.744 335.553L180.701 351.831L180.257 368.479L179.739 385.201L181.811 389.197C183.069 391.565 184.993 393.932 186.473 394.894C191.801 398.298 192.541 399.038 193.947 402.442C195.945 406.955 197.795 408.879 202.753 411.395C207.266 413.762 212.816 419.164 222.214 430.41C227.69 437.07 228.504 438.475 228.948 441.657C229.318 444.247 229.91 445.727 231.094 446.689C233.831 448.834 237.827 458.305 237.161 461.191C236.421 464.89 236.569 468.812 237.901 475.471C238.567 478.431 242.785 481.687 248.261 483.24C251.073 484.128 255.291 485.756 257.585 486.94C262.764 489.604 265.946 489.752 267.426 487.458C269.794 483.61 271.2 472.216 271.2 456.529C271.2 445.579 271.496 440.473 272.236 438.253C273.42 434.776 272.976 433.74 267.796 427.525C264.096 423.085 243.821 393.637 241.601 389.493C238.937 384.462 238.567 381.502 240.121 376.692C243.229 366.852 248.113 360.118 256.623 354.125C259.878 351.831 265.946 346.948 270.016 343.248C274.16 339.623 277.786 336.737 278.156 336.959C278.452 337.181 281.19 337.773 284.224 338.217C288.737 338.883 290.143 339.475 292.437 341.546C294.805 343.618 301.095 346.282 303.759 346.282C304.203 346.282 304.943 348.724 305.387 351.831C305.831 354.865 306.719 358.195 307.385 359.23C308.051 360.266 311.381 362.856 314.71 365.076C318.114 367.222 326.846 373.955 334.098 380.096L347.417 391.121L349.489 401.332C350.599 406.955 352.301 413.318 353.263 415.39C355.335 419.904 356.149 422.493 357.777 430.04L359.109 435.664L356.741 439.733C355.483 441.953 354.003 444.099 353.485 444.543C353.041 444.987 347.565 445.579 341.349 445.801C331.804 446.319 329.436 446.171 325.292 445.061C321 443.877 319.89 443.877 316.486 444.691C313.822 445.283 311.307 445.357 308.569 444.987L304.499 444.321L304.277 439.511C303.981 433.37 302.945 432.112 297.913 432.112C295.693 432.112 293.399 432.556 292.437 433.222C291.401 434.036 289.995 434.258 288.367 433.962C286.221 433.518 285.629 433.888 282.67 436.774C279.118 440.251 275.714 446.097 276.158 448.168C276.528 450.018 281.634 451.424 289.477 451.72C295.915 452.016 297.247 452.386 303.019 455.05C306.571 456.677 310.567 458.971 311.973 460.229C314.562 462.449 315.45 462.671 320.482 462.449C323.072 462.375 323.146 462.449 323.59 465.26C324.182 468.664 326.328 471.624 329.51 473.252C333.654 475.471 343.125 473.843 348.823 469.996C350.303 468.96 351.709 468.664 353.707 468.886C355.335 469.108 357.407 469.108 358.517 468.812C360.737 468.22 363.327 464.373 363.327 461.635C363.327 460.155 364.954 458.083 369.912 453.2C373.538 449.648 376.942 445.727 377.46 444.543C378.126 442.841 378.052 440.769 377.016 433.888C375.98 427.229 375.832 425.009 376.498 424.047C379.902 419.238 380.568 417.092 380.124 411.321C379.828 408.139 378.94 403.625 377.978 401.258C376.424 397.188 376.35 395.708 376.128 374.769L375.98 352.571L380.346 349.464C386.34 345.172 392.259 337.773 396.995 328.45C401.879 318.905 402.249 316.981 403.285 293.156C404.543 263.337 404.543 263.411 412.091 240.4C415.717 229.227 420.452 214.651 422.672 207.917L426.594 195.709L432.366 195.857C438.138 196.079 438.138 196.079 447.535 201.702C452.715 204.81 458.413 208.287 460.189 209.471C462.039 210.655 464.481 211.617 465.813 211.617C467.737 211.617 468.329 212.061 469.365 214.207C470.031 215.613 471.067 216.796 471.659 216.796C472.324 216.796 473.138 217.462 473.582 218.276C474.174 219.386 475.136 219.756 477.504 219.682C479.206 219.682 481.87 219.904 483.424 220.126C485.792 220.57 486.828 220.274 491.194 217.684C495.782 214.947 498.002 212.431 498.002 209.989C498.002 209.545 499.185 207.917 500.665 206.29C502.811 203.848 503.255 202.886 502.959 200.962C502.737 199.704 502.885 195.857 503.255 192.379C504.143 184.61 503.625 183.204 498.076 178.691C493.858 175.361 484.534 165.52 479.576 159.379C476.542 155.457 475.876 152.868 475.062 141.029C474.322 130.3 473.952 129.634 466.775 124.751C462.557 121.865 453.307 111.358 451.753 107.585L450.643 104.847L453.529 101.739C458.413 96.4861 460.855 90.6407 461.669 82.2796C461.965 79.394 462.113 76.9522 462.039 76.9522C461.965 76.9522 460.855 78.5061 459.597 80.4298C456.637 85.1653 443.614 97.9659 442.578 97.3739C442.134 97.078 441.764 96.1161 441.764 95.1542C441.764 94.2663 440.95 92.7125 439.914 91.7506C438.878 90.7887 438.064 89.6788 438.064 89.2349C438.064 88.7909 437.472 88.051 436.658 87.5331C435.77 86.9411 434.956 85.0173 434.29 81.8357C433.772 79.172 433.032 76.9522 432.662 76.9522C431.404 76.9522 427.852 81.3918 425.114 86.2012C423.634 88.8649 422.302 91.0107 422.08 91.0107C421.858 91.0107 420.822 90.3447 419.786 89.5308C418.454 88.4949 416.753 88.051 413.941 88.051C410.315 88.051 409.871 88.273 408.909 90.1967C407.059 93.7484 399.585 95.8201 399.585 92.8604C399.585 90.4927 398.179 91.3066 396.255 94.7842C394.479 98.0399 394.257 99.4457 394.109 105.513C394.109 109.805 393.739 112.468 393.295 112.468C392.333 112.468 388.116 108.103 385.304 104.181L383.306 101.443L381.456 103.293C380.42 104.329 379.606 105.587 379.606 106.179C379.606 108.029 377.904 110.988 376.868 110.988C376.35 110.988 375.906 111.654 375.906 112.394C375.906 113.208 375.61 114.022 375.24 114.244C374.5 114.762 373.686 112.246 373.686 109.139C373.686 107.437 373.464 107.141 372.946 108.029C372.576 108.621 372.206 110.027 372.206 111.136C372.206 113.504 370.948 114.54 370.208 112.764C369.542 110.914 368.654 114.17 368.062 121.199C367.766 124.603 367.248 126.453 366.73 126.305C365.324 125.861 365.25 104.255 366.656 100.926C368.21 97.152 368.062 93.7484 365.916 86.4972C363.697 78.876 363.623 77.3962 365.546 74.6585C366.434 73.5486 367.47 71.5508 367.84 70.293C368.432 68.6652 369.912 67.3333 373.316 65.4836C377.756 62.9678 377.904 62.7458 378.126 59.7122C378.644 52.683 378.348 42.9901 377.46 37.7367C376.498 32.1873 376.498 32.1873 370.8 26.5639C361.921 17.7589 357.259 16.2051 348.749 19.1648ZM419.564 97.3739C419.564 97.5959 417.937 99.5197 415.939 101.591C413.941 103.737 411.129 106.919 409.797 108.769C405.135 114.91 401.953 112.468 401.879 102.553L401.805 98.1879L405.727 98.6318C408.465 98.9278 409.945 98.7798 410.981 98.0399C412.387 97.004 419.564 96.412 419.564 97.3739ZM344.827 111.358C344.827 112.838 344.309 114.836 343.643 115.872C342.533 117.5 342.533 118.536 343.347 126.009C343.865 130.522 345.049 136.811 345.937 139.845C346.899 142.879 348.083 146.874 348.527 148.724C348.971 150.574 350.673 154.791 352.375 158.195C355.705 165.076 355.779 167.962 352.597 167.962C351.561 167.962 350.673 167.444 350.377 166.556C350.155 165.816 349.341 164.632 348.527 163.892C347.195 162.709 347.047 162.709 344.975 163.892C342.977 165.076 342.755 165.076 340.313 163.892C337.28 162.339 334.468 159.897 334.468 158.713C334.468 158.269 333.58 156.197 332.544 154.2C331.508 152.202 330.324 149.39 330.028 147.984C328.4 141.251 326.994 137.107 325.588 135.406C324.774 134.37 323.664 132.742 323.146 131.706C322.702 130.67 320.556 126.897 318.41 123.271C316.264 119.645 314.71 116.464 314.858 116.168C315.006 115.872 319.742 115.428 325.366 115.132C336.244 114.54 339.573 113.578 341.645 110.544C343.347 107.881 344.827 108.325 344.827 111.358ZM389.892 112.542C394.331 116.908 394.701 118.388 391.298 118.388C387.746 118.388 385.526 115.872 385.526 111.95C385.526 110.174 385.674 108.769 385.822 108.769C385.97 108.769 387.746 110.47 389.892 112.542ZM298.653 155.235C302.945 158.417 307.089 163.301 307.089 165.298C307.089 166.186 308.125 168.406 309.309 170.108C312.712 174.769 312.564 176.101 308.421 178.321C305.091 180.097 304.869 180.097 301.391 178.987C296.359 177.359 289.181 171.736 289.625 169.812C290.069 167.592 293.177 155.161 293.473 154.052C293.843 152.646 295.545 153.016 298.653 155.235ZM207.192 296.633C211.928 301.147 217.774 304.329 225.322 306.4C234.423 308.842 240.491 314.022 240.491 319.275C240.491 323.27 238.641 330.892 236.791 334.443C234.719 338.587 221.548 354.125 216.886 358.047C212.224 361.968 209.856 366.186 210.448 369.515C210.744 370.847 212.52 373.881 214.444 376.322C216.368 378.69 219.476 382.834 221.252 385.497C223.028 388.161 228.06 395.19 232.499 401.184C241.749 413.762 251.813 428.931 252.849 431.89C254.033 435.072 256.919 445.431 257.733 449.13C258.176 451.498 258.176 453.126 257.511 454.68L256.623 456.899L255.143 453.94C254.255 452.312 251.961 448.982 249.963 446.615C247.965 444.173 245.597 440.843 244.783 439.215C242.711 435.146 239.529 431.15 237.383 430.04C236.421 429.522 230.132 423.085 223.472 415.76L211.262 402.368L208.894 394.894C207.636 390.677 206.526 385.645 206.526 383.5C206.452 380.614 205.786 378.542 203.937 374.917C202.531 372.253 200.829 368.109 200.163 365.742C198.683 360.118 196.685 326.378 196.981 312.246C197.277 302.109 197.351 301.295 199.423 297.225C200.607 294.932 202.013 293.008 202.457 293.008C202.975 293.008 205.12 294.636 207.192 296.633ZM89.4628 310.322C90.5728 311.58 89.3888 312.32 83.099 314.539C80.1391 315.575 78.6592 315.723 77.6232 315.131C75.2553 313.874 75.9953 313.208 81.6191 311.284C87.9829 309.064 88.3528 308.99 89.4628 310.322ZM50.1703 310.988C52.9822 311.876 56.682 314.317 62.8238 319.423C64.5257 320.829 64.5997 321.051 63.4158 321.495C61.1219 322.457 57.496 321.125 51.0582 317.203C46.6924 314.465 44.6945 312.838 44.5465 311.654C44.2505 309.73 45.4344 309.582 50.1703 310.988ZM68.3736 313.208C73.5534 316.093 74.7374 317.869 71.0375 317.055C65.2657 315.797 58.8279 313.134 58.606 312.024C58.162 309.804 63.4158 310.47 68.3736 313.208Z" fill="black"/>
</svg>
