<svg width="399" height="399" viewBox="0 0 399 399" fill="none" xmlns="http://www.w3.org/2000/svg">
<path d="M132.6 20C131.2 21.7 129.6 24.8 129 26.9C128.5 28.9 126.8 31.7 125.4 33.1C115.6 42.2 102.7 68.7 103.1 79C103.1 80.4 104.2 77.6 105.5 72.8C106.7 68.1 109.1 61.3 110.8 57.7C114.2 50.3 122.6 37.6 126.2 34.2L128.7 32L129.7 36.5C130.5 40 130.4 41 129.5 41C126.5 41 125.9 43.7 127.4 49.7C128.2 52.9 129.3 59.6 129.9 64.7C131.4 78.4 135 84.3 154.9 105.9L165.4 117.2L165.3 122.5C165.2 125.5 164.2 131.3 163.1 135.5C160.7 144.3 160.9 144.9 167.2 148.1C170.6 149.9 173 153.1 173 156.2C173 156.8 171.3 156.9 168.2 156.5C163.4 155.9 150.9 158.4 146 161C143.3 162.5 142 166 142 172.1V177H135.8C128 177 111.3 179.5 107.4 181.2C105.8 181.9 102.8 183.5 100.8 184.8C98.7005 186.2 94.1005 187.9 90.5005 188.6C81.1005 190.6 68.8005 198.7 65.5005 205C64.8005 206.4 63.2005 213.3 62.0005 220.5C60.7005 227.6 58.4005 236.8 56.8005 240.9C54.7005 246.1 54.0005 249.2 54.4005 251.4C55.0005 254.5 53.7005 258.1 49.7005 264.2C47.1005 268.1 49.3005 268.6 53.4005 265C57.4005 261.4 58.2005 262.1 57.0005 267.6C56.1005 271.5 56.2005 273.7 58.1005 283.8C59.4005 290.3 61.2005 290.7 60.4005 284.2L59.9005 279.5L62.5005 284.7C63.9005 287.5 67.7005 292.7 71.0005 296.2C75.3005 300.8 76.9005 303.3 77.0005 305.4C77.0005 307.7 79.3005 310.6 88.5005 320C98.8005 330.5 100.5 332.8 104.4 341.1C109.7 352.4 111.4 360 110.5 368.1C110 372.1 110.2 374 110.9 374C111.5 374 112 375.3 112 377C112 380.4 114.3 382 119.2 382C123.6 381.9 126 379.9 126.7 375.6L127.3 372L130.2 374.5C133.6 377.4 139.1 377.8 141.1 375.4C142.1 374.1 141.8 372.9 139.2 367.7C135.4 360.1 124.5 335.5 121.8 328.1C120 323.4 119.8 321.3 120.4 312.9C120.7 307.6 121.9 300.3 123.1 296.8C124.2 293.4 125.5 286.2 125.9 281C126.6 273.3 128.3 266.9 130.7 263.1C130.8 262.9 134.9 264.4 139.7 266.3C158.1 273.7 168.6 274.9 185.5 271.7C200.8 268.8 199.6 268.7 201.8 272.3C203 274.4 205.6 276.5 208.9 278L214.2 280.5L213.7 285C213.2 289.4 209.1 302.1 205.6 310.2C204.7 312.3 204 316 204 318.4C204 321.3 202.6 326.5 200.2 332.7C198 338.1 195 345.9 193.5 350C191.6 355 189.5 358.5 187.3 360.4C183.9 363.5 183.1 365.5 185.2 366.2C185.8 366.4 186.4 368.6 186.4 370.9C186.5 377.2 189.4 379.1 198.8 379.1C209.8 379.1 211.4 377.5 208.9 368.6C208.1 365.9 208.1 364.5 208.9 363.7C209.5 363.1 210 361.4 210 360C210 357.9 210.7 357.1 213.5 356.1C216.8 355 222.4 348.1 230.3 335.7C231.3 334.1 234.5 330.1 237.4 326.6C243.9 319 244.9 314.4 242.5 303.2C241.7 299.2 241 293.6 241 290.9C241 286.7 241.3 285.8 243.3 285.1C246.2 283.9 248.9 280.9 253.8 272.9C256.2 269.1 259.8 265 262.5 263.1C265 261.3 267.8 258.7 268.6 257.4C270.8 254.2 271.7 255.1 272.5 261.3C273.9 271.8 280.2 298.5 283.6 307.7C287.7 319.2 295.9 335.7 300.6 342.1C304.9 348 309.4 349.9 313.9 347.6C315.5 346.7 317.1 345.6 317.5 345C317.801 344.5 319.5 345.6 321.201 347.5C323.301 350 325 351 327.1 351C329.801 351 334 348.1 334 346.1C334 345.7 335.301 344 336.801 342.3L339.701 339.3L339.201 323.4C338.801 309.4 339 307.7 340.201 309.4C341.9 311.6 344 310.8 344 307.9C344 306.2 344.301 306.1 346 307.2C347 307.9 348.201 308.1 348.6 307.8C349.1 307.2 348.201 301.7 346.301 294.3C345.9 292.5 346.1 292.1 347.4 292.6C349.6 293.4 349.4 291.7 346.9 286.8C345.701 284.5 344.201 281 343.5 279C342.301 275.7 342.4 275.2 344.1 274.2C348.201 271.6 352.201 258.1 350 254C348.6 251.3 348 251.4 342.701 255.5L338.201 259L337.5 255.7C336.201 249.9 331.9 240.6 327.4 234.4C324.801 230.6 322.4 225.8 321.4 221.9C319.301 214.2 319.201 214 317.5 216.3C316.4 217.9 316.201 217.8 315.701 215.3C314.201 208.6 308 202.8 308 208.2C308 209.9 307.4 209.5 304.801 206C303 203.7 300.4 199.9 299 197.7C295.7 192.5 294.2 192 293.4 195.9L292.7 199L288.9 195.5C284.4 191.5 282.3 191.1 281.1 194.2C280.4 196.2 279.6 195.7 271.4 187.5L262.4 178.5L261.2 163C259 136.4 255.2 121.1 244.8 96.8C229.6 61.6 202.1 36.2 167.8 26C162.2 24.3 154.6 22.6 151 22.3C146.3 21.9 143.7 21.1 141.7 19.3C137.9 16.2 135.7 16.4 132.6 20ZM163.8 26.5C190.2 33.6 213.6 51 231.3 76.7C240.8 90.5 252.3 120.3 255.4 139C256.9 148.1 258.9 165.9 259 170.8C259 174.5 256.8 172.9 255.2 168.1C254.2 165.1 252.7 163.2 250 161.5C246.7 159.4 245.2 157 240 146.3C233.2 132.1 227.1 117.3 224.6 109.1C222.5 101.9 220.7 99.4 216.1 97C211.1 94.5 210.3 93.2 212.6 91.5C213.9 90.5 215.9 90.2 219.2 90.7C225.9 91.5 229 89.4 229 84C229 80 225.9 75.9 219.6 71.7C218.2 70.7 217.1 69.6 217.4 69.2C217.6 68.8 217.4 67.5 217 66.4C216.4 64.9 214.2 63.6 209.5 62C201.5 59.3 198.2 60.2 195.7 65.6C193.5 70.1 192.1 70.5 186.2 68.6C175.4 65 174.5 72 185.2 76.4C192 79.3 190.8 81.4 182 82.5C175.2 83.3 170.8 81.8 159.3 74.9L150.8 69.7L151.4 65.8C151.9 63 151.6 61.1 150.4 59.1C149 56.8 148.9 55.2 149.6 50.7L150.5 45.1L160.2 50.9C165.5 54.1 172.8 58 176.4 59.5C182.2 62 183.3 62.1 186 61C191.5 58.7 189.7 51.7 181.8 44.4C175.9 39 163.3 30.5 155.7 26.9C147.8 23.2 150.9 23 163.8 26.5ZM153.3 27.8C160.9 31.3 175.4 40.6 180.7 45.4C185.8 49.9 188.8 56.3 187 58.5C184.9 61 180.5 60.2 172.4 55.9C163.3 51.1 150.6 43.1 150.2 41.9C150 41.4 148.4 40.2 146.7 39.3C144.9 38.4 144 37.5 144.6 37.3C145.3 37.1 149.3 39.5 153.6 42.6C166 51.4 176.1 56 178.6 53.9C180.7 52.1 178.9 49.2 171.6 42.7C163.2 35.2 159.6 32.6 151.5 28.3C144.1 24.3 145 24.1 153.3 27.8ZM153.1 32.2C160.7 36.2 176.9 49.1 177.8 51.7C178.4 53.8 174.3 53.2 168.7 50.4C165.8 48.9 159.4 44.8 154.3 41.3C146.3 35.6 145.2 34.4 144.8 31.4C144.6 29.5 144.6 28 144.8 28C145.1 28 148.8 29.9 153.1 32.2ZM223 153.7C225.3 156.6 229.5 160.5 232.4 162.4C235.3 164.3 238.5 167.2 239.5 168.7C240.7 170.5 240.8 171.1 239.9 170.4C236.9 168.1 221 156.4 218.6 154.7C217.2 153.8 216.3 152.4 216.6 151.7C216.8 151 216.2 149.5 215 148.5C213 146.7 212.3 143 213.7 141.6C214.1 141.2 215.4 142.6 216.6 144.7C217.8 146.8 220.7 150.8 223 153.7ZM256.1 178.6L258.5 181.2L254.8 179.7C252.7 178.8 250.2 177.6 249.3 177.1C247.8 176.2 248 176.1 250.6 176C252.6 176 254.5 176.9 256.1 178.6ZM284.4 270.2C290 283.1 295.1 292.3 298.5 296C299.9 297.5 301.2 300.7 301.9 304.1C302.9 309.6 304.701 313.4 312.5 325.4C314.9 329.2 316.5 333 316.801 335.8C317.201 339.7 317 340.4 314.4 342.6C309.9 346.3 306.6 345.8 303 340.9C298.4 334.4 288.1 313.6 284.9 304.1C282.2 296.3 274 260.2 274 256.5C274 255.1 274.4 255.1 276.8 256.8C278.6 258.2 281.1 262.4 284.4 270.2ZM90.6005 269.9C92.1005 273.3 91.8005 281.6 90.0005 284.9C89.2005 286.4 86.7005 283.3 83.1005 276.3C80.5005 271.1 80.5005 271 82.9005 271C86.2005 271 86.3005 269.1 83.1005 265.4C81.3005 263.4 80.0005 260.8 80.0005 259.2C80.0005 256.7 80.2005 256.8 84.5005 261.5C87.0005 264.3 89.8005 268 90.6005 269.9ZM56.0005 258.8C56.0005 259.3 55.3005 260.5 54.5005 261.6C53.1005 263.4 53.1005 263.3 54.1005 260.7C55.3005 258 56.0005 257.3 56.0005 258.8ZM59.9005 269.7C59.8005 271.3 59.4005 273.6 59.0005 275C58.4005 277 58.2005 276.4 58.1005 272.2C58.0005 269.4 58.4005 267 59.0005 267C59.6005 267 60.0005 268.2 59.9005 269.7ZM292 274.8C298 284.1 301.2 290.9 300.8 293.6C300.5 295.8 300.2 295.6 297.2 291.2C294.2 286.8 289.5 276.5 287.5 270C286.5 266.7 287.2 267.4 292 274.8ZM214 270.9C215 273 215.4 278 214.5 278C212 278 203 271.6 203 269.8C203 269.4 205.2 269 208 269C211.8 269 213.2 269.4 214 270.9ZM252.3 272.1C247.7 280 241 285.6 241 281.6C241 277.9 243.3 274.9 248.2 272.1C251.1 270.4 253.6 269 253.8 269C254 269 253.3 270.4 252.3 272.1ZM228 313.6C228 323.5 226.4 327.4 219.8 333.5C211.8 340.9 210 340.8 213.9 333.1C215 331.1 216.5 328.8 217.4 328.1C218.2 327.4 220.6 322.6 222.6 317.4C224.6 312.2 226.6 308 227.1 308C227.6 308 228 310.5 228 313.6Z" fill="black"/>
</svg>
