<svg width="512" height="512" viewBox="0 0 512 512" fill="none" xmlns="http://www.w3.org/2000/svg">
<path d="M278.999 3.49976C278.999 6.39975 281.699 11.4998 285.399 15.4998C287.399 17.5998 288.899 19.8997 288.699 20.3997C287.999 22.5998 285.999 21.8997 281.599 17.9998C276.399 13.5998 274.499 12.6997 277.699 16.1997C281.299 20.2997 281.299 20.9998 277.999 19.9998C274.599 18.9998 271.099 19.8997 269.099 22.2997C267.999 23.6997 268.299 23.7997 271.399 23.2997C275.799 22.5998 279.999 23.5998 279.999 25.3997C279.999 26.1997 278.399 27.7997 276.499 28.9998C274.599 30.0998 271.899 32.4998 270.399 34.2997C264.899 40.8997 257.499 43.8997 252.899 41.5998C250.599 40.4998 250.199 40.4998 250.699 41.5998C250.899 42.2997 252.999 43.4998 255.299 44.2997L259.399 45.5998L255.699 47.8997C253.699 49.0998 251.999 50.2997 251.999 50.4998C251.999 50.6997 253.599 50.5998 255.499 50.2997C259.799 49.5998 259.899 50.6997 255.899 54.7997C251.799 58.9998 247.599 60.0998 243.099 58.2997C241.199 57.5998 239.499 57.1997 239.299 57.3997C238.399 58.1997 245.899 61.9998 248.399 61.9998H251.099L248.999 65.7997C247.799 67.8997 245.599 70.3997 244.199 71.2997L241.499 72.8997L243.899 72.9998H246.199L243.599 76.3997C240.099 80.9998 240.299 81.7997 244.099 78.5998C248.599 74.7997 250.399 75.0998 249.499 79.6997C248.399 85.4998 246.299 88.7997 241.699 91.5998C235.299 95.5998 232.499 99.8997 237.599 97.9998C240.999 96.6997 243.999 96.6997 243.999 98.0998C243.999 98.7997 242.399 100.9 240.399 102.8C238.499 104.7 237.099 106.5 237.499 106.8C237.799 107.1 238.599 106.8 239.199 106.2C239.899 105.5 240.999 105 241.699 105C243.899 105 243.099 107.5 239.899 110.6C238.199 112.2 235.899 115.3 234.799 117.5L232.799 121.5L236.199 118.2C238.099 116.5 240.399 115 241.299 115C242.799 115 242.999 115.7 242.399 120C241.999 123.3 242.099 125 242.799 125C243.399 125 244.199 124.5 244.599 123.9C244.999 123.1 245.599 123.2 246.399 124C247.199 124.9 246.899 125.6 244.999 127.1C240.499 130.5 239.299 132 238.199 135.7C236.599 140.8 237.399 140.9 240.199 135.8C242.899 130.8 245.399 130.3 248.299 134.2C250.099 136.6 250.099 137 248.599 139.1C247.699 140.4 246.999 142.4 246.999 143.5C247.099 145.3 247.199 145.3 248.099 143.8C250.299 140 252.399 139.9 255.299 143.5L257.899 146.8L254.899 152.7L251.799 158.7L252.999 166.9C254.999 180.5 254.099 185.9 247.099 201.7C237.799 222.5 234.499 226.8 215.499 242.5C191.999 261.9 191.999 262 183.999 283C176.399 303 175.999 303.7 169.199 305.5C152.099 310.3 149.799 311.9 143.999 323.2C141.599 327.8 138.799 332.8 137.699 334.4C134.899 338.4 122.799 346 117.699 346.9L113.499 347.6L116.599 348.4C119.499 349 125.099 348.2 129.399 346.5C130.999 345.8 131.099 346 130.099 347.8C127.099 353.5 119.999 355.6 113.999 352.5C109.499 350.2 108.899 348.1 111.099 343.2C112.899 339.3 112.899 338.8 111.499 336.2L109.899 333.5L110.299 336.4C110.599 338 109.799 341.9 108.599 345.1C106.699 350.5 106.599 351.2 107.999 353.7C109.099 355.6 110.799 356.7 113.999 357.5L118.399 358.6L115.199 359.9C112.599 361 111.099 361 108.099 360.1C103.499 358.8 102.199 357.4 100.499 351.8L99.099 347.5V351C98.999 356 102.299 360.9 107.099 362.8L110.999 364.3L107.299 366C105.199 366.9 102.899 368.4 102.099 369.3C100.299 371.5 100.599 371.5 106.399 368.5C109.099 367.1 112.499 366 113.899 366.1C115.899 366.1 115.299 366.6 111.399 368.1C108.599 369.2 105.499 370.9 104.399 372.1C102.799 373.9 103.099 373.8 108.099 371.6C114.799 368.4 115.999 368.4 115.999 371.2C115.999 375.5 110.399 381.9 106.699 382C103.599 382 105.399 384.5 108.799 384.8C110.599 385 111.999 385.4 111.999 385.6C111.999 385.9 110.699 388.1 108.999 390.4C106.199 394.6 104.499 395.6 96.499 398.1C88.399 400.5 80.499 405.9 82.399 407.7C82.699 408.1 83.699 407.5 84.499 406.3C86.799 403 91.299 401.7 98.999 402.2C103.799 402.4 106.499 403.1 107.699 404.2C109.199 405.8 109.099 406.1 105.999 408.7C98.899 414.5 94.999 418.8 94.999 420.6C95.099 422.3 95.199 422.3 96.299 420.3C97.699 417.8 101.199 415 105.799 412.6L109.099 410.9L107.599 413.9C106.699 415.5 105.999 417.9 105.999 419.2V421.4L107.599 419.2C108.399 418 110.399 416.3 111.999 415.5C114.799 414.1 114.999 414.1 117.899 417.2C120.699 420.3 120.999 420.3 122.799 418.7C123.799 417.8 125.799 417 127.299 417C130.999 417 132.499 412 131.599 401.9C130.999 394.3 130.999 394.2 133.199 394.8C134.899 395.2 135.199 395 134.699 393.6C134.299 392.6 133.699 390.1 133.399 388.1C132.899 384.7 133.199 383.9 137.599 378.8C144.699 370.7 150.699 360 152.599 352.3C153.499 348.5 155.299 343.2 156.599 340.5C158.799 335.7 168.299 324 169.899 324C170.399 324 170.999 327.9 171.299 332.7C171.999 343.8 173.399 347.6 181.699 360.8L188.499 371.5V381.5V391.5L182.099 405C173.999 422.2 173.699 424.6 178.399 436.8C181.499 444.8 190.499 474.3 193.099 485C193.599 486.9 193.999 492.8 193.999 498.1C193.999 504.8 194.399 508.1 195.299 508.8C198.699 511.7 220.599 512.8 222.999 510.4C224.899 508.5 220.399 498.3 215.999 494C213.699 491.8 211.399 490 210.899 490C209.299 490 206.099 482.2 201.499 467C196.399 449.9 196.099 445.3 198.499 430C199.899 421.8 201.199 418.1 208.399 403C212.999 393.4 218.199 381.8 219.999 377.3C223.199 369.5 223.499 369.1 225.899 369.6C230.099 370.6 232.899 372.8 233.599 375.7C235.199 382 231.399 393.2 222.399 408.1C218.599 414.4 218.099 418.8 220.799 421.8C221.699 422.8 228.099 428.2 234.899 433.6C250.399 445.9 266.099 461.2 268.799 466.6C269.899 468.8 271.899 471.1 273.299 471.7C275.899 472.9 277.999 478.9 277.999 485.4C277.999 488.2 279.999 492 281.399 492C281.599 492 284.199 492.5 287.099 493C292.499 494 299.499 493.6 301.999 492C303.099 491.3 303.099 490.4 301.999 486.3C300.999 482.8 299.099 479.8 294.899 475.5C291.799 472.2 287.299 466.3 284.899 462.4C281.699 457.4 276.599 451.8 266.799 442.7C247.799 425 247.599 424.8 248.299 418.4C249.099 411 252.099 404.8 258.399 397.8C261.399 394.5 265.299 389 266.899 385.6C272.699 373.9 275.999 365.7 277.599 359.6C278.399 356.3 279.999 352 281.099 350.2C283.499 346 283.499 341.7 281.099 334.9C274.099 315.5 273.799 314.4 274.299 310.7C274.799 307.3 276.899 304.9 292.799 289.2C313.199 269.1 316.899 263.8 334.199 230.5L343.599 212.5L347.599 212.2C350.699 211.9 352.499 210.9 356.699 206.8L361.899 201.7L362.499 205.6C362.799 207.7 363.299 211.1 363.599 213C364.799 221.6 366.199 222 373.099 215.5C375.699 213 378.599 211 379.399 211C380.199 211 382.699 208 384.899 204.2C387.099 200.5 390.399 195.9 392.399 194.1C395.399 191.2 395.999 189.9 395.999 186.4C395.999 184 395.599 181 395.099 179.7C393.999 176.9 395.099 176 399.499 176C401.499 176 402.599 177.5 406.499 185.2C409.599 191.6 411.399 196.7 412.099 201.5C412.699 205.3 414.099 210.4 415.099 212.8C417.499 218.3 417.499 218.9 414.599 221.9C412.599 224 412.099 225.7 411.799 230.9C411.499 237.1 411.599 237.3 415.199 240.2C418.099 242.6 419.799 243.2 424.199 243.4L429.499 243.5L429.799 238C429.899 235 429.399 228.2 428.699 223C427.699 216.6 427.599 212.7 428.199 210.8C429.399 207.4 428.599 204.8 420.899 187.2C417.699 179.9 414.799 172.3 414.399 170.4C413.699 166.6 409.499 161.8 404.799 159.4C401.799 157.9 398.399 157.9 394.799 159.5C393.199 160.1 392.999 159.4 392.999 151.6V143L388.699 138.6C382.299 131.9 380.999 131.9 366.999 138.3L354.899 143.8L350.899 139.5C348.699 137.1 344.299 133.2 341.199 131C333.299 125.2 330.699 121.1 327.099 109C325.399 103.2 322.499 93.7997 320.499 88.0998C315.499 73.0998 315.899 68.6997 321.999 70.8997C326.799 72.4998 330.799 72.2997 333.799 70.1997C339.499 66.1997 347.599 64.7997 348.599 67.4998C349.399 69.4998 352.499 69.3997 357.599 67.2997C362.799 65.0998 365.599 60.3997 366.599 52.0998L367.299 45.8997L362.399 41.1997C357.999 36.9998 343.799 28.5998 329.799 21.8997C324.699 19.4998 324.199 18.0998 326.499 13.9998C327.299 12.5998 327.899 10.5998 327.999 9.59976C327.999 7.99976 327.299 8.29974 324.599 11.2997C322.799 13.2997 320.399 14.9998 319.399 14.9998C317.599 14.8997 317.599 14.8997 319.299 13.8997C321.699 12.4998 321.499 11.0998 318.899 11.6997C317.399 12.0998 316.699 11.6997 316.299 10.1997C315.799 8.29974 315.299 8.09976 311.099 8.59976C308.599 8.89975 305.299 10.0998 303.799 11.0998L300.999 13.0998L300.899 7.79974C300.799 2.69974 300.699 2.59976 299.999 6.29974C299.599 8.29974 298.999 10.2997 298.599 10.6997C297.599 11.6997 295.999 8.99976 295.999 6.29974C295.999 5.09976 295.599 3.79974 294.999 3.49976C294.399 3.09976 293.999 4.29974 293.999 6.49976V9.99976L289.799 7.89975C287.399 6.69974 284.299 4.89975 282.799 3.89975C279.599 1.59976 278.999 1.49976 278.999 3.49976ZM378.899 150.4C380.099 151.9 382.599 162.8 381.799 163.5C380.999 164.3 365.899 168.6 361.799 169.3C359.699 169.6 357.999 169.5 357.999 169.1C357.999 167.7 375.099 149 376.399 149C377.199 149 378.299 149.6 378.899 150.4ZM377.999 193C377.399 194.1 376.199 195 375.299 195C373.899 195 373.899 194.8 375.499 193C376.499 191.9 377.699 191 378.199 191C378.699 191 378.599 191.9 377.999 193Z" fill="black"/>
<path d="M109.098 331.6C109.098 332.7 109.398 333 109.698 332.2C109.998 331.5 109.898 330.6 109.598 330.3C109.298 329.9 108.998 330.5 109.098 331.6Z" fill="black"/>
</svg>
