<svg width="210" height="99" viewBox="0 0 210 99" fill="none" xmlns="http://www.w3.org/2000/svg">
<path d="M74.8991 15.1059C74.6868 15.3339 74.4942 15.8488 74.1758 17.0438C73.9046 18.0619 73.9203 18.0148 73.6294 18.7145C72.9415 20.3733 72.5917 21.8356 72.7017 22.61C72.7568 22.9991 72.8432 23.2782 73.1184 23.9229C73.4447 24.6894 73.4918 24.886 73.5351 25.57C73.5862 26.3168 73.5429 26.6313 73.366 26.875C73.0987 27.2445 72.7961 27.4096 71.9942 27.618C71.1529 27.8381 70.7677 28.0346 69.9933 28.64C69.6592 28.8994 69.1049 29.2925 68.7669 29.5087C67.9846 30.0079 67.5365 30.3421 66.5302 31.1754C65.3156 32.1857 64.9696 32.4333 64.1874 32.8461C63.8022 33.0465 63.1968 33.3689 62.8391 33.5576C61.8839 34.0686 59.4113 35.2557 59.0222 35.3933C58.6487 35.5269 58.1181 35.6449 57.5913 35.7156C57.3987 35.7431 56.9545 35.8532 56.6086 35.9593C56.2627 36.0694 55.7163 36.2227 55.39 36.3053C54.5921 36.5057 54.2579 36.6354 53.3617 37.0875C52.2414 37.6536 50.3427 38.7267 49.5723 39.2377C48.6918 39.8155 47.4614 41.0263 45.1264 43.6167C43.2632 45.6805 42.9841 45.9517 41.4157 47.2332C40.032 48.3613 39.4738 48.8252 39.0493 49.2025C38.6955 49.517 38.0665 49.9101 35.8927 51.1719C31.5216 53.7034 26.4664 56.3764 22.5277 58.2358C21.0536 58.9315 20.3185 59.3521 19.3672 60.0558C18.1526 60.952 16.6588 62.3396 15.4285 63.7076L15.0511 64.1282L15.0275 64.9065C15.0118 65.331 15 69.486 15 74.1363V82.5916L15.0943 82.7921C15.2083 83.0397 15.4678 83.2638 15.7233 83.3385C15.8962 83.3896 20.9357 83.3975 57.5166 83.3975H99.1174L99.3336 83.3188C99.5852 83.2245 99.8682 82.9415 99.9507 82.7056C99.99 82.5916 100.006 82.3243 100.006 81.6679C100.006 80.8188 100.002 80.7755 99.9154 80.5987C99.8643 80.4965 99.7424 80.3392 99.6441 80.2527C99.3021 79.9501 100.709 79.9776 84.5337 79.9776H70.0012L70.0523 79.8046C70.2449 79.1678 70.3392 77.3242 70.2685 75.5081C70.241 74.777 70.2095 73.2479 70.2017 72.104C70.1741 69.4899 70.2174 68.9553 70.5279 67.6974C70.8149 66.5378 71.1687 65.6141 71.7347 64.5291C72.3283 63.3892 72.3479 63.342 72.4344 63.0157C72.5091 62.7366 72.5248 62.548 72.5484 61.3451C72.5917 59.2617 72.6152 59.2067 73.9478 57.9645C74.1522 57.7758 74.2977 57.599 74.3606 57.4732C74.447 57.2923 74.4549 57.2373 74.4431 56.7735C74.4313 56.3018 74.4392 56.2585 74.5374 56.0384C74.6711 55.7357 74.8598 55.5667 75.0524 55.5667C75.3983 55.5667 75.7403 55.9165 76.2985 56.8521C76.7309 57.5714 77.2223 58.2318 78.0713 59.2224C78.9086 60.1973 79.0855 60.4253 79.8402 61.5023C80.7522 62.7956 80.9055 63.0393 81.4362 64.0574C82.3246 65.7516 82.3403 65.7949 82.7334 67.3987C82.8828 68.0158 83.0361 68.5937 83.0714 68.6841C83.1697 68.9514 83.3623 69.1401 83.72 69.3248C84.2232 69.5843 84.6399 69.8241 85.029 70.0756C85.2256 70.1975 85.5872 70.3862 85.8349 70.4844C86.4638 70.7439 86.6721 70.854 87.0299 71.1252C87.4387 71.4357 87.6038 71.4868 88.2406 71.4868C88.5197 71.4868 88.9442 71.5143 89.1801 71.5497C89.526 71.6008 89.6596 71.6048 89.8601 71.5694C90.2335 71.5026 91.4678 71.1606 91.8373 71.0151C92.4506 70.7793 92.9144 70.398 93.5394 69.6196C93.677 69.4467 93.9876 69.1008 94.2313 68.8492C94.4711 68.5976 94.7148 68.3146 94.7698 68.2202C94.8248 68.1259 94.927 67.8507 94.9939 67.6149C95.0607 67.3751 95.214 66.8719 95.3319 66.4946C95.6385 65.5197 95.8154 64.8279 95.8429 64.5095C95.8744 64.136 95.7565 62.7602 95.6621 62.3907C95.5127 61.805 95.1393 61.2508 94.5929 60.8066C94.2666 60.5393 94.0426 60.3034 93.9561 60.1383C93.9247 60.0754 93.8696 59.8592 93.8343 59.6548C93.7949 59.4504 93.6888 59.0416 93.5945 58.7507C93.2328 57.6186 93.221 57.5636 93.1857 56.5494C93.1503 55.5667 93.1306 55.4487 92.8869 54.6626C92.8083 54.4149 92.6589 53.8803 92.5567 53.4794C92.3287 52.6067 92.2344 52.3512 91.9042 51.7537C91.6172 51.2309 91.5425 50.9636 91.4167 50.0241C91.3263 49.3165 91.2792 49.0532 91.1927 48.7937L91.1337 48.605L91.4128 47.7717C91.684 46.9541 91.6919 46.9266 91.7312 46.3448C91.7745 45.7119 91.8256 45.3817 92.0064 44.4815C92.0693 44.1671 92.1911 43.5303 92.2815 43.0664C92.6235 41.2739 92.879 40.527 93.5787 39.3124C94.1487 38.3257 94.302 37.9012 94.302 37.3469C94.2981 36.7298 94.2077 36.4782 93.3429 34.6936C93.0009 33.99 92.6314 33.192 92.5213 32.9129C92.0653 31.7886 91.6487 30.9396 91.2163 30.2635C90.7524 29.548 90.6935 29.3987 90.6935 28.9938C90.6895 28.4985 90.8153 28.2823 91.4089 27.7162C92.6353 26.5488 93.0206 26.1085 93.2603 25.5935C93.4883 25.114 93.4805 25.2555 93.4726 21.0337C93.4687 17.15 93.4687 17.1421 93.3822 16.918C93.339 16.7962 93.2682 16.6547 93.2289 16.6036L93.1542 16.5171L93.0048 16.6154C92.8437 16.7254 92.7533 16.8434 92.482 17.3111C92.313 17.6059 92.144 17.7553 91.6919 18.0226C91.574 18.0934 91.2123 18.3685 90.8939 18.6319C90.5716 18.8992 90.1392 19.2176 89.9309 19.3434C89.7186 19.4692 89.4159 19.6736 89.2548 19.7915C88.8027 20.1257 87.8514 21.1005 87.0731 22.0361C85.7641 23.6084 85.3671 23.9897 85.0015 24.029C84.86 24.0448 84.7853 24.0251 84.518 23.8836C83.7908 23.5062 83.6296 23.4787 82.3757 23.5338C81.047 23.5927 80.3277 23.5888 79.9896 23.518C79.4118 23.3922 79.0069 23.1053 78.8103 22.6807C78.7317 22.5117 78.7003 22.3388 78.657 21.9064C78.6217 21.5369 78.5627 21.2067 78.4841 20.9354C78.4173 20.7074 78.3308 20.3026 78.2875 20.0313C78.1578 19.1822 77.9534 18.6162 77.5721 18.0541C77.3716 17.7632 77.01 17.374 76.7309 17.1578C76.4793 16.9652 76.3103 16.7294 75.988 16.1201C75.532 15.2631 75.3276 14.9998 75.1074 14.9998C75.0406 14.9998 74.962 15.0391 74.8991 15.1059ZM88.2209 30.3775C88.6494 30.574 88.8577 31.0614 89.2037 32.6456C89.2901 33.0465 89.3059 33.2234 89.3216 34.1236C89.3491 35.4837 89.3019 36.1519 89.1604 36.4389C88.9835 36.8005 88.7201 36.9696 88.5118 36.8556C88.4017 36.8005 88.2131 36.4821 88.0755 36.1284C87.7964 35.4051 87.7256 35.3186 86.9237 34.6779C86.3931 34.2494 86.3302 34.1393 86.3105 33.5615C86.2948 33.0465 86.338 32.7045 86.5267 31.8869C86.6014 31.5607 86.6721 31.1558 86.6879 30.9907C86.7075 30.7391 86.7193 30.6919 86.7626 30.7273C86.8058 30.7627 86.853 30.7391 86.9748 30.633C87.364 30.2792 87.8121 30.1848 88.2209 30.3775ZM89.7736 52.135C89.9191 52.2883 89.9584 52.3551 89.9702 52.5006C89.9898 52.6853 90.5402 54.2695 90.9726 55.3701C91.2516 56.0895 91.3499 56.2624 91.7312 56.7459C92.0811 57.1901 92.1479 57.3316 92.2619 57.878C92.3838 58.4952 92.4466 58.6524 92.993 59.757C93.2486 60.2759 93.5237 60.893 93.6023 61.1328C93.732 61.5102 93.7517 61.6163 93.7674 62.033L93.7831 62.5047L93.622 62.8074C93.5316 62.9764 93.4254 63.2044 93.3783 63.3184C93.335 63.4324 93.2407 63.6683 93.166 63.8412C93.0952 64.0142 92.9852 64.3404 92.9301 64.5684C92.7611 65.2485 92.5056 65.8814 92.3798 65.9285C92.2855 65.9639 92.1675 65.8696 91.9238 65.563C91.4678 64.989 91.0512 64.5684 90.7878 64.4112C90.434 64.2029 90.3829 64.14 90.3633 63.8648C90.3357 63.4639 90.4222 63.0983 90.6502 62.662C90.8743 62.2296 90.9922 61.9072 91.0865 61.463C91.1691 61.066 91.2123 58.7782 91.1416 58.3065C91.0748 57.8348 90.8704 57.2727 90.4537 56.3882C90.0409 55.5195 89.9977 55.3859 89.9034 54.7608C89.8601 54.466 89.7618 54.1083 89.6046 53.6405C89.3294 52.8386 89.2154 52.3984 89.2154 52.135V51.9502H89.4041C89.5771 51.9502 89.6046 51.966 89.7736 52.135Z" fill="white"/>
<path d="M113.334 20.2549C113.299 20.3807 110.48 34.4612 110.48 34.5202C110.48 34.5634 110.587 34.5752 111.066 34.5752C111.593 34.5752 111.656 34.5673 111.675 34.5044C111.699 34.4298 112.446 30.7465 112.446 30.7072C112.446 30.6954 113.22 30.6875 114.164 30.6915L115.882 30.7033L116.263 32.5115C116.475 33.506 116.656 34.3787 116.672 34.4455L116.695 34.5752H117.301C117.69 34.5752 117.91 34.5595 117.91 34.5359C117.91 34.5123 117.238 31.285 116.416 27.3581C115.595 23.4311 114.922 20.2156 114.922 20.2038C114.922 20.196 114.569 20.1881 114.14 20.1881C113.425 20.1881 113.354 20.196 113.334 20.2549ZM114.946 26.0451C115.367 28.0224 115.709 29.6458 115.709 29.6498C115.709 29.6576 115.021 29.6616 114.176 29.6616C112.874 29.6616 112.642 29.6537 112.642 29.6065C112.642 29.5751 112.89 28.3408 113.189 26.8628C114.223 21.8037 114.132 22.2204 114.168 22.3697C114.176 22.413 114.525 24.0679 114.946 26.0451Z" fill="white"/>
<path d="M122.473 27.3816V34.5791L123.054 34.5673L123.632 34.5555L123.652 29.8384L123.672 25.1214L124.953 29.8384L126.235 34.5555H126.997H127.76L128.947 29.8581L130.13 25.1607L130.146 29.8581L130.158 34.5555H130.747H131.337V27.3816V20.2077H130.787H130.24L128.625 26.4657C127.74 29.9053 127.001 32.7119 126.989 32.6962C126.977 32.6805 126.262 29.9171 125.401 26.5561C124.54 23.1952 123.821 20.3846 123.801 20.3139L123.766 20.1881H123.121H122.473V27.3816Z" fill="white"/>
<path d="M136.377 20.2156C136.369 20.2353 136.369 23.4704 136.377 27.4092L136.389 34.5752H139.14H141.888V33.9856V33.3959H139.706H137.525V30.7426V28.0892H139.471H141.416V27.5782V27.0672H139.471H137.525V24.2173V21.3674H139.706H141.888V20.7777V20.1881H139.14C137.627 20.1881 136.385 20.1999 136.377 20.2156Z" fill="white"/>
<path d="M146.613 27.3698L146.625 34.5555L147.207 34.5673L147.785 34.5791V31.3322V28.0892H148.799C149.353 28.0892 149.923 28.1088 150.065 28.1285C150.662 28.2228 151.275 28.6788 151.531 29.2174L151.657 29.4847L151.668 32.0279L151.68 34.5752H152.27H152.86L152.848 31.9493L152.836 29.3274L152.714 29.0287C152.502 28.5019 152.132 28.0263 151.645 27.6529L151.515 27.5506L151.834 27.2401C152.231 26.8549 152.482 26.4854 152.624 26.0687L152.738 25.7503V24.3155C152.738 23.034 152.73 22.8493 152.663 22.5663C152.392 21.4538 151.61 20.648 150.446 20.2981C150.179 20.2156 150.073 20.2117 148.382 20.1959L146.605 20.1841L146.613 27.3698ZM150.69 21.5049C150.953 21.6504 151.138 21.8626 151.307 22.2086C151.511 22.6331 151.523 22.7471 151.511 24.3588L151.499 25.8289L151.374 26.0962C151.228 26.4068 150.929 26.7173 150.631 26.8785C150.269 27.075 150.029 27.1065 148.858 27.1065H147.785V24.233V21.3634L149.133 21.3752L150.477 21.387L150.69 21.5049Z" fill="white"/>
<path d="M158.086 27.3816V34.5752H158.695H159.305V27.3816V20.1881H158.695H158.086V27.3816Z" fill="white"/>
<path d="M167.754 20.2276C166.477 20.4085 165.302 21.2339 164.897 22.2363C164.677 22.7827 164.684 22.5429 164.696 27.5234L164.708 32.1186L164.818 32.4331C165.235 33.6202 166.39 34.4772 167.806 34.654C169.472 34.8624 171.013 33.8718 171.414 32.3387C171.473 32.1186 171.501 31.8513 171.516 31.3206L171.54 30.6052H170.923H170.31V31.2302C170.31 32.1304 170.192 32.4527 169.688 32.9362C169.005 33.5848 168.034 33.687 167.055 33.2153C166.587 32.9873 166.218 32.6414 166.021 32.2365L165.887 31.9614V27.4408V22.9203L166.013 22.6648C166.186 22.3189 166.402 22.0791 166.752 21.8432C167.574 21.2968 168.568 21.2261 169.323 21.6703C169.563 21.8079 169.885 22.1184 170.03 22.3464C170.251 22.6884 170.282 22.826 170.306 23.5492L170.329 24.2175H170.919H171.508L171.505 23.5689C171.501 22.7827 171.438 22.4486 171.194 21.9651C170.667 20.9195 169.633 20.2669 168.411 20.2119C168.191 20.2001 167.896 20.208 167.754 20.2276Z" fill="white"/>
<path d="M178.862 20.2353C178.85 20.2628 178.205 23.4625 177.427 27.3423C176.649 31.2221 176.004 34.4376 175.992 34.4848L175.973 34.5752H176.582C176.916 34.5752 177.191 34.5673 177.191 34.5595C177.191 34.5398 177.93 30.8959 177.958 30.7701L177.977 30.6836H179.683H181.389L181.409 30.7701C181.421 30.8212 181.602 31.6663 181.81 32.6491C182.018 33.6318 182.195 34.4691 182.207 34.5044C182.227 34.5673 182.29 34.5752 182.84 34.5752H183.449L183.43 34.4848C183.418 34.4376 182.742 31.2143 181.928 27.3227C181.114 23.4311 180.438 20.2353 180.43 20.2195C180.419 20.2038 180.065 20.1881 179.644 20.1881C179.066 20.1881 178.874 20.1999 178.862 20.2353ZM180.454 25.994L181.228 29.6419L179.695 29.6537C178.85 29.6576 178.158 29.6576 178.15 29.6537C178.143 29.6419 178.685 26.9768 179.455 23.2267C179.558 22.7235 179.652 22.3186 179.66 22.3304C179.672 22.3422 180.029 23.9893 180.454 25.994Z" fill="white"/>
<path d="M188.164 27.3698L188.176 34.5555L188.754 34.5673L189.336 34.5791L189.343 28.8596L189.355 23.1402L191.537 28.8478L193.722 34.5555L194.241 34.5673L194.76 34.5791V27.3816V20.1841L194.182 20.1959L193.601 20.2077L193.581 25.6717L193.561 31.1356L191.517 25.6717L189.469 20.2077L188.813 20.1959L188.156 20.1881L188.164 27.3698Z" fill="white"/>
<path d="M69.9926 24.8707C68.0547 25.0004 65.1026 25.4957 62.7401 26.0893C62.3942 26.1757 60.8218 26.6789 59.2416 27.2056C57.6653 27.7324 56.0694 28.2434 55.6959 28.3417C54.8626 28.5657 54.5756 28.664 53.9663 28.9549C52.6102 29.5996 51.0064 30.7434 49.1982 32.3551C48.5574 32.9251 48.0778 33.3771 46.9182 34.5171C45.8412 35.5745 45.6407 35.7278 43.1642 37.3985C42.1107 38.11 41.0769 38.8529 40.676 39.1831C40.5305 39.301 40.1099 39.6941 39.7404 40.0479C38.9739 40.783 38.6162 41.066 37.6413 41.691C36.5446 42.3946 36.0178 42.8388 35.2474 43.7154C34.7993 44.2225 34.6381 44.4308 34.131 45.1699C33.7929 45.6612 33.6514 45.8224 32.7788 46.6872C31.4973 47.9569 31.1789 48.2477 30.6639 48.629C29.4454 49.5371 28.7417 49.8673 27.0043 50.3429C25.8132 50.6692 25.4319 50.7989 24.9681 51.0387C24.2251 51.42 24.0836 51.648 22.9712 54.2306C22.6685 54.9342 22.3186 55.7086 22.1968 55.9484C22.071 56.1921 21.9767 56.3926 21.9806 56.3926C21.9884 56.3926 22.1496 56.2904 22.3383 56.1685C22.527 56.0427 22.9397 55.7951 23.2542 55.6143C23.9382 55.2251 26.7527 53.8021 27.6372 53.4051C28.9855 52.7997 29.862 52.3084 30.3652 51.876C31.4855 50.9208 32.0201 50.5748 34.0681 49.4821C35.7387 48.5897 37.4644 47.5441 38.172 46.9977C38.3017 46.8955 38.7341 46.5968 39.1311 46.3295C40.3379 45.5197 40.8528 45.0401 41.6233 44.0024C42.5078 42.8113 43.5927 41.7382 45.6603 40.0204C45.9945 39.7413 46.8278 38.963 47.5079 38.2947C48.1879 37.6225 48.9151 36.9385 49.1195 36.7734C49.3239 36.6083 49.7642 36.3096 50.0983 36.1091C50.7705 35.7082 51.2462 35.3976 52.1267 34.7765C52.4529 34.5486 52.9482 34.2184 53.2352 34.0415C53.8484 33.6641 54.2572 33.5147 55.2714 33.2985C55.6409 33.2199 56.1716 33.0981 56.4507 33.0234C56.7337 32.9487 57.2801 32.8268 57.6692 32.7482C58.5616 32.5713 59.2534 32.3905 59.9295 32.1586C60.7196 31.8873 61.1874 31.7301 61.777 31.5493C62.6143 31.2859 62.9878 31.0776 63.939 30.3268C64.9021 29.5642 65.7866 28.947 67.0248 28.1805C67.6302 27.8031 69.2615 26.8007 69.8157 26.4627C70.2363 26.2033 71.0343 25.8298 72.2804 25.2952C72.8189 25.0672 73.0312 24.9572 72.984 24.9375C72.7167 24.8392 71.0265 24.8038 69.9926 24.8707Z" fill="white"/>
<path d="M110.267 39.2611C110.255 39.2886 110.251 44.9295 110.255 51.7928L110.267 64.2734H111.898H113.53L113.542 58.9942L113.549 53.719H115.77H117.991L117.999 58.9942L118.011 64.2734H119.642H121.274L121.285 51.7417L121.293 39.2139L119.654 39.2218L118.011 39.2336L117.999 44.843L117.991 50.4563H115.77H113.549V44.8351V39.2139H111.918C110.648 39.2139 110.279 39.2257 110.267 39.2611Z" fill="white"/>
<path d="M133.863 39.257C132.365 39.4024 130.911 40.0432 129.916 40.9944C129.094 41.7767 128.603 42.6611 128.426 43.6714C128.375 43.978 128.367 44.9804 128.367 51.8319C128.367 60.421 128.355 59.9414 128.607 60.6922C128.882 61.5216 129.405 62.2763 130.117 62.8738C131.889 64.3794 134.499 64.855 136.838 64.1081C138.674 63.5224 140.066 62.2528 140.588 60.6922C140.84 59.9414 140.828 60.421 140.828 51.8319C140.828 44.9804 140.82 43.978 140.769 43.6714C140.592 42.6611 140.101 41.7767 139.279 40.9944C137.943 39.713 135.903 39.0604 133.863 39.257ZM135.148 42.4371C136.28 42.5668 137.176 43.066 137.554 43.7775L137.664 43.9898L137.676 51.773C137.687 60.4878 137.711 59.7213 137.393 60.1576C137.074 60.59 136.485 60.9438 135.769 61.1364C135.419 61.2307 135.317 61.2425 134.676 61.2425C134.036 61.2425 133.933 61.2307 133.584 61.1364C132.711 60.9005 132.113 60.476 131.783 59.851L131.689 59.6741L131.677 51.9027L131.669 44.1313L131.752 43.9151C131.972 43.3255 132.624 42.8223 133.497 42.5747C134.067 42.4135 134.566 42.3742 135.148 42.4371Z" fill="white"/>
<path d="M171.844 39.2419C169.332 39.4895 167.327 41.1287 166.749 43.4086C166.592 44.0297 166.568 44.5368 166.588 46.7892C166.604 48.507 166.615 48.9158 166.67 49.1595C167.13 51.2862 168.797 52.8664 171.069 53.3302C171.297 53.3735 171.761 53.4246 172.138 53.4442C172.897 53.4875 173.235 53.5622 173.667 53.7901C174.167 54.0535 174.528 54.4623 174.678 54.9419C174.748 55.162 174.752 55.3271 174.752 57.21C174.752 59.4113 174.748 59.4388 174.532 59.887C174.363 60.2368 173.895 60.6771 173.491 60.8736C172.724 61.2392 171.914 61.2392 171.136 60.8658C170.7 60.6574 170.228 60.2014 170.047 59.8123C169.855 59.4035 169.839 59.2541 169.839 57.7643V56.3924L168.219 56.4003L166.596 56.4121V57.9451C166.6 59.2305 166.612 59.5371 166.667 59.8516C166.8 60.5592 167.083 61.2628 167.488 61.876C167.767 62.3005 168.581 63.1103 169.013 63.3933C170.57 64.4154 172.433 64.6709 174.167 64.097C176.337 63.3776 177.811 61.5851 178.011 59.4153C178.066 58.8414 178.066 55.5433 178.015 55.0127C177.901 53.8845 177.457 52.9686 176.62 52.1274C175.59 51.0896 174.084 50.4253 172.406 50.2602C171.215 50.1462 170.385 49.6981 170.031 48.9787L169.898 48.7075L169.886 46.5651C169.878 45.1697 169.89 44.356 169.917 44.2302C170.043 43.6445 170.531 43.0548 171.136 42.7561C172.083 42.2923 173.2 42.418 174.009 43.0784C174.269 43.2907 174.56 43.6995 174.682 44.0297C174.768 44.2577 174.772 44.3206 174.784 45.7868L174.796 47.312H176.431H178.062L178.043 45.6886C178.019 43.9157 178.003 43.731 177.771 43.0313C177.28 41.5493 176.109 40.3071 174.619 39.6861C173.778 39.3323 172.681 39.1554 171.844 39.2419Z" fill="white"/>
<path d="M185.129 51.7534V64.293L190.035 64.2851L194.937 64.2733L194.948 62.6499L194.956 61.0303H191.654H188.352V57.3746V53.7188H191.241H194.131V52.0875V50.4562H191.241H188.352V46.4663V42.4765H191.654H194.956V40.8451V39.2138H190.043H185.129V51.7534Z" fill="white"/>
<path d="M148.344 51.8207L148.356 64.3524L149.999 64.3642L151.638 64.3721V59.1243V53.8766H152.849C153.537 53.8766 154.162 53.8962 154.295 53.9198C154.421 53.9434 154.673 54.0299 154.853 54.1163C155.364 54.364 155.718 54.7571 155.934 55.3231L156.021 55.5472L156.041 59.9498L156.06 64.3524H157.691H159.323L159.335 60.0874C159.342 57.1196 159.331 55.7044 159.303 55.4293C159.166 54.2068 158.662 53.1022 157.853 52.2295L157.656 52.0172L157.813 51.8364C158.242 51.3529 158.717 50.4999 158.922 49.8435C159.166 49.0691 159.166 49.0848 159.166 46.4472C159.166 44.0847 159.162 44.0218 159.075 43.6287C158.596 41.4549 157.098 39.9494 154.865 39.3991C154.539 39.3204 154.421 39.3165 151.43 39.3047L148.336 39.289L148.344 51.8207ZM154.287 42.6538C155.062 42.8582 155.687 43.4911 155.84 44.238C155.911 44.576 155.899 48.4794 155.824 48.8175C155.667 49.5644 155.093 50.2365 154.397 50.4803C154.142 50.5707 154.099 50.5746 152.888 50.5746H151.638V46.5847V42.5949H152.849C153.808 42.5949 154.107 42.6067 154.287 42.6538Z" fill="white"/>
<path d="M110.363 76.0818V83.2793H110.953H111.543V80.2171V77.151L112.793 77.1392L114.039 77.1274L114.353 77.0174C115.371 76.6597 116.043 75.96 116.366 74.9261L116.472 74.5723V73.059C116.472 71.6163 116.468 71.5298 116.385 71.2311C116.079 70.1226 115.257 69.3049 114.157 69.0023C113.862 68.9197 113.744 68.9158 112.105 68.9001L110.363 68.8883V76.0818ZM113.685 70.1108C114.31 70.213 114.896 70.6965 115.167 71.3333C115.253 71.5377 115.257 71.5927 115.269 72.9528C115.281 74.1675 115.273 74.3915 115.218 74.5841C115.065 75.107 114.687 75.5511 114.184 75.7988L113.885 75.9482L112.714 75.96L111.543 75.9717V73.0236V70.0715H112.498C113.021 70.0715 113.555 70.0911 113.685 70.1108Z" fill="white"/>
<path d="M123.066 76.0739L123.078 83.2596L123.66 83.2714L124.238 83.2832V80.0323V76.7854L125.39 76.8011C126.427 76.8169 126.561 76.8287 126.793 76.9033C127.41 77.1038 127.878 77.5598 128.055 78.1337C128.126 78.3578 128.129 78.5268 128.129 80.8264V83.2793H128.719H129.309V80.7714C129.309 79.2501 129.293 78.1966 129.269 78.0905C129.132 77.4773 128.692 76.8208 128.118 76.3766L127.964 76.2587L128.287 75.9481C128.656 75.5865 128.908 75.2288 129.065 74.8436L129.171 74.5723V73C129.171 71.459 129.171 71.4197 129.081 71.1328C128.935 70.6689 128.699 70.2601 128.397 69.9339C127.949 69.4543 127.501 69.1791 126.891 69.0062C126.592 68.9236 126.498 68.9158 124.816 68.9L123.059 68.8843L123.066 76.0739ZM127.088 70.1894C127.359 70.3191 127.595 70.5785 127.752 70.9127C127.964 71.3529 127.98 71.5062 127.964 73.0982L127.953 74.533L127.827 74.8003C127.599 75.2838 127.092 75.673 126.561 75.7712C126.447 75.7909 125.873 75.8106 125.295 75.8106H124.238V72.9371V70.0675L125.567 70.0793C126.883 70.0911 126.891 70.0911 127.088 70.1894Z" fill="white"/>
<path d="M139.846 68.9358C138.365 69.1048 137.107 70.0954 136.839 71.2982C136.784 71.5537 136.78 72.0805 136.788 76.263L136.8 80.9407L136.906 81.2277C137.37 82.4974 138.718 83.3504 140.279 83.3622C141.399 83.37 142.331 83.0084 143.054 82.2773C143.349 81.9824 143.443 81.8566 143.577 81.5815C143.868 80.984 143.856 81.2356 143.856 76.145C143.856 71.0624 143.868 71.2904 143.581 70.7165C143.4 70.347 142.999 69.891 142.618 69.6197C142.119 69.262 141.431 69.0105 140.739 68.9358C140.318 68.8886 140.271 68.8886 139.846 68.9358ZM141.01 70.1347C141.663 70.2723 142.284 70.7086 142.527 71.2039L142.657 71.4673V76.145V80.8228L142.527 81.0862C142.288 81.5775 141.651 82.0257 141.006 82.1593C140.652 82.234 139.984 82.234 139.634 82.1593C138.982 82.0217 138.349 81.5775 138.109 81.0862L137.979 80.8228V76.1254V71.428L138.113 71.1803C138.585 70.3116 139.78 69.8792 141.01 70.1347Z" fill="white"/>
<path d="M153.23 68.9394C153.218 68.9669 153.206 71.6949 153.202 75.0047L153.19 81.019L153.096 81.2234C152.986 81.475 152.691 81.758 152.412 81.8838C152.019 82.0646 151.61 82.1354 150.608 82.2022L150.262 82.2258V82.7526V83.2793H150.942C152.266 83.2793 153.002 83.067 153.599 82.5128C153.917 82.214 154.126 81.8996 154.263 81.4947L154.37 81.1763L154.381 75.0323L154.389 68.8922H153.819C153.399 68.8922 153.241 68.904 153.23 68.9394Z" fill="white"/>
<path d="M162.527 76.0857V83.2793H165.279H168.031V82.6897V82.1H165.869H163.707V79.4467V76.7933H165.633H167.559V76.2823V75.7713H165.633H163.707V72.9214V70.0715H165.869H168.031V69.4818V68.8922H165.279H162.527V76.0857Z" fill="white"/>
<path d="M178.211 68.9358C177.582 69.0105 176.985 69.2306 176.458 69.5804C175.864 69.9775 175.408 70.5553 175.192 71.1921L175.086 71.5066V76.1451V80.7835L175.192 81.098C175.585 82.2537 176.686 83.1185 178.034 83.3386C178.691 83.4447 179.312 83.3858 179.905 83.1578C180.601 82.8905 181.254 82.3008 181.572 81.6562C181.839 81.1098 181.875 80.9329 181.894 80.0642L181.914 79.3094H181.305H180.695L180.68 80.0445L180.668 80.7835L180.534 81.0548C180.353 81.4321 179.976 81.8016 179.587 81.9903C179.099 82.2262 178.675 82.2733 178.105 82.1554C177.346 81.9982 176.729 81.554 176.399 80.9211L176.305 80.7442V76.1647V71.5852L176.411 71.3533C176.576 71.0074 177.004 70.5986 177.425 70.3941C177.861 70.1819 178.187 70.0993 178.624 70.0993C179.449 70.0954 180.165 70.5239 180.518 71.2432L180.668 71.542L180.687 72.2299L180.707 72.9217H181.297H181.886L181.882 72.2142C181.882 71.4398 181.843 71.2196 181.627 70.7479C181.411 70.2723 181.01 69.7966 180.558 69.4861C179.925 69.0537 179.005 68.8375 178.211 68.9358Z" fill="white"/>
<path d="M188.774 68.9197C188.758 68.9315 188.746 69.1988 188.746 69.5093V70.0715H190.024H191.301V76.6754V83.2793H191.891H192.48V76.6754V70.0715H193.738H195L194.988 69.4897L194.977 68.9118L191.887 68.9001C190.189 68.8961 188.785 68.904 188.774 68.9197Z" fill="white"/>
</svg>
