<svg width="37" height="38" viewBox="0 0 37 38" fill="none" xmlns="http://www.w3.org/2000/svg">
<path d="M11.8597 33C10.0126 33 8.28252 32.2071 7.03392 30.9428C4.61244 28.4913 3.93814 24.2127 7.3325 20.7769L21.2585 6.67656C22.67 5.24795 24.4657 4.69508 26.1843 5.16224C27.8744 5.61939 29.2573 7.02085 29.7101 8.73089C30.1701 10.4738 29.6258 12.2924 28.2158 13.721L14.8969 27.207C14.1369 27.977 13.2769 28.4328 12.414 28.5242C11.5583 28.6156 10.7426 28.3385 10.1711 27.7599C9.13682 26.7084 8.98825 24.7355 10.7111 22.9926L20.0656 13.521C20.4499 13.1324 21.0728 13.1324 21.4571 13.521C21.8414 13.9096 21.8414 14.541 21.4571 14.9296L12.1012 24.4027C11.2926 25.2198 11.2183 26.0013 11.5626 26.3513C11.714 26.5027 11.9426 26.5727 12.2069 26.5427C12.6112 26.5013 13.0726 26.2341 13.5055 25.7984L26.8244 12.3138C27.7387 11.3881 28.0887 10.2995 27.8101 9.24947C27.6708 8.736 27.4013 8.2672 27.0276 7.88851C26.6539 7.50982 26.1888 7.23407 25.6772 7.08799C24.64 6.80656 23.5629 7.16228 22.6486 8.08802L8.72253 22.1883C6.12818 24.8155 6.74963 27.8399 8.42395 29.5356C10.0997 31.2314 13.0841 31.8628 15.6798 29.2328L29.6058 15.1325C29.6967 15.0401 29.8049 14.9668 29.9244 14.9167C30.0438 14.8666 30.1721 14.8408 30.3016 14.8408C30.4311 14.8408 30.5593 14.8666 30.6788 14.9167C30.7982 14.9668 30.9065 15.0401 30.9973 15.1325C31.1822 15.3205 31.2858 15.5737 31.2858 15.8375C31.2858 16.1012 31.1822 16.3544 30.9973 16.5425L17.0713 30.6428C15.4298 32.3028 13.5912 33 11.8597 33Z" fill="#445F3D"/>
</svg>
