<svg width="40" height="40" viewBox="0 0 40 40" fill="none" xmlns="http://www.w3.org/2000/svg">
<path d="M25.4208 20.009H22.1502C22.1502 25.2344 22.1502 31.6663 22.1502 31.6663H17.3038C17.3038 31.6663 17.3038 25.2967 17.3038 20.009H15V15.8889H17.3038V13.224C17.3038 11.3154 18.2107 8.33301 22.1947 8.33301L25.786 8.34677V12.3462C25.786 12.3462 23.6037 12.3462 23.1794 12.3462C22.7551 12.3462 22.1518 12.5584 22.1518 13.4685V15.8897H25.8444L25.4208 20.009Z" fill="#AEAEB5"/>
<mask id="mask0" mask-type="alpha" maskUnits="userSpaceOnUse" x="15" y="8" width="11" height="24">
<path d="M25.4208 20.009H22.1502C22.1502 25.2344 22.1502 31.6663 22.1502 31.6663H17.3038C17.3038 31.6663 17.3038 25.2967 17.3038 20.009H15V15.8889H17.3038V13.224C17.3038 11.3154 18.2107 8.33301 22.1947 8.33301L25.786 8.34677V12.3462C25.786 12.3462 23.6037 12.3462 23.1794 12.3462C22.7551 12.3462 22.1518 12.5584 22.1518 13.4685V15.8897H25.8444L25.4208 20.009Z" fill="white"/>
</mask>
<g mask="url(#mask0)">
<rect width="40" height="40" fill="#445F3D"/>
</g>
</svg>
