<svg width="35" height="35" viewBox="0 0 35 35" fill="none" xmlns="http://www.w3.org/2000/svg">
<path d="M24.4609 16.5557C25.4425 16.5557 26.2383 15.5925 26.2383 14.4043C26.2383 13.2161 25.4425 12.2529 24.4609 12.2529C23.4793 12.2529 22.6836 13.2161 22.6836 14.4043C22.6836 15.5925 23.4793 16.5557 24.4609 16.5557Z" fill="#445F3D"/>
<path d="M21.6547 25.3992C20.8683 24.872 19.7559 25.8247 19.1686 27.5254C18.5812 29.2284 18.7459 31.0364 19.5334 31.563C20.3209 32.0918 21.4348 31.1403 22.02 29.4373C22.6046 27.736 22.4422 25.9275 21.6547 25.3992Z" fill="#445F3D"/>
<path d="M13.3266 25.3989C12.5385 25.9278 12.3745 27.7352 12.9613 29.4371C13.547 31.1395 14.6604 32.0916 15.4485 31.5633C16.2349 31.0361 16.3984 29.2282 15.8121 27.5263C15.2264 25.825 14.1141 24.8723 13.3266 25.3989Z" fill="#445F3D"/>
<path d="M31.7076 1.1002C28.7364 1.03458 26.3395 1.47153 24.9472 2.32356C24.6032 2.82887 24.3286 3.46161 24.1246 4.1988C21.1994 1.67442 15.285 1.4234 10.8531 4.03364C10.6491 3.37411 10.3926 2.80262 10.0787 2.34981C8.63496 1.48247 6.22434 1.08544 3.28817 1.16747C3.21817 3.96036 3.68137 6.21348 4.58918 7.5227C5.147 7.85739 5.85246 8.12098 6.67387 8.31567C5.79067 9.95083 5.26129 11.9289 5.26129 14.2804C5.26129 14.2804 5.8645 13.5257 6.97793 12.5348C6.8866 16.5341 5.43246 19.315 5.43246 19.315C5.43246 19.315 6.58418 19.0612 7.94973 18.0134C7.25301 21.5036 5.22356 24.0717 5.22356 24.0717C5.22356 24.0717 7.03371 23.5888 8.927 22.1948C8.25489 26.3954 4.7341 29.9747 4.7341 29.9747C4.7341 29.9747 7.62981 29.127 10.158 27.1243C9.95293 27.966 9.95075 28.8213 9.95075 29.5382C9.95075 33.1629 12.9657 33.9056 17.4911 33.9056C22.0164 33.9056 25.0314 33.1629 25.0314 29.5382C25.0314 28.864 25.0308 28.0677 24.8602 27.2747C24.8657 25.6128 25.5504 22.8456 26.3116 20.4536C26.7152 21.059 26.8601 21.8864 26.8601 21.8864C26.8601 21.8864 30.6139 16.7277 29.4288 10.7186C29.2232 9.67848 28.8699 8.88387 28.4406 8.27301C29.2401 8.07395 29.9182 7.80981 30.4493 7.48551C31.3707 6.12872 31.7957 3.86192 31.7076 1.1002ZM7.55379 6.95122C6.83356 6.84294 6.22871 6.65864 5.78793 6.39395C5.27551 5.65567 5.01575 4.38637 5.05348 2.81192C6.70942 2.76489 8.06731 2.98911 8.88051 3.47856C9.14137 3.85481 9.3366 4.37051 9.46129 4.99231C8.74634 5.56327 8.10554 6.22134 7.55379 6.95122ZM17.4905 32.8299C12.0989 32.8299 11.0445 31.6229 11.0445 29.5382C11.0445 28.001 11.1287 26.6529 12.1689 25.7172L12.3149 25.5865L12.3417 25.394C12.4516 24.6087 12.73 24.0214 13.1046 23.7829C13.2304 23.7031 13.3611 23.6643 13.5043 23.6643C13.8724 23.6643 14.3115 23.9147 14.7419 24.3697L14.9372 24.5754L15.2204 24.5349C15.8931 24.4392 16.6571 24.3911 17.4911 24.3911C18.3261 24.3911 19.0901 24.4392 19.7628 24.5349L20.0461 24.5754L20.2413 24.3697C20.8407 23.7381 21.4335 23.5002 21.8775 23.7829C22.2527 24.0214 22.53 24.6082 22.6399 25.3929L22.6672 25.586L22.8127 25.7167C23.8529 26.6518 23.9376 28.001 23.9376 29.5382C23.9371 31.6229 22.8827 32.8299 17.4905 32.8299ZM23.6937 25.0582C23.516 24.0279 23.0949 23.2765 22.4714 22.8795C21.6457 22.354 20.5787 22.5585 19.6436 23.4351C18.3365 23.2765 16.6472 23.2765 15.3397 23.4351C14.405 22.5585 13.3386 22.3534 12.5096 22.88C11.8861 23.2787 11.4656 24.0296 11.2873 25.0588C11.0269 25.3174 10.8034 25.6107 10.6234 25.9305C10.1257 22.588 8.40911 17.2893 8.40911 15.5946C8.40911 14.2033 8.33364 12.7629 8.67489 11.178C10.3571 9.97489 12.6157 8.74333 15.3572 8.1445C15.3572 8.1445 13.4442 10.2975 10.986 12.3385C10.8353 12.2847 10.6768 12.2559 10.5168 12.2532C9.53457 12.2532 8.73942 13.2162 8.73942 14.4051C8.73942 15.594 9.53457 16.5565 10.5168 16.5565C11.4973 16.5565 12.2941 15.594 12.2941 14.4051C12.2941 13.7095 12.0174 13.0975 11.5947 12.7049C13.705 11.9923 17.31 10.5311 19.8607 8.19536C19.8607 8.19536 20.3069 10.7082 15.1997 12.3735C15.1997 12.3735 24.2182 12.1383 25.7707 8.74825C26.7502 10.9839 26.5708 13.0478 26.5708 15.5957C26.5708 15.9369 26.5003 16.4291 26.3893 17.017C25.5318 19.0815 24.3981 22.6438 23.9551 25.3454C23.8725 25.2456 23.7853 25.1498 23.6937 25.0582ZM29.2363 6.34747C28.7189 6.66465 27.9495 6.8763 27.0056 6.97309C26.6212 6.76609 26.2037 6.62767 25.7718 6.56403C25.6889 6.3388 25.5899 6.11985 25.4754 5.90887C25.5476 4.87528 25.7768 4.02817 26.1601 3.46215C26.9405 2.98473 28.2793 2.74192 29.939 2.77911C29.9888 4.32075 29.7509 5.58895 29.2363 6.34747Z" fill="#445F3D"/>
</svg>
