<svg width="40" height="40" viewBox="0 0 40 40" fill="none" xmlns="http://www.w3.org/2000/svg">
<path fill-rule="evenodd" clip-rule="evenodd" d="M31.6665 27.1565V17.6047V12.842C31.6665 10.3549 29.6438 8.33301 27.1567 8.33301H12.843C10.3559 8.33301 8.33398 10.3549 8.33398 12.842V17.6047V27.1565C8.33398 29.6444 10.3559 31.6663 12.843 31.6663H27.1575C29.6438 31.6663 31.6665 29.6444 31.6665 27.1565ZM24.1076 19.9984C24.1076 22.2633 22.2625 24.105 19.9993 24.105C17.7353 24.105 15.8919 22.2624 15.8944 19.9976C15.8952 19.1036 16.1852 18.2781 16.6711 17.6039C17.4188 16.5694 18.631 15.8918 20.0018 15.8918C21.3718 15.8918 22.5847 16.5702 23.3309 17.6047C23.8151 18.2789 24.1076 19.1044 24.1076 19.9984ZM28.9672 14.9746V11.5323V11.02L28.4524 11.0217L25.0118 11.0324L25.025 14.9878L28.9672 14.9746ZM20.0002 26.3798C23.5193 26.3798 26.3815 23.5159 26.3815 19.9984C26.3815 19.1523 26.2105 18.3434 25.9073 17.6047H29.3917V27.1565C29.3917 28.3909 28.3878 29.3907 27.1558 29.3907H12.8421C11.6085 29.3907 10.6062 28.3909 10.6062 27.1565V17.6047H14.089C13.7882 18.3434 13.6196 19.1523 13.6196 19.9984C13.6196 23.5159 16.4811 26.3798 20.0002 26.3798Z" fill="#445F3D"/>
<mask id="mask0" mask-type="alpha" maskUnits="userSpaceOnUse" x="8" y="8" width="24" height="24">
<path fill-rule="evenodd" clip-rule="evenodd" d="M31.6665 27.1565V17.6047V12.842C31.6665 10.3549 29.6438 8.33301 27.1567 8.33301H12.843C10.3559 8.33301 8.33398 10.3549 8.33398 12.842V17.6047V27.1565C8.33398 29.6444 10.3559 31.6663 12.843 31.6663H27.1575C29.6438 31.6663 31.6665 29.6444 31.6665 27.1565ZM24.1076 19.9984C24.1076 22.2633 22.2625 24.105 19.9993 24.105C17.7353 24.105 15.8919 22.2624 15.8944 19.9976C15.8952 19.1036 16.1852 18.2781 16.6711 17.6039C17.4188 16.5694 18.631 15.8918 20.0018 15.8918C21.3718 15.8918 22.5847 16.5702 23.3309 17.6047C23.8151 18.2789 24.1076 19.1044 24.1076 19.9984ZM28.9672 14.9746V11.5323V11.02L28.4524 11.0217L25.0118 11.0324L25.025 14.9878L28.9672 14.9746ZM20.0002 26.3798C23.5193 26.3798 26.3815 23.5159 26.3815 19.9984C26.3815 19.1523 26.2105 18.3434 25.9073 17.6047H29.3917V27.1565C29.3917 28.3909 28.3878 29.3907 27.1558 29.3907H12.8421C11.6085 29.3907 10.6062 28.3909 10.6062 27.1565V17.6047H14.089C13.7882 18.3434 13.6196 19.1523 13.6196 19.9984C13.6196 23.5159 16.4811 26.3798 20.0002 26.3798Z" fill="white"/>
</mask>
<g mask="url(#mask0)">
<rect width="40" height="40" fill="#445F3D"/>
</g>
</svg>
