<svg width="41" height="40" viewBox="0 0 41 40" fill="none" xmlns="http://www.w3.org/2000/svg">
<path d="M20.3846 5C11.9013 5 5 11.7287 5 20C5 28.2712 11.9013 35 20.3846 35C28.868 35 35.7692 28.2712 35.7692 20C35.7692 11.7287 28.868 5 20.3846 5ZM20.3846 7.5C27.4808 7.5 33.2051 13.0813 33.2051 20C33.2051 26.9188 27.4808 32.5 20.3846 32.5C13.2885 32.5 7.5641 26.9188 7.5641 20C7.5641 13.0813 13.2885 7.5 20.3846 7.5ZM20.3846 12.5C17.5641 12.5 15.2564 14.75 15.2564 17.5H17.8205C17.8205 16.1038 18.9526 15 20.3846 15C21.8167 15 22.9487 16.1038 22.9487 17.5C22.9484 17.9671 22.7972 18.4223 22.5167 18.801C22.2362 19.1797 21.8406 19.4628 21.3859 19.61L20.8654 19.765C20.353 19.9333 19.9074 20.2539 19.5913 20.6816C19.2751 21.1093 19.1042 21.6228 19.1026 22.15V23.75H21.6667V22.1488L22.1872 21.9925C23.1532 21.6759 23.9933 21.0725 24.5897 20.2668C25.1861 19.4611 25.5089 18.4936 25.5128 17.5C25.5128 14.75 23.2051 12.5 20.3846 12.5ZM19.1026 25V27.5H21.6667V25H19.1026Z" fill="#445F3D"/>
</svg>
