<svg width="40" height="40" viewBox="0 0 40 40" fill="none" xmlns="http://www.w3.org/2000/svg">
<path d="M31.9231 11.8462H27.2527L26.1401 8.72802C26.0632 8.51466 25.9224 8.33023 25.7368 8.19992C25.5511 8.06962 25.3298 7.9998 25.103 8H14.5673C14.1037 8 13.6882 8.2919 13.5337 8.72802L12.4176 11.8462H7.74725C6.2294 11.8462 5 13.0756 5 14.5934V30.2527C5 31.7706 6.2294 33 7.74725 33H31.9231C33.4409 33 34.6703 31.7706 34.6703 30.2527V14.5934C34.6703 13.0756 33.4409 11.8462 31.9231 11.8462ZM32.1978 30.2527C32.1978 30.4038 32.0742 30.5275 31.9231 30.5275H7.74725C7.59615 30.5275 7.47253 30.4038 7.47253 30.2527V14.5934C7.47253 14.4423 7.59615 14.3187 7.74725 14.3187H14.1587L14.7459 12.6772L15.5323 10.4725H24.1346L24.921 12.6772L25.5082 14.3187H31.9231C32.0742 14.3187 32.1978 14.4423 32.1978 14.5934V30.2527ZM19.8352 16.5165C16.7995 16.5165 14.3407 18.9753 14.3407 22.011C14.3407 25.0467 16.7995 27.5055 19.8352 27.5055C22.8709 27.5055 25.3297 25.0467 25.3297 22.011C25.3297 18.9753 22.8709 16.5165 19.8352 16.5165ZM19.8352 25.3077C18.0151 25.3077 16.5385 23.831 16.5385 22.011C16.5385 20.1909 18.0151 18.7143 19.8352 18.7143C21.6552 18.7143 23.1319 20.1909 23.1319 22.011C23.1319 23.831 21.6552 25.3077 19.8352 25.3077Z" fill="#445F3D"/>
</svg>
