<svg width="50" height="50" viewBox="0 0 50 50" fill="none" xmlns="http://www.w3.org/2000/svg">
<g clip-path="url(#clip0)">
<path d="M32.0756 36.9999C31.7259 36.9996 31.3843 36.8949 31.0945 36.6993L25.1922 32.7433C25.1631 32.7232 25.1286 32.7125 25.0933 32.7125C25.058 32.7125 25.0235 32.7232 24.9944 32.7433L19.0921 36.6993C18.7957 36.8972 18.4461 37.0002 18.0898 36.9948C17.7334 36.9893 17.3872 36.8756 17.097 36.6687C16.8068 36.4618 16.5864 36.1715 16.4651 35.8364C16.3438 35.5013 16.3273 35.1372 16.4178 34.7925L18.3563 27.9566C18.3654 27.9222 18.3643 27.8859 18.3531 27.8521C18.3418 27.8184 18.3209 27.7887 18.293 27.7667L12.7071 23.3755C12.4131 23.1565 12.1949 22.8509 12.0833 22.5016C11.9717 22.1523 11.9722 21.7768 12.0848 21.4279C12.1973 21.0789 12.4163 20.7739 12.7109 20.5556C13.0056 20.3373 13.3611 20.2167 13.7278 20.2108L20.8485 19.9417C20.8835 19.9393 20.9171 19.9268 20.9452 19.9058C20.9733 19.8847 20.9946 19.856 21.0068 19.8231L23.4595 13.1533C23.5831 12.8152 23.8077 12.5232 24.1027 12.3169C24.3978 12.1106 24.7491 12 25.1091 12C25.4691 12 25.8205 12.1106 26.1155 12.3169C26.4106 12.5232 26.6351 12.8152 26.7588 13.1533L29.2115 19.8231C29.2236 19.856 29.245 19.8847 29.2731 19.9058C29.3011 19.9268 29.3347 19.9393 29.3697 19.9417L36.4905 20.2108C36.8571 20.2167 37.2127 20.3373 37.5073 20.5556C37.802 20.7739 38.0209 21.0789 38.1335 21.4279C38.246 21.7768 38.2465 22.1523 38.1349 22.5016C38.0233 22.8509 37.8052 23.1565 37.5111 23.3755L31.9253 27.7667C31.8965 27.788 31.8749 27.8176 31.8636 27.8516C31.8523 27.8856 31.8517 27.9222 31.862 27.9566L33.8004 34.7925C33.8684 35.0547 33.8752 35.329 33.8201 35.5943C33.7651 35.8595 33.6497 36.1085 33.4829 36.322C33.3161 36.5354 33.1024 36.7076 32.8584 36.8252C32.6143 36.9427 32.3465 37.0025 32.0756 36.9999Z" fill="#445F3D"/>
</g>
<defs>
<clipPath id="clip0">
<rect width="27" height="27" fill="white" transform="translate(11.5 11.5)"/>
</clipPath>
</defs>
</svg>
