<svg width="50" height="50" viewBox="0 0 50 50" fill="none" xmlns="http://www.w3.org/2000/svg">
<path d="M31.25 20H33.75C34.413 20 35.0489 20.2634 35.5178 20.7322C35.9866 21.2011 36.25 21.837 36.25 22.5V33.75C36.25 34.413 35.9866 35.0489 35.5178 35.5178C35.0489 35.9866 34.413 36.25 33.75 36.25H16.25C15.587 36.25 14.9511 35.9866 14.4822 35.5178C14.0134 35.0489 13.75 34.413 13.75 33.75V22.5C13.75 21.837 14.0134 21.2011 14.4822 20.7322C14.9511 20.2634 15.587 20 16.25 20H18.75V22.5H16.25V33.75H33.75V22.5H31.25V20ZM18.125 16.875L19.8925 18.6425L23.75 14.785V27.5H26.25V14.785L30.1075 18.6425L31.875 16.875L25 10L18.125 16.875Z" fill="#445F3D"/>
</svg>
