<svg width="40" height="40" viewBox="0 0 40 40" fill="none" xmlns="http://www.w3.org/2000/svg">
<path fill-rule="evenodd" clip-rule="evenodd" d="M30.8447 10.8218L30.7827 10.7805C29.5011 9.56089 27.9921 8.98211 26.2558 9.06479L26.1938 8.94077L26.2351 8.92009C27.8061 8.56869 28.7363 8.19662 29.0257 7.78321C29.1084 7.45248 29.005 7.26644 28.6536 7.2251C27.8681 7.32845 27.124 7.49382 26.4832 7.76254C27.31 7.2251 27.6201 6.85303 27.434 6.66699C26.6279 6.68766 25.739 7.10108 24.8295 7.9279C25.1603 7.34912 25.305 7.01839 25.2223 6.97705C24.7675 7.26644 24.3954 7.59717 24.0647 7.94857C23.3619 8.73406 22.8038 9.45753 22.3697 10.119L22.3491 10.1603C21.2535 11.9587 20.468 13.757 20.0133 15.5967L19.8479 15.7414L19.8066 15.7621C19.1451 14.9353 18.3389 14.2325 17.3881 13.6743C16.2719 12.9302 14.9489 12.2481 13.4193 11.5659C11.7657 10.6978 10.0707 9.99497 8.37568 9.43686C8.355 11.3592 9.30586 12.8682 11.1455 13.9844V14.0051C10.5048 14.0051 9.86396 14.1084 9.24384 14.2945C9.36787 16.0721 10.6288 17.2917 13.0059 17.9532L12.9852 17.9945C12.0551 17.9325 11.2902 18.2632 10.6908 18.9454C11.4763 20.475 12.8612 21.1985 14.8663 21.1571C14.4735 21.3638 14.1635 21.5705 13.9568 21.8186C13.5847 22.2113 13.4607 22.6661 13.5847 23.1829C14.0188 23.9683 14.7836 24.3197 15.9205 24.2577L15.9825 24.3404L15.9618 24.3818C13.9981 26.4075 11.621 27.317 8.8511 27.131L8.80976 27.1516C7.11476 27.131 5.29575 26.3248 3.33203 24.7125C5.29575 27.5444 7.92092 29.5908 11.1662 30.893C14.8663 32.1126 18.587 32.2159 22.287 31.1617H22.3491C25.9457 30.1282 28.9843 27.9785 31.5062 24.7538C32.6637 23.0795 33.3872 21.4672 33.6766 19.9169C35.5576 19.9789 36.9012 19.4415 37.7487 18.2839L37.728 18.2426C37.0872 18.4699 35.8677 18.4079 34.0693 18.0359V17.8292C36.0537 17.6018 37.2319 16.961 37.604 15.9068C36.2191 16.4442 34.8548 16.4649 33.5112 15.9481C33.2632 14.0878 32.3743 12.3721 30.8447 10.8218Z" fill="#AEAEB5"/>
<mask id="mask0" mask-type="alpha" maskUnits="userSpaceOnUse" x="3" y="6" width="35" height="26">
<path fill-rule="evenodd" clip-rule="evenodd" d="M30.8447 10.8218L30.7827 10.7805C29.5011 9.56089 27.9921 8.98211 26.2558 9.06479L26.1938 8.94077L26.2351 8.92009C27.8061 8.56869 28.7363 8.19662 29.0257 7.78321C29.1084 7.45248 29.005 7.26644 28.6536 7.2251C27.8681 7.32845 27.124 7.49382 26.4832 7.76254C27.31 7.2251 27.6201 6.85303 27.434 6.66699C26.6279 6.68766 25.739 7.10108 24.8295 7.9279C25.1603 7.34912 25.305 7.01839 25.2223 6.97705C24.7675 7.26644 24.3954 7.59717 24.0647 7.94857C23.3619 8.73406 22.8038 9.45753 22.3697 10.119L22.3491 10.1603C21.2535 11.9587 20.468 13.757 20.0133 15.5967L19.8479 15.7414L19.8066 15.7621C19.1451 14.9353 18.3389 14.2325 17.3881 13.6743C16.2719 12.9302 14.9489 12.2481 13.4193 11.5659C11.7657 10.6978 10.0707 9.99497 8.37568 9.43686C8.355 11.3592 9.30586 12.8682 11.1455 13.9844V14.0051C10.5048 14.0051 9.86396 14.1084 9.24384 14.2945C9.36787 16.0721 10.6288 17.2917 13.0059 17.9532L12.9852 17.9945C12.0551 17.9325 11.2902 18.2632 10.6908 18.9454C11.4763 20.475 12.8612 21.1985 14.8663 21.1571C14.4735 21.3638 14.1635 21.5705 13.9568 21.8186C13.5847 22.2113 13.4607 22.6661 13.5847 23.1829C14.0188 23.9683 14.7836 24.3197 15.9205 24.2577L15.9825 24.3404L15.9618 24.3818C13.9981 26.4075 11.621 27.317 8.8511 27.131L8.80976 27.1516C7.11476 27.131 5.29575 26.3248 3.33203 24.7125C5.29575 27.5444 7.92092 29.5908 11.1662 30.893C14.8663 32.1126 18.587 32.2159 22.287 31.1617H22.3491C25.9457 30.1282 28.9843 27.9785 31.5062 24.7538C32.6637 23.0795 33.3872 21.4672 33.6766 19.9169C35.5576 19.9789 36.9012 19.4415 37.7487 18.2839L37.728 18.2426C37.0872 18.4699 35.8677 18.4079 34.0693 18.0359V17.8292C36.0537 17.6018 37.2319 16.961 37.604 15.9068C36.2191 16.4442 34.8548 16.4649 33.5112 15.9481C33.2632 14.0878 32.3743 12.3721 30.8447 10.8218Z" fill="white"/>
</mask>
<g mask="url(#mask0)">
<rect width="40" height="40" fill="#445F3D"/>
</g>
</svg>
