<svg width="47" height="42" viewBox="0 0 47 42" fill="none" xmlns="http://www.w3.org/2000/svg">
<path d="M45.4813 7.66667V15.4444L42.1463 16.5556L38.7223 11.0889C38.4332 10.6222 37.6995 10.8222 37.6995 11.3778V19.3333C37.6995 21.5111 36.8324 23.4667 35.4762 24.9556V41H29.9177V27.6667H29.3619C28.895 27.6667 28.4281 27.6 27.9834 27.5333L18.1116 25.8889L15.6214 30.3556L17.7559 41H12.1308L9.90738 30.4444C9.84068 29.7778 9.90738 29.1111 10.2631 28.5333L12.531 24.5111C11.4273 23.8974 10.5025 23.0071 9.84762 21.9278C9.19268 20.8485 8.83015 19.6174 8.7957 18.3556C8.70676 18.6889 8.6623 19.1778 8.729 19.8889C8.7957 20.8667 9.04027 22.3111 8.88463 23.9111C8.7957 25.5111 8.06199 27.1556 7.12817 28.2444C6.17212 29.3333 5.12714 30.0889 4.01545 30.6667L2.45909 29.1111C2.88153 28.0667 3.30397 27.1333 3.39291 26.2667C3.52631 25.4444 3.37067 24.7778 3.1261 24.1778L1.94772 21.6667C1.48081 20.5333 0.902732 18.8889 1.0139 16.9556C1.0806 15.0667 2.12559 12.6 4.10439 11.2444C6.10542 9.88889 8.26209 9.71111 10.0186 10.0667C11.1302 10.2889 12.2642 10.8222 13.2424 11.5778C14.0651 11.2 15.0211 11 16.0217 11H28.806V9.88889C28.806 4.97778 32.7859 1 37.6995 1H45.4813L43.5025 3.97778C44.7031 4.77778 45.4813 6.13333 45.4813 7.66667Z" stroke="#445F3D" stroke-width="0.75" stroke-dasharray="12 12"/>
</svg>
